{
.appVersion = "3133";
.formatVersion = 3;
axes = (
{
name = Weight;
tag = wght;
}
);
customParameters = (
{
name = "Variable Font Origin";
value = m01;
}
);
date = "2022-02-28 16:51:29 +0000";
familyName = "TAS Beginner";
featurePrefixes = (
{
automatic = 1;
code = "languagesystem DFLT dflt;
";
name = Languagesystems;
}
);
features = (
{
automatic = 1;
code = "feature ss01;
";
tag = aalt;
},
{
automatic = 1;
code = "sub a by a.ss01;
sub f by f.ss01;
sub h by h.ss01;
sub i by i.ss01;
sub k by k.ss01;
sub l by l.ss01;
sub m by m.ss01;
sub n by n.ss01;
sub o by o.ss01;
sub r by r.ss01;
sub t by t.ss01;
sub u by u.ss01;
sub v by v.ss01;
sub w by w.ss01;
";
labels = (
{
language = dflt;
value = "";
}
);
tag = ss01;
}
);
fontMaster = (
{
axesValues = (
300
);
guides = (
{
pos = (460,350);
},
{
pos = (289,650);
},
{
pos = (125,568);
},
{
locked = 1;
pos = (124,175);
}
);
iconName = Light;
id = m01;
metricValues = (
{
over = 4;
pos = 700;
},
{
over = 4;
pos = 650;
},
{
over = 4;
pos = 350;
},
{
over = -4;
},
{
over = -4;
pos = -300;
},
{
over = -16;
pos = 14;
}
);
name = Regular;
stemValues = (
46,
50
);
visible = 1;
},
{
axesValues = (
800
);
guides = (
{
pos = (460,350);
},
{
pos = (340,650);
},
{
locked = 1;
pos = (183,175);
}
);
iconName = Bold_Extended;
id = m002;
metricValues = (
{
over = 4;
pos = 700;
},
{
over = 4;
pos = 650;
},
{
over = 4;
pos = 350;
},
{
over = -4;
},
{
over = -4;
pos = -300;
},
{
over = -16;
pos = 14;
}
);
name = "Extra Bold";
stemValues = (
90,
100
);
userData = {
GSOffsetHorizontal = 27;
GSOffsetKeepCompatible = 1;
GSOffsetVertical = 24;
};
}
);
glyphs = (
{
glyphname = A;
lastChange = "2022-03-17 23:55:55 +0000";
layers = (
{
layerId = m01;
name = "QBeginners Light";
shapes = (
{
closed = 1;
nodes = (
(430,622,ls),
(436,632,o),
(428,650,o),
(409,650,cs),
(389,650,o),
(385,640,o),
(377,627,cs),
(11,33,ls),
(-1,14,o),
(10,1,o),
(25,0,cs),
(45,-1,o),
(50,5,o),
(61,23,cs)
);
},
{
closed = 1;
nodes = (
(396,327,l),
(392,373,l),
(260,373,l),
(238,327,l)
);
},
{
closed = 1;
nodes = (
(383,565,l),
(391,21,ls),
(391,11,o),
(394,0,o),
(415,0,cs),
(433,0,o),
(440,9,o),
(440,24,cs),
(432,634,l)
);
}
);
width = 494;
},
{
layerId = m002;
name = "QBeginners Light";
shapes = (
{
closed = 1;
nodes = (
(425,603,ls),
(437,623,o),
(419,648,o),
(383,650,cs),
(351,652,o),
(337,638,o),
(325,618,cs),
(-13,67,ls),
(-35,31,o),
(-7,2,o),
(24,0,cs),
(53,-2,o),
(68,7,o),
(83,32,cs)
);
},
{
closed = 1;
nodes = (
(347,283,l),
(344,373,l),
(280,373,l),
(223,283,l)
);
},
{
closed = 1;
nodes = (
(337,470,l),
(338,43,ls),
(338,18,o),
(354,0,o),
(386,0,cs),
(417,0,o),
(438,16,o),
(438,46,cs),
(429,615,l)
);
}
);
width = 526;
}
);
unicode = 65;
},
{
glyphname = B;
lastChange = "2022-03-18 00:03:30 +0000";
layers = (
{
layerId = m01;
shapes = (
{
closed = 1;
nodes = (
(356,312,o),
(394,373,o),
(415,458,cs),
(441,564,o),
(373,651,o),
(181,650,c),
(193,605,l),
(343,605,o),
(386,543,o),
(366,463,cs),
(354,414,o),
(329,364,o),
(129,378,c),
(118,328,l)
);
},
{
closed = 1;
nodes = (
(293,0,o),
(358,44,o),
(383,144,cs),
(414,269,o),
(284,367,o),
(129,378,c),
(119,328,l),
(262,318,o),
(357,241,o),
(335,155,cs),
(317,82,o),
(237,44,o),
(53,44,c),
(27,0,l)
);
},
{
closed = 1;
nodes = (
(207,639,o),
(201,648,o),
(182,650,cs),
(165,651,o),
(156,644,o),
(151,625,cs),
(4,33,ls),
(0,16,o),
(9,1,o),
(26,0,cs),
(40,-1,o),
(49,7,o),
(54,27,cs),
(201,617,ls)
);
}
);
width = 456;
},
{
layerId = m002;
shapes = (
{
closed = 1;
nodes = (
(360,282,o),
(412,372,o),
(435,464,cs),
(462,573,o),
(380,650,o),
(187,650,c),
(217,564,l),
(321,564,o),
(350,534,o),
(336,481,cs),
(324,434,o),
(303,375,o),
(165,375,c),
(144,282,l)
);
},
{
closed = 1;
nodes = (
(297,-2,o),
(374,30,o),
(406,158,cs),
(437,284,o),
(278,374,o),
(165,374,c),
(146,281,l),
(232,282,o),
(323,240,o),
(308,180,cs),
(288,101,o),
(229,91,o),
(102,91,c),
(43,0,l)
);
},
{
closed = 1;
nodes = (
(242,631,o),
(218,650,o),
(190,650,cs),
(162,650,o),
(141,640,o),
(133,609,cs),
(-2,59,ls),
(-10,28,o),
(12,0,o),
(44,0,cs),
(67,0,o),
(90,9,o),
(98,42,cs),
(232,591,ls)
);
}
);
width = 467;
}
);
metricLeft = N;
unicode = 66;
},
{
glyphname = C;
lastChange = "2022-03-18 00:03:30 +0000";
layers = (
{
layerId = m01;
shapes = (
{
closed = 1;
nodes = (
(449,601,o),
(473,579,o),
(477,542,cs),
(479,528,o),
(498,524,o),
(510,526,cs),
(526,529,o),
(527,543,o),
(525,553,cs),
(519,612,o),
(474,650,o),
(397,650,cs),
(202,650,o),
(128,511,o),
(88,349,cs),
(43,169,o),
(1,0,o),
(186,0,cs),
(284,0,o),
(366,45,o),
(407,107,cs),
(428,140,o),
(432,152,o),
(432,158,cs),
(433,170,o),
(419,176,o),
(408,177,cs),
(392,178,o),
(384,165,o),
(368,139,cs),
(333,86,o),
(269,50,o),
(188,50,cs),
(40,50,o),
(110,231,o),
(141,357,cs),
(173,486,o),
(235,601,o),
(393,601,cs)
);
}
);
width = 489;
},
{
layerId = m002;
shapes = (
{
closed = 1;
nodes = (
(448,556,o),
(455,548,o),
(458,523,cs),
(461,493,o),
(499,483,o),
(521,488,cs),
(548,494,o),
(559,514,o),
(556,539,cs),
(550,606,o),
(495,650,o),
(412,650,cs),
(212,650,o),
(137,507,o),
(98,353,cs),
(50,162,o),
(22,-1,o),
(214,-1,cs),
(316,-1,o),
(401,47,o),
(443,109,cs),
(465,145,o),
(469,159,o),
(470,168,cs),
(472,195,o),
(445,210,o),
(422,211,cs),
(394,213,o),
(381,199,o),
(361,165,cs),
(330,119,o),
(284,94,o),
(219,94,cs),
(152,94,o),
(157,173,o),
(201,348,cs),
(230,464,o),
(276,556,o),
(405,556,cs)
);
}
);
width = 531;
}
);
metricLeft = O;
unicode = 67;
},
{
glyphname = D;
lastChange = "2022-03-18 00:03:30 +0000";
layers = (
{
layerId = m01;
shapes = (
{
closed = 1;
nodes = (
(92,0,ls),
(284,0,o),
(418,115,o),
(473,335,cs),
(515,502,o),
(409,650,o),
(220,650,cs),
(184,650,l),
(176,604,l),
(221,604,ls),
(379,604,o),
(456,474,o),
(423,337,cs),
(375,145,o),
(257,49,o),
(96,46,cs),
(43,45,l),
(29,0,l)
);
},
{
closed = 1;
nodes = (
(207,636,o),
(205,650,o),
(184,650,cs),
(162,650,o),
(157,641,o),
(153,626,cs),
(2,28,ls),
(-2,14,o),
(5,0,o),
(23,0,cs),
(45,0,o),
(50,13,o),
(53,23,cs),
(202,618,ls)
);
}
);
width = 522;
},
{
layerId = m002;
shapes = (
{
closed = 1;
nodes = (
(135,0,ls),
(328,0,o),
(442,140,o),
(493,345,cs),
(536,517,o),
(432,650,o),
(212,650,cs),
(190,650,l),
(210,560,l),
(231,560,ls),
(364,560,o),
(422,470,o),
(393,352,cs),
(350,178,o),
(273,90,o),
(135,90,cs),
(97,90,l),
(37,0,l)
);
},
{
closed = 1;
nodes = (
(243,632,o),
(218,650,o),
(192,650,cs),
(159,650,o),
(141,637,o),
(134,609,cs),
(-4,57,ls),
(-11,28,o),
(7,0,o),
(39,0,cs),
(74,0,o),
(90,18,o),
(95,39,cs),
(233,591,ls)
);
}
);
width = 537;
}
);
metricLeft = N;
unicode = 68;
},
{
glyphname = E;
lastChange = "2022-03-18 00:03:30 +0000";
layers = (
{
layerId = m01;
shapes = (
{
closed = 1;
nodes = (
(206,633,o),
(206,650,o),
(185,650,cs),
(163,650,o),
(156,641,o),
(152,625,cs),
(3,29,ls),
(-1,14,o),
(6,1,o),
(24,0,cs),
(46,-1,o),
(51,16,o),
(54,26,cs),
(201,615,ls)
);
},
{
closed = 1;
nodes = (
(361,0,ls),
(381,0,o),
(387,12,o),
(387,24,cs),
(387,36,o),
(381,46,o),
(361,46,cs),
(54,46,l),
(24,0,l)
);
},
{
closed = 1;
nodes = (
(426,327,ls),
(446,327,o),
(452,338,o),
(452,350,cs),
(452,362,o),
(446,373,o),
(426,373,cs),
(133,373,l),
(122,327,l)
);
},
{
closed = 1;
nodes = (
(510,604,ls),
(530,604,o),
(536,615,o),
(536,627,cs),
(536,639,o),
(530,650,o),
(510,650,cs),
(184,650,l),
(190,604,l)
);
}
);
width = 498;
},
{
layerId = m002;
shapes = (
{
closed = 1;
nodes = (
(241,622,o),
(228,650,o),
(191,650,cs),
(160,650,o),
(142,638,o),
(134,608,cs),
(-5,56,ls),
(-12,27,o),
(7,0,o),
(40,0,cs),
(73,0,o),
(91,18,o),
(96,39,cs),
(233,591,ls)
);
},
{
closed = 1;
nodes = (
(378,0,ls),
(411,0,o),
(430,23,o),
(430,48,cs),
(430,73,o),
(411,94,o),
(378,94,cs),
(96,94,l),
(37,0,l)
);
},
{
closed = 1;
nodes = (
(436,283,ls),
(468,283,o),
(487,303,o),
(487,328,cs),
(487,353,o),
(468,373,o),
(436,373,cs),
(165,373,l),
(143,283,l)
);
},
{
closed = 1;
nodes = (
(517,555,ls),
(549,555,o),
(568,577,o),
(568,602,cs),
(568,627,o),
(549,649,o),
(517,649,cs),
(187,649,l),
(212,555,l)
);
}
);
width = 529;
}
);
metricLeft = N;
unicode = 69;
},
{
glyphname = F;
lastChange = "2022-03-18 00:03:30 +0000";
layers = (
{
layerId = m01;
shapes = (
{
closed = 1;
nodes = (
(205,636,o),
(204,649,o),
(183,650,cs),
(161,652,o),
(155,641,o),
(151,625,cs),
(3,29,ls),
(-1,14,o),
(6,0,o),
(24,0,cs),
(46,0,o),
(51,14,o),
(54,24,cs),
(201,618,ls)
);
},
{
closed = 1;
nodes = (
(426,327,ls),
(446,327,o),
(452,338,o),
(452,350,cs),
(452,362,o),
(446,373,o),
(426,373,cs),
(130,373,l),
(123,327,l)
);
},
{
closed = 1;
nodes = (
(510,604,ls),
(530,604,o),
(536,615,o),
(536,627,cs),
(536,639,o),
(530,650,o),
(510,650,cs),
(180,650,l),
(173,604,l)
);
}
);
width = 494;
},
{
layerId = m002;
shapes = (
{
closed = 1;
nodes = (
(240,621,o),
(228,650,o),
(191,650,cs),
(160,650,o),
(141,637,o),
(134,608,cs),
(-5,56,ls),
(-13,26,o),
(7,0,o),
(40,0,cs),
(73,0,o),
(91,17,o),
(96,39,cs),
(233,591,ls)
);
},
{
closed = 1;
nodes = (
(398,283,ls),
(430,283,o),
(449,303,o),
(449,328,cs),
(449,353,o),
(430,373,o),
(398,373,cs),
(167,373,l),
(145,283,l)
);
},
{
closed = 1;
nodes = (
(465,556,ls),
(497,556,o),
(516,578,o),
(516,603,cs),
(516,628,o),
(497,650,o),
(465,650,cs),
(187,650,l),
(208,556,l)
);
}
);
width = 473;
}
);
metricLeft = N;
unicode = 70;
},
{
glyphname = G;
lastChange = "2022-03-18 00:03:30 +0000";
layers = (
{
layerId = m01;
shapes = (
{
closed = 1;
nodes = (
(454,336,l),
(430,337,o),
(425,331,o),
(361,247,cs),
(320,194,o),
(207,46,o),
(152,46,cs),
(102,46,o),
(96,99,o),
(100,145,cs),
(104,210,o),
(132,318,o),
(145,371,cs),
(169,463,o),
(231,603,o),
(412,603,cs),
(454,603,o),
(479,578,o),
(483,540,cs),
(485,527,o),
(501,521,o),
(513,523,cs),
(528,526,o),
(529,540,o),
(528,550,cs),
(522,609,o),
(476,649,o),
(413,649,cs),
(192,649,o),
(123,492,o),
(88,349,cs),
(83,329,o),
(54,216,o),
(50,153,cs),
(45,83,o),
(65,0,o),
(146,0,cs),
(219,0,o),
(316,107,o),
(410,228,c)
);
},
{
closed = 1;
nodes = (
(474,324,o),
(470,334,o),
(453,336,cs),
(433,337,o),
(424,330,o),
(419,311,cs),
(347,28,ls),
(344,16,o),
(347,0,o),
(366,0,cs),
(389,0,o),
(395,14,o),
(398,25,cs),
(470,307,ls)
);
}
);
width = 458;
},
{
layerId = m002;
shapes = (
{
closed = 1;
nodes = (
(466,353,l),
(435,352,o),
(446,375,o),
(362,267,cs),
(324,216,o),
(222,94,o),
(186,94,cs),
(162,94,o),
(160,115,o),
(162,156,cs),
(166,214,o),
(192,312,o),
(205,361,cs),
(226,445,o),
(277,556,o),
(429,556,cs),
(458,556,o),
(465,547,o),
(467,521,cs),
(471,492,o),
(508,481,o),
(531,486,cs),
(559,492,o),
(570,513,o),
(565,537,cs),
(558,603,o),
(503,650,o),
(433,650,cs),
(206,650,o),
(131,486,o),
(98,352,cs),
(94,335,o),
(67,228,o),
(63,168,cs),
(58,98,o),
(80,0,o),
(177,0,cs),
(262,0,o),
(367,111,o),
(454,223,c)
);
},
{
closed = 1;
nodes = (
(521,340,o),
(495,359,o),
(470,359,cs),
(440,359,o),
(417,345,o),
(410,317,cs),
(343,47,ls),
(337,21,o),
(351,-4,o),
(385,-9,cs),
(416,-12,o),
(437,6,o),
(444,32,cs),
(512,303,ls)
);
}
);
width = 516;
}
);
metricLeft = O;
metricRight = O;
unicode = 71;
},
{
glyphname = H;
lastChange = "2022-03-18 00:03:30 +0000";
layers = (
{
layerId = m01;
shapes = (
{
closed = 1;
nodes = (
(204,635,o),
(199,649,o),
(182,650,cs),
(163,651,o),
(155,641,o),
(151,625,cs),
(3,29,ls),
(-1,14,o),
(6,1,o),
(24,0,cs),
(46,-1,o),
(52,13,o),
(54,23,cs),
(200,617,ls)
);
},
{
closed = 1;
nodes = (
(430,328,l),
(441,373,l),
(127,373,l),
(116,328,l)
);
},
{
closed = 1;
nodes = (
(542,637,o),
(537,649,o),
(518,650,cs),
(500,652,o),
(491,640,o),
(489,630,cs),
(342,28,ls),
(339,16,o),
(341,1,o),
(363,0,cs),
(382,-2,o),
(390,11,o),
(392,20,cs),
(538,620,ls)
);
}
);
width = 522;
},
{
layerId = m002;
shapes = (
{
closed = 1;
nodes = (
(242,624,o),
(224,650,o),
(193,650,cs),
(166,650,o),
(143,638,o),
(135,608,cs),
(-4,57,ls),
(-12,27,o),
(8,0,o),
(41,0,cs),
(74,0,o),
(90,19,o),
(95,39,cs),
(234,591,ls)
);
},
{
closed = 1;
nodes = (
(397,283,l),
(419,373,l),
(167,373,l),
(146,283,l)
);
},
{
closed = 1;
nodes = (
(573,626,o),
(552,650,o),
(521,650,cs),
(495,650,o),
(472,636,o),
(466,612,cs),
(328,55,ls),
(321,25,o),
(337,0,o),
(372,0,cs),
(401,0,o),
(421,15,o),
(426,36,cs),
(564,591,ls)
);
}
);
width = 485;
}
);
metricLeft = N;
metricRight = N;
unicode = 72;
},
{
glyphname = I;
lastChange = "2022-03-17 23:46:06 +0000";
layers = (
{
layerId = m01;
shapes = (
{
closed = 1;
nodes = (
(165,40,l),
(307,609,l),
(256,610,l),
(113,40,l)
);
},
{
closed = 1;
nodes = (
(401,604,o),
(407,615,o),
(407,627,cs),
(407,639,o),
(401,650,o),
(381,650,cs),
(188,650,ls),
(168,650,o),
(162,639,o),
(162,627,cs),
(162,615,o),
(168,604,o),
(188,604,cs),
(381,604,ls)
);
},
{
closed = 1;
nodes = (
(252,0,o),
(258,11,o),
(258,23,cs),
(258,35,o),
(252,47,o),
(232,47,cs),
(39,47,ls),
(19,47,o),
(13,35,o),
(13,23,cs),
(13,11,o),
(19,0,o),
(39,0,cs),
(232,0,ls)
);
}
);
width = 419;
},
{
layerId = m002;
shapes = (
{
closed = 1;
nodes = (
(224,81,l),
(346,568,l),
(243,568,l),
(122,82,l)
);
},
{
closed = 1;
nodes = (
(429,560,o),
(448,578,o),
(448,603,cs),
(448,628,o),
(429,650,o),
(397,650,cs),
(206,650,ls),
(175,650,o),
(155,630,o),
(155,603,cs),
(155,576,o),
(175,560,o),
(206,560,cs),
(397,560,ls)
);
},
{
closed = 1;
nodes = (
(290,0,o),
(309,18,o),
(309,43,cs),
(309,68,o),
(290,90,o),
(258,90,cs),
(67,90,ls),
(36,90,o),
(16,70,o),
(16,43,cs),
(16,16,o),
(36,0,o),
(67,0,cs),
(258,0,ls)
);
}
);
width = 464;
}
);
unicode = 73;
},
{
glyphname = J;
lastChange = "2022-03-18 00:03:30 +0000";
layers = (
{
layerId = m01;
shapes = (
{
closed = 1;
nodes = (
(263,195,ls),
(251,148,o),
(238,93,o),
(204,66,cs),
(184,49,o),
(151,46,o),
(117,46,cs),
(91,46,o),
(67,64,o),
(51,89,cs),
(40,106,o),
(24,120,o),
(11,111,cs),
(-6,99,o),
(-3,86,o),
(14,62,cs),
(35,32,o),
(67,0,o),
(114,0,cs),
(165,0,o),
(203,7,o),
(231,29,cs),
(273,61,o),
(296,119,o),
(314,192,cs),
(420,618,ls),
(424,635,o),
(422,649,o),
(402,650,cs),
(382,651,o),
(374,641,o),
(370,625,cs)
);
}
);
width = 401;
},
{
layerId = m002;
shapes = (
{
closed = 1;
nodes = (
(243,211,ls),
(232,166,o),
(223,126,o),
(199,107,cs),
(183,94,o),
(163,90,o),
(135,90,cs),
(119,90,o),
(102,99,o),
(86,126,cs),
(71,150,o),
(41,162,o),
(19,145,cs),
(-6,127,o),
(-11,105,o),
(15,69,cs),
(36,38,o),
(76,0,o),
(134,0,cs),
(183,0,o),
(225,8,o),
(256,31,cs),
(302,68,o),
(324,126,o),
(342,196,cs),
(437,590,ls),
(448,632,o),
(421,648,o),
(395,650,cs),
(368,652,o),
(346,637,o),
(340,611,cs)
);
}
);
width = 361;
}
);
metricLeft = "=N/2";
metricRight = N;
unicode = 74;
},
{
glyphname = K;
lastChange = "2022-03-18 00:03:30 +0000";
layers = (
{
layerId = m01;
shapes = (
{
closed = 1;
nodes = (
(535,599,ls),
(547,608,o),
(552,619,o),
(554,628,cs),
(555,640,o),
(547,650,o),
(534,650,cs),
(526,651,o),
(515,646,o),
(503,637,cs),
(122,360,l),
(122,348,l),
(180,343,l)
);
},
{
closed = 1;
nodes = (
(122,356,l),
(122,345,l),
(349,19,ls),
(356,9,o),
(366,0,o),
(379,0,cs),
(389,0,o),
(399,6,o),
(402,17,cs),
(404,24,o),
(403,32,o),
(396,42,cs),
(180,354,l)
);
},
{
closed = 1;
nodes = (
(207,635,o),
(203,650,o),
(184,650,cs),
(164,650,o),
(157,639,o),
(153,625,cs),
(4,34,ls),
(0,19,o),
(6,0,o),
(24,0,cs),
(44,0,o),
(51,16,o),
(54,29,cs),
(202,617,ls)
);
}
);
width = 526;
},
{
layerId = m002;
shapes = (
{
closed = 1;
nodes = (
(537,559,ls),
(552,570,o),
(562,586,o),
(564,602,cs),
(566,628,o),
(547,648,o),
(521,649,cs),
(509,650,o),
(490,645,o),
(473,632,cs),
(110,367,l),
(110,324,l),
(199,316,l)
);
},
{
closed = 1;
nodes = (
(110,378,l),
(110,336,l),
(324,30,l),
(334,12,o),
(353,0,o),
(374,0,cs),
(396,0,o),
(418,14,o),
(423,36,cs),
(425,49,o),
(422,62,o),
(412,77,cs),
(205,374,l)
);
},
{
closed = 1;
nodes = (
(241,627,o),
(219,650,o),
(190,650,cs),
(162,650,o),
(140,638,o),
(133,608,cs),
(-3,61,ls),
(-10,32,o),
(9,2,o),
(42,0,cs),
(74,-2,o),
(93,19,o),
(99,45,cs),
(232,591,ls)
);
}
);
width = 523;
}
);
metricLeft = N;
unicode = 75;
},
{
glyphname = L;
lastChange = "2022-03-18 00:03:30 +0000";
layers = (
{
layerId = m01;
shapes = (
{
closed = 1;
nodes = (
(204,635,o),
(202,648,o),
(182,650,cs),
(162,651,o),
(155,641,o),
(151,625,cs),
(3,29,ls),
(-1,14,o),
(6,0,o),
(24,0,cs),
(46,0,o),
(51,13,o),
(53,23,cs),
(200,617,ls)
);
},
{
closed = 1;
nodes = (
(361,0,ls),
(379,0,o),
(387,14,o),
(387,26,cs),
(387,38,o),
(379,50,o),
(361,50,cs),
(50,50,l),
(23,0,l)
);
}
);
width = 424;
},
{
layerId = m002;
shapes = (
{
closed = 1;
nodes = (
(242,630,o),
(218,648,o),
(191,650,cs),
(163,652,o),
(141,638,o),
(133,608,cs),
(-4,58,ls),
(-11,29,o),
(8,2,o),
(41,0,cs),
(75,-2,o),
(90,20,o),
(95,41,cs),
(232,591,ls)
);
},
{
closed = 1;
nodes = (
(421,0,ls),
(452,0,o),
(473,23,o),
(473,48,cs),
(473,73,o),
(452,94,o),
(421,94,cs),
(95,94,l),
(40,0,l)
);
}
);
width = 496;
}
);
metricLeft = N;
unicode = 76;
},
{
glyphname = M;
lastChange = "2022-03-18 00:03:30 +0000";
layers = (
{
layerId = m01;
shapes = (
{
closed = 1;
nodes = (
(229,599,ls),
(222,636,o),
(200,650,o),
(184,650,c),
(180,589,l),
(295,18,ls),
(297,8,o),
(310,0,o),
(324,0,c),
(336,67,l)
);
},
{
closed = 1;
nodes = (
(185,650,l),
(169,650,o),
(154,636,o),
(146,603,cs),
(4,30,ls),
(1,16,o),
(8,0,o),
(25,0,cs),
(43,0,o),
(51,12,o),
(54,24,cs),
(194,589,l)
);
},
{
closed = 1;
nodes = (
(647,-1,o),
(652,11,o),
(655,21,cs),
(803,616,ls),
(807,634,o),
(796,650,o),
(779,650,c),
(737,559,l),
(606,30,ls),
(603,19,o),
(606,1,o),
(625,0,cs)
);
},
{
closed = 1;
nodes = (
(323,0,l),
(337,0,o),
(340,8,o),
(348,18,cs),
(755,559,l),
(780,650,l),
(765,650,o),
(749,634,o),
(737,618,cs),
(316,58,l)
);
}
);
width = 784;
},
{
layerId = m002;
shapes = (
{
closed = 1;
nodes = (
(251,620,ls),
(247,641,o),
(217,650,o),
(191,650,c),
(176,494,l),
(264,50,ls),
(271,14,o),
(303,0,o),
(339,0,c),
(354,109,l)
);
},
{
closed = 1;
nodes = (
(192,650,l),
(160,650,o),
(141,639,o),
(135,616,cs),
(-5,55,ls),
(-12,27,o),
(5,0,o),
(34,0,cs),
(66,0,o),
(88,15,o),
(94,40,cs),
(208,494,l)
);
},
{
closed = 1;
nodes = (
(668,0,o),
(682,13,o),
(687,34,cs),
(825,591,ls),
(833,623,o),
(820,646,o),
(787,650,c),
(693,475,l),
(589,53,ls),
(583,27,o),
(608,0,o),
(637,0,c)
);
},
{
closed = 1;
nodes = (
(333,0,l),
(369,0,o),
(391,18,o),
(408,40,cs),
(736,479,l),
(788,650,l),
(752,650,o),
(732,641,o),
(716,620,cs),
(320,87,l)
);
}
);
width = 746;
}
);
metricLeft = N;
metricRight = N;
unicode = 77;
},
{
glyphname = N;
lastChange = "2022-03-18 00:02:39 +0000";
layers = (
{
layerId = m01;
shapes = (
{
closed = 1;
nodes = (
(212,630,ls),
(209,639,o),
(199,650,o),
(181,650,c),
(174,588,l),
(382,18,ls),
(386,8,o),
(395,0,o),
(409,0,c),
(415,74,l)
);
},
{
closed = 1;
nodes = (
(183,650,l),
(161,650,o),
(155,641,o),
(151,625,cs),
(3,29,ls),
(-1,14,o),
(5,1,o),
(24,0,cs),
(45,-1,o),
(51,14,o),
(54,26,cs),
(193,586,l)
);
},
{
closed = 1;
nodes = (
(425,0,o),
(434,13,o),
(436,23,cs),
(585,619,ls),
(589,637,o),
(586,650,o),
(566,650,cs),
(548,650,o),
(539,640,o),
(535,626,cs),
(398,78,l),
(408,0,l)
);
}
);
width = 565;
},
{
layerId = m002;
shapes = (
{
closed = 1;
nodes = (
(224,615,ls),
(215,640,o),
(201,650,o),
(170,650,c),
(161,507,l),
(335,32,ls),
(344,8,o),
(371,0,o),
(395,0,c),
(394,151,l)
);
},
{
closed = 1;
nodes = (
(174,650,l),
(154,650,o),
(141,641,o),
(132,605,cs),
(-4,58,ls),
(-11,28,o),
(8,2,o),
(41,0,cs),
(74,-2,o),
(89,19,o),
(95,42,cs),
(211,508,l)
);
},
{
closed = 1;
nodes = (
(418,0,o),
(429,10,o),
(436,39,cs),
(574,592,ls),
(584,632,o),
(560,649,o),
(533,650,cs),
(505,652,o),
(482,638,o),
(475,609,cs),
(361,151,l),
(393,0,l)
);
}
);
width = 494;
}
);
unicode = 78;
},
{
glyphname = O;
lastChange = "2022-03-18 00:04:15 +0000";
layers = (
{
layerId = m01;
shapes = (
{
closed = 1;
nodes = (
(352,0,o),
(457,251,o),
(495,432,cs),
(519,545,o),
(466,650,o),
(335,650,cs),
(212,650,o),
(153,563,o),
(106,417,cs),
(94,377,o),
(83,331,o),
(78,287,cs),
(61,152,o),
(98,0,o),
(201,0,cs)
);
},
{
closed = 1;
nodes = (
(139,46,o),
(117,182,o),
(127,275,cs),
(132,317,o),
(141,362,o),
(151,394,cs),
(194,528,o),
(239,604,o),
(328,604,cs),
(463,604,o),
(456,491,o),
(443,428,cs),
(409,269,o),
(309,46,o),
(202,46,cs)
);
}
);
width = 453;
},
{
layerId = m002;
shapes = (
{
closed = 1;
nodes = (
(390,0,o),
(491,246,o),
(528,416,cs),
(552,536,o),
(490,650,o),
(362,650,cs),
(221,650,o),
(160,553,o),
(115,413,cs),
(104,376,o),
(92,331,o),
(87,289,cs),
(70,155,o),
(109,0,o),
(228,0,cs)
);
},
{
closed = 1;
nodes = (
(193,91,o),
(176,190,o),
(186,273,cs),
(191,311,o),
(199,349,o),
(208,379,cs),
(247,501,o),
(279,560,o),
(345,560,cs),
(442,560,o),
(438,478,o),
(425,423,cs),
(396,277,o),
(310,87,o),
(230,90,cs)
);
}
);
width = 504;
}
);
unicode = 79;
},
{
glyphname = P;
lastChange = "2022-03-18 00:03:30 +0000";
layers = (
{
layerId = m01;
shapes = (
{
closed = 1;
nodes = (
(313,332,o),
(470,344,o),
(502,471,cs),
(532,591,o),
(394,650,o),
(180,650,c),
(190,600,l),
(381,600,o),
(472,555,o),
(453,480,cs),
(431,393,o),
(288,381,o),
(134,381,c),
(124,332,l)
);
},
{
closed = 1;
nodes = (
(204,636,o),
(203,650,o),
(182,650,cs),
(160,650,o),
(155,641,o),
(151,625,cs),
(3,32,ls),
(-1,17,o),
(6,0,o),
(24,0,cs),
(45,0,o),
(52,17,o),
(54,26,cs),
(200,618,ls)
);
}
);
width = 478;
},
{
layerId = m002;
shapes = (
{
closed = 1;
nodes = (
(287,291,o),
(474,290,o),
(516,461,cs),
(550,598,o),
(409,650,o),
(188,650,c),
(213,559,l),
(383,559,o),
(431,536,o),
(417,481,cs),
(395,392,o),
(276,381,o),
(160,381,c),
(141,291,l)
);
},
{
closed = 1;
nodes = (
(243,635,o),
(218,650,o),
(192,650,cs),
(159,650,o),
(141,640,o),
(134,612,cs),
(0,70,l),
(-9,40,o),
(10,11,o),
(43,8,cs),
(79,6,o),
(94,30,o),
(99,52,cs),
(233,594,ls)
);
}
);
width = 503;
}
);
metricLeft = N;
unicode = 80;
},
{
glyphname = Q;
lastChange = "2022-03-18 00:03:30 +0000";
layers = (
{
layerId = m01;
shapes = (
{
closed = 1;
nodes = (
(294,181,o),
(276,187,o),
(261,175,cs),
(250,168,o),
(251,155,o),
(262,138,cs),
(361,-16,ls),
(371,-31,o),
(386,-41,o),
(399,-34,cs),
(412,-27,o),
(413,-8,o),
(405,5,cs),
(303,166,ls)
);
},
{
closed = 1;
nodes = (
(352,0,o),
(457,251,o),
(495,432,cs),
(519,545,o),
(466,650,o),
(335,650,cs),
(212,650,o),
(153,563,o),
(106,417,cs),
(94,377,o),
(83,331,o),
(78,287,cs),
(61,152,o),
(98,0,o),
(201,0,cs)
);
},
{
closed = 1;
nodes = (
(139,50,o),
(116,182,o),
(126,275,cs),
(131,317,o),
(141,362,o),
(151,394,cs),
(194,528,o),
(239,600,o),
(328,600,cs),
(463,600,o),
(456,491,o),
(443,428,cs),
(409,269,o),
(309,50,o),
(202,50,cs)
);
}
);
width = 520;
},
{
layerId = m002;
shapes = (
{
closed = 1;
nodes = (
(325,213,o),
(288,220,o),
(263,201,cs),
(244,186,o),
(238,166,o),
(258,135,cs),
(350,-6,ls),
(368,-34,o),
(401,-45,o),
(423,-30,cs),
(449,-16,o),
(452,14,o),
(436,39,cs),
(341,187,ls)
);
},
{
closed = 1;
nodes = (
(390,0,o),
(491,249,o),
(528,419,cs),
(552,539,o),
(490,650,o),
(352,650,cs),
(221,650,o),
(160,556,o),
(115,416,cs),
(104,379,o),
(92,334,o),
(87,292,cs),
(70,158,o),
(109,0,o),
(228,0,cs)
);
},
{
closed = 1;
nodes = (
(193,95,o),
(176,193,o),
(186,276,cs),
(191,314,o),
(199,352,o),
(208,382,cs),
(247,504,o),
(279,556,o),
(345,556,cs),
(442,556,o),
(438,481,o),
(425,426,cs),
(396,280,o),
(310,95,o),
(230,95,cs)
);
}
);
width = 568;
}
);
metricLeft = O;
unicode = 81;
},
{
glyphname = R;
lastChange = "2022-03-18 00:03:30 +0000";
layers = (
{
layerId = m01;
shapes = (
{
closed = 1;
nodes = (
(298,328,o),
(472,337,o),
(508,481,cs),
(538,600,o),
(400,650,o),
(181,650,c),
(183,604,l),
(368,604,o),
(479,572,o),
(459,491,cs),
(432,383,o),
(279,374,o),
(125,374,c),
(114,328,l)
);
},
{
closed = 1;
nodes = (
(99,341,l),
(345,19,ls),
(355,6,o),
(362,0,o),
(370,0,cs),
(380,0,o),
(390,7,o),
(393,15,cs),
(396,23,o),
(396,34,o),
(390,42,cs),
(167,334,l)
);
},
{
closed = 1;
nodes = (
(204,636,o),
(203,649,o),
(182,650,cs),
(160,652,o),
(155,641,o),
(151,625,cs),
(4,34,ls),
(0,17,o),
(5,0,o),
(23,0,cs),
(45,0,o),
(51,14,o),
(54,28,cs),
(200,618,ls)
);
}
);
width = 512;
},
{
layerId = m002;
shapes = (
{
closed = 1;
nodes = (
(273,284,o),
(487,318,o),
(521,455,cs),
(557,601,o),
(395,650,o),
(189,650,c),
(214,559,l),
(348,559,o),
(441,547,o),
(423,477,cs),
(408,417,o),
(270,374,o),
(158,374,c),
(137,284,l)
);
},
{
closed = 1;
nodes = (
(114,298,l),
(321,27,ls),
(335,9,o),
(350,0,o),
(366,0,cs),
(386,0,o),
(406,12,o),
(413,31,cs),
(418,46,o),
(418,62,o),
(406,77,cs),
(233,304,l)
);
},
{
closed = 1;
nodes = (
(243,632,o),
(218,650,o),
(192,650,cs),
(159,650,o),
(141,637,o),
(134,609,cs),
(-3,63,ls),
(-11,30,o),
(7,3,o),
(40,0,cs),
(73,-2,o),
(89,18,o),
(96,45,cs),
(233,591,ls)
);
}
);
width = 538;
}
);
metricLeft = N;
unicode = 82;
},
{
glyphname = S;
lastChange = "2022-03-18 00:03:30 +0000";
layers = (
{
layerId = m01;
shapes = (
{
closed = 1;
nodes = (
(121,49,o),
(89,71,o),
(76,108,cs),
(71,121,o),
(56,126,o),
(43,123,cs),
(28,120,o),
(26,106,o),
(28,96,cs),
(42,38,o),
(96,0,o),
(154,0,cs),
(298,0,o),
(403,38,o),
(433,159,cs),
(454,243,o),
(378,309,o),
(310,363,cs),
(240,420,o),
(168,458,o),
(179,502,cs),
(193,559,o),
(296,600,o),
(371,600,cs),
(455,600,o),
(468,576,o),
(480,539,cs),
(484,526,o),
(501,522,o),
(513,524,cs),
(529,527,o),
(530,541,o),
(528,551,cs),
(512,616,o),
(476,650,o),
(376,650,cs),
(248,650,o),
(147,583,o),
(130,513,cs),
(111,431,o),
(200,388,o),
(267,332,cs),
(342,271,o),
(398,225,o),
(384,167,cs),
(363,79,o),
(276,49,o),
(157,49,cs)
);
}
);
width = 459;
},
{
layerId = m002;
shapes = (
{
closed = 1;
nodes = (
(163,94,o),
(150,103,o),
(142,126,cs),
(132,156,o),
(99,166,o),
(78,162,cs),
(51,157,o),
(38,135,o),
(43,111,cs),
(57,44,o),
(118,0,o),
(189,0,cs),
(327,0,o),
(438,39,o),
(470,165,cs),
(492,258,o),
(412,326,o),
(347,379,cs),
(281,431,o),
(230,459,o),
(236,482,cs),
(246,523,o),
(324,556,o),
(387,556,cs),
(440,556,o),
(451,549,o),
(461,522,cs),
(472,492,o),
(502,482,o),
(524,487,cs),
(552,493,o),
(563,514,o),
(558,538,cs),
(542,610,o),
(500,650,o),
(400,650,cs),
(269,650,o),
(157,583,o),
(138,504,cs),
(116,412,o),
(213,363,o),
(273,313,cs),
(342,257,o),
(381,224,o),
(371,184,cs),
(354,115,o),
(293,94,o),
(212,94,cs)
);
}
);
width = 509;
}
);
metricLeft = O;
metricRight = O;
unicode = 83;
},
{
glyphname = T;
lastChange = "2022-03-17 23:46:06 +0000";
layers = (
{
layerId = m01;
shapes = (
{
closed = 1;
nodes = (
(229,605,l),
(86,31,ls),
(83,17,o),
(90,0,o),
(108,0,cs),
(126,0,o),
(134,13,o),
(136,23,cs),
(281,605,l)
);
},
{
closed = 1;
nodes = (
(477,604,o),
(483,615,o),
(483,627,cs),
(483,639,o),
(477,650,o),
(457,650,cs),
(63,650,ls),
(43,650,o),
(37,639,o),
(37,627,cs),
(37,615,o),
(43,604,o),
(63,604,cs),
(457,604,ls)
);
}
);
width = 415;
},
{
layerId = m002;
shapes = (
{
closed = 1;
nodes = (
(205,573,l),
(77,59,ls),
(70,31,o),
(85,0,o),
(119,0,cs),
(153,0,o),
(170,17,o),
(175,39,cs),
(308,573,l)
);
},
{
closed = 1;
nodes = (
(498,556,o),
(517,578,o),
(517,603,cs),
(517,628,o),
(498,650,o),
(466,650,cs),
(62,650,ls),
(31,650,o),
(11,630,o),
(11,603,cs),
(11,576,o),
(31,556,o),
(62,556,cs),
(466,556,ls)
);
}
);
width = 444;
}
);
unicode = 84;
},
{
glyphname = U;
lastChange = "2022-03-18 00:03:30 +0000";
layers = (
{
layerId = m01;
shapes = (
{
closed = 1;
nodes = (
(460,444,l),
(452,445,l),
(449,434,l),
(420,342,o),
(374,280,o),
(352,251,cs),
(279,157,o),
(182,46,o),
(132,46,cs),
(85,46,o),
(78,127,o),
(94,190,cs),
(202,620,ls),
(206,634,o),
(198,648,o),
(183,650,cs),
(167,651,o),
(155,638,o),
(151,622,cs),
(44,196,ls),
(12,67,o),
(62,-4,o),
(121,-4,cs),
(206,-4,o),
(299,104,o),
(374,198,c),
(421,274,l)
);
},
{
closed = 1;
nodes = (
(549,637,o),
(542,648,o),
(523,650,cs),
(505,651,o),
(497,639,o),
(494,627,cs),
(344,29,ls),
(340,11,o),
(351,1,o),
(365,0,cs),
(377,-1,o),
(390,6,o),
(394,21,cs),
(545,622,ls)
);
}
);
width = 525;
},
{
layerId = m002;
shapes = (
{
closed = 1;
nodes = (
(454,457,l),
(419,461,l),
(409,432,ls),
(381,351,o),
(344,296,o),
(325,271,cs),
(257,184,o),
(170,90,o),
(138,90,cs),
(117,90,o),
(120,139,o),
(134,194,cs),
(234,593,ls),
(241,621,o),
(222,650,o),
(192,650,cs),
(166,650,o),
(141,635,o),
(134,607,cs),
(34,211,ls),
(0,77,o),
(53,-4,o),
(120,-4,cs),
(221,-4,o),
(321,108,o),
(390,194,c),
(411,268,l)
);
},
{
closed = 1;
nodes = (
(559,624,o),
(539,650,o),
(505,650,cs),
(479,650,o),
(456,636,o),
(450,611,cs),
(312,58,ls),
(304,24,o),
(328,2,o),
(357,0,cs),
(380,-1,o),
(404,11,o),
(411,37,cs),
(551,594,ls)
);
}
);
width = 471;
}
);
metricLeft = N;
metricRight = N;
unicode = 85;
},
{
glyphname = V;
lastChange = "2022-03-17 23:46:06 +0000";
layers = (
{
layerId = m01;
shapes = (
{
closed = 1;
nodes = (
(165,0,o),
(169,11,o),
(176,25,cs),
(469,618,ls),
(479,638,o),
(467,650,o),
(452,650,cs),
(433,650,o),
(424,642,o),
(416,625,cs),
(145,74,l),
(146,0,l)
);
},
{
closed = 1;
nodes = (
(136,626,ls),
(135,636,o),
(131,650,o),
(109,650,c),
(91,650,o),
(85,639,o),
(86,624,cs),
(119,28,ls),
(120,15,o),
(128,0,o),
(147,0,c),
(166,74,l)
);
}
);
width = 438;
},
{
layerId = m002;
shapes = (
{
closed = 1;
nodes = (
(178,0,o),
(198,10,o),
(211,36,cs),
(482,585,ls),
(500,622,o),
(474,649,o),
(442,649,cs),
(415,649,o),
(395,638,o),
(384,611,c),
(131,97,l),
(153,0,l)
);
},
{
closed = 1;
nodes = (
(177,605,ls),
(176,628,o),
(158,649,o),
(125,649,cs),
(94,649,o),
(75,629,o),
(77,599,cs),
(107,48,ls),
(109,15,o),
(131,0,o),
(157,0,c),
(204,91,l)
);
}
);
width = 441;
}
);
unicode = 86;
},
{
glyphname = W;
lastChange = "2022-03-17 23:46:06 +0000";
layers = (
{
layerId = m01;
shapes = (
{
closed = 1;
nodes = (
(165,0,o),
(169,11,o),
(176,25,cs),
(469,618,ls),
(479,638,o),
(467,650,o),
(452,650,cs),
(433,650,o),
(424,642,o),
(416,625,cs),
(145,74,l),
(146,0,l)
);
},
{
closed = 1;
nodes = (
(136,626,ls),
(135,636,o),
(131,650,o),
(109,650,c),
(91,650,o),
(85,639,o),
(86,624,cs),
(119,28,ls),
(120,15,o),
(128,0,o),
(147,0,c),
(166,74,l)
);
},
{
closed = 1;
nodes = (
(504,0,o),
(508,11,o),
(515,25,cs),
(808,618,ls),
(818,638,o),
(806,650,o),
(791,650,cs),
(772,650,o),
(763,642,o),
(755,625,cs),
(484,74,l),
(485,0,l)
);
},
{
closed = 1;
nodes = (
(475,626,ls),
(474,636,o),
(470,650,o),
(448,650,c),
(430,650,o),
(424,639,o),
(425,624,cs),
(458,28,ls),
(459,15,o),
(467,0,o),
(486,0,c),
(505,74,l)
);
}
);
width = 776;
},
{
layerId = m002;
shapes = (
{
closed = 1;
nodes = (
(167,0,o),
(187,10,o),
(200,36,cs),
(471,585,ls),
(489,622,o),
(463,649,o),
(431,649,cs),
(404,649,o),
(386,637,o),
(373,611,cs),
(120,97,l),
(142,0,l)
);
},
{
closed = 1;
nodes = (
(166,605,ls),
(165,628,o),
(147,649,o),
(114,649,cs),
(83,649,o),
(64,629,o),
(66,599,cs),
(96,48,ls),
(98,15,o),
(120,0,o),
(146,0,c),
(193,91,l)
);
},
{
closed = 1;
nodes = (
(480,0,o),
(500,10,o),
(513,36,cs),
(784,585,ls),
(802,622,o),
(776,649,o),
(744,649,cs),
(717,649,o),
(699,637,o),
(686,611,cs),
(433,97,l),
(455,0,l)
);
},
{
closed = 1;
nodes = (
(479,605,ls),
(478,628,o),
(460,649,o),
(427,649,cs),
(396,649,o),
(377,629,o),
(379,599,cs),
(409,48,ls),
(411,15,o),
(433,0,o),
(459,0,c),
(506,91,l)
);
}
);
width = 747;
}
);
unicode = 87;
},
{
glyphname = X;
lastChange = "2022-03-17 23:46:06 +0000";
layers = (
{
layerId = m01;
shapes = (
{
closed = 1;
nodes = (
(558,624,o),
(554,638,o),
(545,645,cs),
(535,653,o),
(516,652,o),
(503,637,cs),
(-22,38,ls),
(-32,26,o),
(-28,13,o),
(-19,6,cs),
(-8,-3,o),
(9,-3,o),
(22,12,cs),
(545,609,ls)
);
},
{
closed = 1;
nodes = (
(168,650,o),
(149,654,o),
(137,649,cs),
(125,645,o),
(121,632,o),
(128,614,cs),
(352,21,ls),
(359,2,o),
(377,-3,o),
(390,3,cs),
(400,8,o),
(406,20,o),
(400,35,cs),
(175,631,ls)
);
}
);
width = 525;
},
{
layerId = m002;
shapes = (
{
closed = 1;
nodes = (
(578,597,o),
(572,621,o),
(554,638,cs),
(536,655,o),
(496,655,o),
(475,630,cs),
(-9,75,ls),
(-25,57,o),
(-25,31,o),
(-6,14,cs),
(14,-6,o),
(54,-5,o),
(75,19,cs),
(557,572,ls)
);
},
{
closed = 1;
nodes = (
(210,648,o),
(176,656,o),
(150,647,cs),
(129,641,o),
(112,622,o),
(125,588,cs),
(333,35,ls),
(344,6,o),
(379,-8,o),
(405,5,cs),
(426,14,o),
(440,35,o),
(430,62,cs),
(221,618,ls)
);
}
);
width = 552;
}
);
unicode = 88;
},
{
glyphname = Y;
lastChange = "2022-03-17 23:46:06 +0000";
layers = (
{
layerId = m01;
shapes = (
{
closed = 1;
nodes = (
(236,382,l),
(142,631,ls),
(135,650,o),
(116,654,o),
(104,649,cs),
(92,645,o),
(88,632,o),
(95,614,cs),
(209,312,l)
);
},
{
closed = 1;
nodes = (
(394,624,o),
(393,638,o),
(384,645,cs),
(373,653,o),
(351,650,o),
(344,635,cs),
(74,38,ls),
(69,26,o),
(68,13,o),
(78,6,cs),
(89,-3,o),
(110,-4,o),
(117,11,cs),
(387,609,ls)
);
}
);
width = 346;
},
{
layerId = m002;
shapes = (
{
closed = 1;
nodes = (
(237,443,l),
(172,618,ls),
(161,648,o),
(127,656,o),
(101,647,cs),
(80,641,o),
(63,622,o),
(76,588,cs),
(179,315,l)
);
},
{
closed = 1;
nodes = (
(408,602,o),
(404,630,o),
(378,645,cs),
(357,656,o),
(320,650,o),
(308,624,cs),
(55,69,ls),
(46,48,o),
(45,29,o),
(64,13,cs),
(84,-3,o),
(130,-8,o),
(141,16,cs),
(397,578,ls)
);
}
);
width = 359;
}
);
unicode = 89;
},
{
glyphname = Z;
lastChange = "2022-03-17 23:46:06 +0000";
layers = (
{
layerId = m01;
shapes = (
{
closed = 1;
nodes = (
(580,624,o),
(576,638,o),
(567,645,cs),
(557,653,o),
(538,652,o),
(525,637,cs),
(0,38,ls),
(-10,26,o),
(-6,13,o),
(3,6,cs),
(14,-3,o),
(31,-3,o),
(44,12,cs),
(567,609,ls)
);
},
{
closed = 1;
nodes = (
(555,650,l),
(171,650,ls),
(151,650,o),
(145,639,o),
(145,627,cs),
(145,615,o),
(151,604,o),
(171,604,cs),
(510,604,l)
);
},
{
closed = 1;
nodes = (
(398,0,ls),
(418,0,o),
(424,11,o),
(424,23,cs),
(424,35,o),
(418,46,o),
(398,46,cs),
(66,46,l),
(19,0,l)
);
}
);
width = 551;
},
{
layerId = m002;
shapes = (
{
closed = 1;
nodes = (
(579,591,o),
(578,611,o),
(568,627,cs),
(553,654,o),
(506,659,o),
(481,630,cs),
(-7,75,ls),
(-37,40,o),
(-6,0,o),
(40,0,cs),
(56,0,o),
(71,12,o),
(78,20,cs),
(563,573,ls)
);
},
{
closed = 1;
nodes = (
(523,650,l),
(172,650,ls),
(141,650,o),
(121,630,o),
(121,603,cs),
(121,576,o),
(141,556,o),
(172,556,cs),
(439,556,l)
);
},
{
closed = 1;
nodes = (
(386,0,ls),
(417,0,o),
(437,20,o),
(437,47,cs),
(437,74,o),
(417,94,o),
(386,94,cs),
(125,94,l),
(38,0,l)
);
}
);
width = 532;
}
);
unicode = 90;
},
{
glyphname = a;
lastChange = "2022-03-22 01:38:39 +0000";
layers = (
{
layerId = m01;
shapes = (
{
closed = 1;
nodes = (
(72,350,o),
(16,271,o),
(-13,156,cs),
(-32,80,o),
(0,-4,o),
(73,-4,cs),
(159,-4,o),
(208,89,o),
(228,166,cs),
(248,244,o),
(245,350,o),
(162,350,cs)
);
},
{
closed = 1;
nodes = (
(205,304,o),
(189,217,o),
(179,178,cs),
(166,125,o),
(124,41,o),
(85,41,cs),
(29,41,o),
(26,109,o),
(41,169,cs),
(55,226,o),
(104,304,o),
(151,304,cs)
);
},
{
closed = 1;
nodes = (
(283,338,o),
(279,349,o),
(262,350,cs),
(243,351,o),
(233,343,o),
(228,325,cs),
(155,35,ls),
(151,18,o),
(151,0,o),
(173,0,cs),
(198,0,o),
(201,14,o),
(206,32,cs),
(279,322,ls)
);
}
);
width = 310;
},
{
layerId = m002;
shapes = (
{
closed = 1;
nodes = (
(88,350,o),
(20,261,o),
(2,160,cs),
(-11,84,o),
(30,-4,o),
(104,-4,cs),
(213,-4,o),
(274,87,o),
(295,166,cs),
(315,244,o),
(300,350,o),
(203,350,cs)
);
},
{
closed = 1;
nodes = (
(221,260,o),
(229,213,o),
(219,179,cs),
(206,134,o),
(177,85,o),
(129,85,cs),
(101,85,o),
(96,125,o),
(104,174,cs),
(112,212,o),
(138,260,o),
(181,260,cs)
);
},
{
closed = 1;
nodes = (
(376,333,o),
(352,348,o),
(328,350,cs),
(301,352,o),
(276,340,o),
(269,311,cs),
(207,59,ls),
(199,27,o),
(214,3,o),
(247,0,cs),
(286,-2,o),
(299,24,o),
(304,44,cs),
(367,297,ls)
);
}
);
width = 403;
}
);
metricLeft = o;
metricRight = n;
unicode = 97;
},
{
glyphname = b;
lastChange = "2022-03-22 01:38:39 +0000";
layers = (
{
layerId = m01;
shapes = (
{
closed = 1;
nodes = (
(159,638,o),
(155,650,o),
(138,650,cs),
(119,650,o),
(109,643,o),
(104,625,cs),
(-44,35,ls),
(-48,18,o),
(-48,0,o),
(-26,0,cs),
(-1,0,o),
(3,14,o),
(7,32,cs),
(155,622,ls)
);
},
{
closed = 1;
nodes = (
(90,354,o),
(34,275,o),
(5,160,cs),
(-14,84,o),
(18,0,o),
(91,0,cs),
(177,0,o),
(226,93,o),
(246,170,cs),
(266,248,o),
(263,354,o),
(180,354,cs)
);
},
{
closed = 1;
nodes = (
(223,308,o),
(207,221,o),
(197,182,cs),
(184,129,o),
(142,45,o),
(103,45,cs),
(47,45,o),
(44,113,o),
(59,173,cs),
(73,230,o),
(122,308,o),
(169,308,cs)
);
}
);
width = 303;
},
{
layerId = m002;
shapes = (
{
closed = 1;
nodes = (
(211,633,o),
(187,648,o),
(163,650,cs),
(136,652,o),
(111,640,o),
(104,611,cs),
(-33,59,ls),
(-41,27,o),
(-26,3,o),
(7,0,cs),
(46,-2,o),
(59,24,o),
(64,44,cs),
(202,597,ls)
);
},
{
closed = 1;
nodes = (
(118,354,o),
(51,265,o),
(33,164,cs),
(20,88,o),
(60,-1,o),
(134,-1,cs),
(243,-1,o),
(304,91,o),
(325,170,cs),
(345,248,o),
(330,354,o),
(233,354,cs)
);
},
{
closed = 1;
nodes = (
(243,264,o),
(236,217,o),
(226,183,cs),
(213,138,o),
(187,89,o),
(155,89,cs),
(105,89,o),
(105,129,o),
(113,178,cs),
(121,216,o),
(148,264,o),
(211,264,cs)
);
}
);
width = 373;
}
);
metricLeft = n;
metricRight = o;
unicode = 98;
},
{
glyphname = c;
lastChange = "2022-03-22 01:38:39 +0000";
layers = (
{
layerId = m01;
shapes = (
{
closed = 1;
nodes = (
(226,129,o),
(215,141,o),
(205,145,cs),
(196,149,o),
(179,145,o),
(173,131,cs),
(153,83,o),
(116,45,o),
(86,45,cs),
(30,45,o),
(27,113,o),
(42,173,cs),
(56,230,o),
(105,308,o),
(152,308,cs),
(177,308,o),
(189,289,o),
(190,265,cs),
(191,252,o),
(207,249,o),
(221,254,cs),
(233,258,o),
(238,271,o),
(236,284,cs),
(229,324,o),
(207,354,o),
(163,354,cs),
(73,354,o),
(17,275,o),
(-12,160,cs),
(-31,84,o),
(1,0,o),
(74,0,cs),
(142,0,o),
(194,49,o),
(219,112,cs)
);
}
);
width = 256;
},
{
background = {
shapes = (
{
closed = 1;
nodes = (
(242,254,o),
(218,234,o),
(183,217,c),
(103,173,l),
(87,97,l),
(219,156,l),
(254,176,o),
(325,222,o),
(337,275,cs),
(341,299,o),
(314,354,o),
(246,354,cs),
(131,354,o),
(64,265,o),
(46,164,cs),
(33,88,o),
(73,-1,o),
(147,-1,cs),
(239,-1,o),
(294,44,o),
(319,94,cs),
(329,114,o),
(324,139,o),
(295,149,cs),
(267,159,o),
(248,147,o),
(240,130,cs),
(228,105,o),
(201,85,o),
(168,85,cs),
(144,85,o),
(135,129,o),
(143,178,cs),
(151,216,o),
(181,270,o),
(224,270,cs),
(231,270,o),
(238,263,o),
(240,258,cs)
);
}
);
};
layerId = m002;
shapes = (
{
closed = 1;
nodes = (
(288,116,o),
(279,140,o),
(250,150,cs),
(222,160,o),
(200,153,o),
(191,131,cs),
(181,105,o),
(149,89,o),
(125,89,cs),
(101,89,o),
(96,129,o),
(104,178,cs),
(112,216,o),
(138,264,o),
(181,264,cs),
(189,264,o),
(195,261,o),
(199,256,cs),
(211,243,o),
(233,230,o),
(262,242,cs),
(289,253,o),
(299,275,o),
(293,292,cs),
(280,328,o),
(251,354,o),
(203,354,cs),
(88,354,o),
(21,265,o),
(3,164,cs),
(-10,88,o),
(30,-1,o),
(104,-1,cs),
(187,-1,o),
(249,40,o),
(275,90,cs)
);
}
);
width = 315;
}
);
metricLeft = o;
unicode = 99;
},
{
glyphname = d;
lastChange = "2022-03-22 01:38:39 +0000";
layers = (
{
layerId = m01;
shapes = (
{
closed = 1;
nodes = (
(185,155,ls),
(168,88,o),
(163,0,o),
(233,0,cs),
(275,0,o),
(308,47,o),
(332,77,cs),
(352,103,o),
(355,109,o),
(356,117,cs),
(357,132,o),
(346,141,o),
(335,143,cs),
(323,145,o),
(315,134,o),
(313,131,cs),
(298,110,ls),
(283,89,o),
(252,46,o),
(235,46,cs),
(216,46,o),
(227,117,o),
(231,133,cs),
(354,622,ls),
(358,638,o),
(354,650,o),
(337,650,cs),
(318,650,o),
(308,643,o),
(303,625,cs)
);
},
{
closed = 1;
nodes = (
(73,354,o),
(17,275,o),
(-12,160,cs),
(-31,84,o),
(1,0,o),
(74,0,cs),
(160,0,o),
(209,93,o),
(229,170,cs),
(249,248,o),
(246,354,o),
(163,354,cs)
);
},
{
closed = 1;
nodes = (
(206,308,o),
(190,221,o),
(180,182,cs),
(167,129,o),
(125,45,o),
(86,45,cs),
(30,45,o),
(27,113,o),
(42,173,cs),
(56,230,o),
(105,308,o),
(152,308,cs)
);
}
);
width = 399;
},
{
layerId = m002;
shapes = (
{
closed = 1;
nodes = (
(235,167,ls),
(215,87,o),
(223,0,o),
(302,0,cs),
(348,0,o),
(391,19,o),
(417,54,cs),
(436,79,o),
(452,112,o),
(453,126,cs),
(454,142,o),
(441,158,o),
(427,164,cs),
(416,169,o),
(398,172,o),
(386,155,cs),
(372,135,ls),
(365,125,o),
(338,91,o),
(329,91,cs),
(319,91,o),
(320,107,o),
(333,158,cs),
(443,597,ls),
(453,635,o),
(428,650,o),
(404,650,cs),
(377,650,o),
(352,638,o),
(345,611,cs)
);
},
{
closed = 1;
nodes = (
(89,354,o),
(21,265,o),
(3,164,cs),
(-10,88,o),
(31,0,o),
(105,0,cs),
(214,0,o),
(275,91,o),
(296,170,cs),
(316,248,o),
(301,354,o),
(204,354,cs)
);
},
{
closed = 1;
nodes = (
(228,264,o),
(236,217,o),
(226,183,cs),
(213,138,o),
(184,90,o),
(135,90,cs),
(102,90,o),
(97,129,o),
(105,178,cs),
(113,216,o),
(139,264,o),
(182,264,cs)
);
}
);
width = 490;
}
);
metricLeft = o;
unicode = 100;
},
{
glyphname = e;
lastChange = "2022-03-22 01:38:39 +0000";
layers = (
{
layerId = m01;
shapes = (
{
closed = 1;
nodes = (
(185,266,o),
(144,239,o),
(95,210,c),
(20,170,l),
(11,109,l),
(123,168,l),
(163,191,o),
(235,233,o),
(235,290,cs),
(235,328,o),
(205,354,o),
(163,354,cs),
(73,354,o),
(17,275,o),
(-12,160,cs),
(-31,84,o),
(1,0,o),
(74,0,cs),
(142,0,o),
(194,49,o),
(219,112,cs),
(226,129,o),
(215,141,o),
(205,145,cs),
(196,149,o),
(179,145,o),
(173,131,cs),
(153,83,o),
(116,45,o),
(86,45,cs),
(30,45,o),
(27,113,o),
(42,173,cs),
(56,230,o),
(105,308,o),
(152,308,cs),
(169,308,o),
(185,300,o),
(185,287,cs)
);
}
);
width = 291;
},
{
layerId = m002;
shapes = (
{
closed = 1;
nodes = (
(199,254,o),
(175,234,o),
(140,217,c),
(60,173,l),
(44,97,l),
(176,156,l),
(211,176,o),
(282,222,o),
(294,275,cs),
(298,299,o),
(271,354,o),
(203,354,cs),
(88,354,o),
(21,265,o),
(3,164,cs),
(-10,88,o),
(30,-1,o),
(104,-1,cs),
(196,-1,o),
(251,44,o),
(276,94,cs),
(286,114,o),
(281,139,o),
(252,149,cs),
(224,159,o),
(205,147,o),
(197,130,cs),
(185,105,o),
(158,85,o),
(125,85,cs),
(101,85,o),
(92,129,o),
(100,178,cs),
(108,216,o),
(138,270,o),
(181,270,cs),
(188,270,o),
(195,263,o),
(197,258,cs)
);
}
);
width = 344;
}
);
metricLeft = o;
metricRight = o;
unicode = 101;
},
{
glyphname = f;
lastChange = "2022-03-17 23:46:06 +0000";
layers = (
{
layerId = m01;
shapes = (
{
closed = 1;
nodes = (
(225,305,o),
(231,316,o),
(231,328,cs),
(231,340,o),
(225,350,o),
(205,350,cs),
(11,350,ls),
(-9,350,o),
(-15,340,o),
(-15,328,cs),
(-15,316,o),
(-9,305,o),
(11,305,cs),
(205,305,ls)
);
},
{
closed = 1;
nodes = (
(6,22,o),
(4,0,o),
(27,0,cs),
(49,0,o),
(55,13,o),
(60,32,cs),
(180,514,ls),
(190,554,o),
(221,604,o),
(254,604,cs),
(275,604,o),
(294,597,o),
(308,560,cs),
(314,545,o),
(327,539,o),
(341,545,cs),
(356,551,o),
(352,573,o),
(346,589,cs),
(331,630,o),
(295,650,o),
(258,650,cs),
(208,650,o),
(153,611,o),
(131,524,cs),
(10,38,ls)
);
}
);
width = 238;
},
{
background = {
shapes = (
{
closed = 1;
nodes = (
(6,26,o),
(22,-2,o),
(58,-2,cs),
(88,-2,o),
(106,13,o),
(114,44,cs),
(219,466,ls),
(227,498,o),
(244,526,o),
(257,526,cs),
(270,526,o),
(270,526,o),
(279,504,cs),
(290,478,o),
(319,467,o),
(343,477,cs),
(373,488,o),
(373,518,o),
(363,545,cs),
(346,591,o),
(303,615,o),
(261,615,cs),
(205,615,o),
(143,573,o),
(121,486,cs),
(15,61,ls)
);
}
);
};
layerId = m002;
shapes = (
{
closed = 1;
nodes = (
(241,263,o),
(259,283,o),
(259,307,cs),
(259,332,o),
(241,350,o),
(210,350,cs),
(40,350,ls),
(8,350,o),
(-10,332,o),
(-10,307,cs),
(-10,283,o),
(8,263,o),
(40,263,cs),
(210,263,ls)
);
},
{
closed = 1;
nodes = (
(-3,26,o),
(13,-2,o),
(49,-2,cs),
(79,-2,o),
(97,13,o),
(105,44,cs),
(219,501,ls),
(227,533,o),
(244,561,o),
(263,561,cs),
(278,561,o),
(297,561,o),
(306,539,cs),
(317,513,o),
(346,502,o),
(370,512,cs),
(400,523,o),
(400,553,o),
(390,580,cs),
(373,626,o),
(324,650,o),
(279,650,cs),
(205,650,o),
(143,608,o),
(121,521,cs),
(6,61,ls)
);
}
);
width = 269;
}
);
unicode = 102;
},
{
glyphname = g;
lastChange = "2022-03-22 01:38:39 +0000";
layers = (
{
layerId = m01;
shapes = (
{
closed = 1;
nodes = (
(124,-87,ls),
(112,-135,o),
(94,-200,o),
(60,-226,cs),
(40,-244,o),
(10,-250,o),
(-14,-250,cs),
(-43,-250,o),
(-53,-240,o),
(-65,-231,cs),
(-77,-222,o),
(-90,-220,o),
(-101,-229,cs),
(-112,-238,o),
(-115,-253,o),
(-103,-263,cs),
(-84,-280,o),
(-64,-300,o),
(-18,-300,cs),
(23,-300,o),
(61,-289,o),
(90,-267,cs),
(131,-235,o),
(157,-164,o),
(175,-91,cs),
(280,328,ls),
(283,340,o),
(272,349,o),
(258,350,cs),
(244,350,o),
(232,341,o),
(229,331,cs)
);
},
{
closed = 1;
nodes = (
(73,354,o),
(17,275,o),
(-12,160,cs),
(-31,84,o),
(1,0,o),
(74,0,cs),
(160,0,o),
(209,93,o),
(229,170,cs),
(249,248,o),
(246,354,o),
(163,354,cs)
);
},
{
closed = 1;
nodes = (
(206,308,o),
(190,221,o),
(180,182,cs),
(167,129,o),
(125,45,o),
(86,45,cs),
(30,45,o),
(27,113,o),
(42,173,cs),
(56,230,o),
(105,308,o),
(152,308,cs)
);
}
);
width = 310;
},
{
layerId = m002;
shapes = (
{
closed = 1;
nodes = (
(180,-50,ls),
(170,-92,o),
(142,-178,o),
(123,-193,cs),
(104,-207,o),
(81,-210,o),
(64,-210,cs),
(47,-210,o),
(35,-208,o),
(21,-197,cs),
(8,-186,o),
(-20,-183,o),
(-38,-199,cs),
(-60,-219,o),
(-62,-245,o),
(-39,-264,cs),
(-21,-280,o),
(13,-300,o),
(58,-300,cs),
(101,-300,o),
(151,-291,o),
(179,-269,cs),
(237,-225,o),
(263,-131,o),
(279,-65,cs),
(370,302,ls),
(376,327,o),
(354,348,o),
(325,350,cs),
(301,352,o),
(275,337,o),
(270,316,cs)
);
},
{
closed = 1;
nodes = (
(89,354,o),
(21,265,o),
(3,164,cs),
(-10,88,o),
(31,-1,o),
(105,-1,cs),
(214,-1,o),
(275,91,o),
(296,170,cs),
(316,248,o),
(301,354,o),
(204,354,cs)
);
},
{
closed = 1;
nodes = (
(228,264,o),
(236,217,o),
(226,183,cs),
(213,138,o),
(184,89,o),
(136,89,cs),
(102,89,o),
(97,129,o),
(105,178,cs),
(113,216,o),
(139,264,o),
(182,264,cs)
);
}
);
width = 405;
}
);
metricLeft = o;
metricRight = n;
unicode = 103;
},
{
glyphname = h;
lastChange = "2022-03-22 01:38:39 +0000";
layers = (
{
layerId = m01;
shapes = (
{
closed = 1;
nodes = (
(40,153,o),
(131,309,o),
(169,309,cs),
(221,309,o),
(207,229,o),
(197,188,cs),
(158,34,ls),
(154,17,o),
(154,0,o),
(176,0,cs),
(201,0,o),
(204,13,o),
(209,31,cs),
(247,183,ls),
(266,258,o),
(258,354,o),
(181,354,cs),
(118,354,o),
(78,292,o),
(46,243,c),
(12,97,l)
);
},
{
closed = 1;
nodes = (
(159,638,o),
(155,650,o),
(136,650,cs),
(119,650,o),
(109,643,o),
(104,625,cs),
(-44,35,ls),
(-48,18,o),
(-48,0,o),
(-26,0,cs),
(-1,0,o),
(3,14,o),
(7,32,cs),
(155,622,ls)
);
}
);
width = 313;
},
{
layerId = m002;
shapes = (
{
closed = 1;
nodes = (
(114,164,o),
(189,265,o),
(218,265,cs),
(242,265,o),
(234,230,o),
(224,189,cs),
(188,46,ls),
(181,18,o),
(207,0,o),
(229,0,cs),
(254,0,o),
(283,14,o),
(290,43,cs),
(326,184,ls),
(346,264,o),
(326,354,o),
(233,354,cs),
(179,354,o),
(140,322,o),
(108,285,c),
(68,99,l)
);
},
{
closed = 1;
nodes = (
(211,633,o),
(187,650,o),
(163,650,cs),
(136,650,o),
(111,640,o),
(104,611,cs),
(-32,59,ls),
(-40,27,o),
(-25,0,o),
(8,0,cs),
(47,0,o),
(60,24,o),
(65,44,cs),
(202,597,ls)
);
}
);
width = 390;
}
);
metricLeft = n;
metricRight = n;
unicode = 104;
},
{
glyphname = i;
lastChange = "2022-03-22 01:38:39 +0000";
layers = (
{
layerId = m01;
shapes = (
{
closed = 1;
nodes = (
(107,441,o),
(120,454,o),
(120,468,cs),
(120,483,o),
(106,494,o),
(92,494,cs),
(76,494,o),
(65,481,o),
(65,468,cs),
(65,454,o),
(77,441,o),
(92,441,cs)
);
},
{
closed = 1;
nodes = (
(85,338,o),
(81,349,o),
(64,350,cs),
(45,351,o),
(35,343,o),
(30,325,cs),
(-43,35,ls),
(-47,18,o),
(-47,0,o),
(-25,0,cs),
(0,0,o),
(3,14,o),
(8,32,cs),
(81,322,ls)
);
}
);
width = 116;
},
{
layerId = m002;
shapes = (
{
closed = 1;
nodes = (
(147,422,o),
(172,443,o),
(172,470,cs),
(172,499,o),
(143,516,o),
(120,516,cs),
(92,516,o),
(70,495,o),
(70,470,cs),
(70,443,o),
(93,422,o),
(120,422,cs)
);
},
{
closed = 1;
nodes = (
(136,333,o),
(112,348,o),
(88,350,cs),
(61,352,o),
(36,340,o),
(29,311,cs),
(-33,59,ls),
(-41,27,o),
(-26,3,o),
(7,0,cs),
(46,-2,o),
(59,24,o),
(64,44,cs),
(127,297,ls)
);
}
);
width = 166;
}
);
metricLeft = n;
metricRight = n;
unicode = 105;
},
{
glyphname = j;
lastChange = "2022-03-22 01:38:39 +0000";
layers = (
{
layerId = m01;
shapes = (
{
closed = 1;
nodes = (
(38,440,o),
(51,453,o),
(51,468,cs),
(51,484,o),
(38,495,o),
(23,495,cs),
(8,495,o),
(-4,484,o),
(-4,468,cs),
(-4,453,o),
(8,440,o),
(23,440,cs)
);
},
{
closed = 1;
nodes = (
(-140,-87,ls),
(-152,-135,o),
(-170,-200,o),
(-204,-226,cs),
(-224,-244,o),
(-254,-250,o),
(-278,-250,cs),
(-307,-250,o),
(-317,-240,o),
(-329,-231,cs),
(-341,-222,o),
(-354,-220,o),
(-365,-229,cs),
(-376,-238,o),
(-379,-253,o),
(-367,-263,cs),
(-348,-280,o),
(-328,-300,o),
(-282,-300,cs),
(-241,-300,o),
(-203,-289,o),
(-174,-267,cs),
(-133,-235,o),
(-107,-164,o),
(-89,-91,cs),
(16,328,ls),
(19,340,o),
(8,350,o),
(-6,350,cs),
(-20,350,o),
(-32,341,o),
(-35,331,cs)
);
}
);
width = 47;
},
{
layerId = m002;
shapes = (
{
closed = 1;
nodes = (
(67,419,o),
(91,440,o),
(91,468,cs),
(91,496,o),
(67,515,o),
(40,515,cs),
(13,515,o),
(-11,496,o),
(-11,468,cs),
(-11,440,o),
(13,419,o),
(40,419,cs)
);
},
{
closed = 1;
nodes = (
(-140,-50,ls),
(-150,-92,o),
(-178,-178,o),
(-197,-193,cs),
(-216,-207,o),
(-239,-210,o),
(-256,-210,cs),
(-273,-210,o),
(-285,-208,o),
(-299,-197,cs),
(-312,-186,o),
(-340,-183,o),
(-358,-199,cs),
(-380,-219,o),
(-382,-245,o),
(-359,-264,cs),
(-341,-280,o),
(-307,-300,o),
(-262,-300,cs),
(-219,-300,o),
(-169,-291,o),
(-141,-269,cs),
(-83,-225,o),
(-57,-131,o),
(-41,-65,cs),
(50,302,ls),
(56,327,o),
(34,350,o),
(5,350,cs),
(-19,350,o),
(-45,337,o),
(-50,316,cs)
);
}
);
width = 85;
}
);
metricRight = n;
unicode = 106;
},
{
glyphname = k;
lastChange = "2022-03-22 01:38:39 +0000";
layers = (
{
layerId = m01;
shapes = (
{
closed = 1;
nodes = (
(38,201,l),
(57,218,o),
(102,257,o),
(119,271,cs),
(140,289,o),
(165,308,o),
(185,308,cs),
(204,308,o),
(216,290,o),
(211,266,cs),
(202,222,o),
(173,204,o),
(140,204,cs),
(110,204,o),
(72,261,o),
(61,279,c),
(50,219,l),
(66,183,o),
(111,159,o),
(140,158,cs),
(196,156,o),
(248,190,o),
(260,258,cs),
(266,292,o),
(249,354,o),
(192,354,cs),
(149,354,o),
(105,319,o),
(87,304,cs),
(65,285,l)
);
},
{
closed = 1;
nodes = (
(159,638,o),
(155,649,o),
(138,650,cs),
(119,651,o),
(109,643,o),
(104,625,cs),
(-44,35,ls),
(-48,18,o),
(-48,0,o),
(-26,0,cs),
(-1,0,o),
(3,14,o),
(7,32,cs),
(155,622,ls)
);
},
{
closed = 1;
nodes = (
(46,233,l),
(40,211,l),
(159,8,ls),
(163,2,o),
(169,0,o),
(174,0,cs),
(181,0,o),
(189,1,o),
(194,6,cs),
(199,11,o),
(203,18,o),
(203,25,cs),
(203,31,o),
(200,37,o),
(197,42,cs),
(103,197,l)
);
}
);
width = 297;
},
{
layerId = m002;
shapes = (
{
closed = 1;
nodes = (
(58,144,l),
(113,199,o),
(165,239,o),
(176,248,cs),
(193,261,o),
(209,266,o),
(217,266,cs),
(223,266,o),
(228,262,o),
(223,245,cs),
(218,225,o),
(199,220,o),
(184,220,cs),
(167,220,o),
(142,227,o),
(94,304,c),
(72,208,l),
(86,164,o),
(140,134,o),
(177,132,cs),
(238,130,o),
(298,168,o),
(310,240,cs),
(319,284,o),
(292,352,o),
(224,352,cs),
(173,352,o),
(126,313,o),
(113,301,cs),
(89,280,l)
);
},
{
closed = 1;
nodes = (
(213,633,o),
(188,648,o),
(164,650,cs),
(137,652,o),
(111,640,o),
(104,611,cs),
(-32,59,ls),
(-40,27,o),
(-24,3,o),
(9,0,cs),
(48,-2,o),
(62,24,o),
(67,44,cs),
(204,597,ls)
);
},
{
closed = 1;
nodes = (
(88,256,l),
(68,192,l),
(167,21,ls),
(176,6,o),
(198,-2,o),
(209,-2,cs),
(222,-2,o),
(239,2,o),
(247,11,cs),
(256,21,o),
(262,32,o),
(262,44,cs),
(262,53,o),
(255,66,o),
(252,71,cs),
(172,211,l)
);
}
);
width = 343;
}
);
metricLeft = n;
metricRight = o;
unicode = 107;
},
{
glyphname = l;
lastChange = "2022-03-22 01:38:39 +0000";
layers = (
{
layerId = m01;
shapes = (
{
closed = 1;
nodes = (
(159,638,o),
(155,650,o),
(138,650,cs),
(119,650,o),
(109,643,o),
(104,625,cs),
(-44,35,ls),
(-48,18,o),
(-48,0,o),
(-26,0,cs),
(-1,0,o),
(3,14,o),
(7,32,cs),
(155,622,ls)
);
}
);
width = 112;
},
{
layerId = m002;
shapes = (
{
closed = 1;
nodes = (
(211,633,o),
(187,648,o),
(163,650,cs),
(136,652,o),
(111,640,o),
(104,611,cs),
(-32,59,ls),
(-40,27,o),
(-25,3,o),
(8,0,cs),
(47,-2,o),
(60,24,o),
(65,44,cs),
(202,597,ls)
);
}
);
width = 164;
}
);
metricLeft = n;
metricRight = n;
unicode = 108;
},
{
glyphname = m;
lastChange = "2022-03-17 23:46:06 +0000";
layers = (
{
layerId = m01;
shapes = (
{
closed = 1;
nodes = (
(40,153,o),
(131,307,o),
(169,307,cs),
(221,307,o),
(207,229,o),
(197,188,cs),
(158,34,ls),
(154,17,o),
(154,-1,o),
(176,-1,cs),
(201,-1,o),
(204,13,o),
(209,31,cs),
(247,183,ls),
(266,258,o),
(258,353,o),
(181,353,cs),
(118,353,o),
(78,292,o),
(46,243,c),
(12,97,l)
);
},
{
closed = 1;
nodes = (
(84,338,o),
(80,349,o),
(63,350,cs),
(44,351,o),
(34,343,o),
(29,325,cs),
(-44,35,ls),
(-48,18,o),
(-48,0,o),
(-26,0,cs),
(-1,0,o),
(2,14,o),
(7,32,cs),
(80,322,ls)
);
},
{
closed = 1;
nodes = (
(243,154,o),
(334,308,o),
(372,308,cs),
(424,308,o),
(410,230,o),
(400,189,cs),
(361,35,ls),
(357,18,o),
(357,0,o),
(379,0,cs),
(404,0,o),
(407,14,o),
(412,32,cs),
(450,184,ls),
(469,259,o),
(461,354,o),
(384,354,cs),
(321,354,o),
(281,293,o),
(249,244,c),
(215,98,l)
);
}
);
width = 516;
},
{
layerId = m002;
shapes = (
{
closed = 1;
nodes = (
(113,164,o),
(188,264,o),
(217,264,cs),
(241,264,o),
(233,230,o),
(223,189,cs),
(187,46,ls),
(180,18,o),
(206,0,o),
(228,0,cs),
(253,0,o),
(282,14,o),
(289,43,cs),
(325,184,ls),
(345,264,o),
(325,354,o),
(232,354,cs),
(178,354,o),
(139,322,o),
(107,285,c),
(67,99,l)
);
},
{
closed = 1;
nodes = (
(136,333,o),
(112,348,o),
(88,350,cs),
(61,352,o),
(36,340,o),
(29,311,cs),
(-33,59,ls),
(-41,27,o),
(-26,3,o),
(7,0,cs),
(46,-2,o),
(59,24,o),
(64,44,cs),
(127,297,ls)
);
},
{
closed = 1;
nodes = (
(338,164,o),
(413,264,o),
(442,264,cs),
(466,264,o),
(458,230,o),
(448,189,cs),
(412,46,ls),
(405,18,o),
(431,0,o),
(453,0,cs),
(478,0,o),
(507,14,o),
(514,43,cs),
(550,184,ls),
(570,264,o),
(550,354,o),
(457,354,cs),
(403,354,o),
(354,312,o),
(322,275,c),
(292,99,l)
);
}
);
width = 614;
}
);
metricLeft = n;
metricRight = n;
unicode = 109;
},
{
glyphname = n;
lastChange = "2022-03-17 23:46:06 +0000";
layers = (
{
layerId = m01;
shapes = (
{
closed = 1;
nodes = (
(40,153,o),
(131,307,o),
(169,307,cs),
(221,307,o),
(207,229,o),
(197,188,cs),
(158,34,ls),
(154,17,o),
(154,-1,o),
(176,-1,cs),
(201,-1,o),
(204,13,o),
(209,31,cs),
(247,183,ls),
(266,258,o),
(258,353,o),
(181,353,cs),
(118,353,o),
(78,292,o),
(46,243,c),
(12,97,l)
);
},
{
closed = 1;
nodes = (
(84,338,o),
(80,349,o),
(63,350,cs),
(44,351,o),
(34,343,o),
(29,325,cs),
(-44,35,ls),
(-48,18,o),
(-48,0,o),
(-26,0,cs),
(-1,0,o),
(2,14,o),
(7,32,cs),
(80,322,ls)
);
}
);
width = 313;
},
{
layerId = m002;
shapes = (
{
closed = 1;
nodes = (
(113,164,o),
(188,264,o),
(217,264,cs),
(241,264,o),
(233,230,o),
(223,189,cs),
(187,46,ls),
(180,18,o),
(206,0,o),
(228,0,cs),
(253,0,o),
(282,14,o),
(289,43,cs),
(325,184,ls),
(345,264,o),
(325,354,o),
(232,354,cs),
(178,354,o),
(139,322,o),
(107,285,c),
(67,99,l)
);
},
{
closed = 1;
nodes = (
(136,333,o),
(112,348,o),
(88,350,cs),
(61,352,o),
(36,340,o),
(29,311,cs),
(-33,59,ls),
(-41,27,o),
(-26,3,o),
(7,0,cs),
(46,-2,o),
(59,24,o),
(64,44,cs),
(127,297,ls)
);
}
);
width = 389;
}
);
unicode = 110;
},
{
glyphname = o;
lastChange = "2022-03-17 23:46:06 +0000";
layers = (
{
layerId = m01;
shapes = (
{
closed = 1;
nodes = (
(73,354,o),
(17,275,o),
(-12,160,cs),
(-31,84,o),
(1,0,o),
(74,0,cs),
(160,0,o),
(209,93,o),
(229,170,cs),
(249,248,o),
(246,354,o),
(163,354,cs)
);
},
{
closed = 1;
nodes = (
(206,308,o),
(190,221,o),
(180,182,cs),
(167,129,o),
(125,45,o),
(86,45,cs),
(30,45,o),
(27,113,o),
(42,173,cs),
(56,230,o),
(105,308,o),
(152,308,cs)
);
}
);
width = 286;
},
{
layerId = m002;
shapes = (
{
closed = 1;
nodes = (
(88,354,o),
(21,265,o),
(3,164,cs),
(-10,88,o),
(30,-1,o),
(104,-1,cs),
(213,-1,o),
(274,91,o),
(295,170,cs),
(315,248,o),
(300,354,o),
(203,354,cs)
);
},
{
closed = 1;
nodes = (
(213,264,o),
(206,217,o),
(196,183,cs),
(183,138,o),
(157,89,o),
(125,89,cs),
(101,89,o),
(96,129,o),
(104,178,cs),
(112,216,o),
(138,264,o),
(181,264,cs)
);
}
);
width = 343;
}
);
unicode = 111;
},
{
glyphname = p;
lastChange = "2022-03-22 01:38:39 +0000";
layers = (
{
layerId = m01;
shapes = (
{
closed = 1;
nodes = (
(84,338,o),
(80,350,o),
(63,350,cs),
(44,350,o),
(34,343,o),
(29,325,cs),
(-119,-265,ls),
(-123,-282,o),
(-123,-300,o),
(-101,-300,cs),
(-76,-300,o),
(-72,-286,o),
(-68,-268,cs),
(80,322,ls)
);
},
{
closed = 1;
nodes = (
(90,354,o),
(34,275,o),
(5,160,cs),
(-14,84,o),
(18,0,o),
(91,0,cs),
(177,0,o),
(226,93,o),
(246,170,cs),
(266,248,o),
(263,354,o),
(180,354,cs)
);
},
{
closed = 1;
nodes = (
(223,308,o),
(207,221,o),
(197,182,cs),
(184,129,o),
(142,45,o),
(103,45,cs),
(47,45,o),
(44,113,o),
(59,173,cs),
(73,230,o),
(122,308,o),
(169,308,cs)
);
}
);
width = 303;
},
{
layerId = m002;
shapes = (
{
closed = 1;
nodes = (
(136,333,o),
(112,348,o),
(88,350,cs),
(61,352,o),
(36,340,o),
(29,311,cs),
(-108,-241,ls),
(-116,-273,o),
(-101,-297,o),
(-68,-300,cs),
(-29,-302,o),
(-16,-276,o),
(-11,-256,cs),
(127,297,ls)
);
},
{
closed = 1;
nodes = (
(118,354,o),
(51,265,o),
(33,164,cs),
(20,88,o),
(60,-1,o),
(134,-1,cs),
(243,-1,o),
(304,91,o),
(325,170,cs),
(345,248,o),
(330,354,o),
(233,354,cs)
);
},
{
closed = 1;
nodes = (
(243,264,o),
(236,217,o),
(226,183,cs),
(213,138,o),
(187,89,o),
(155,89,cs),
(105,89,o),
(105,129,o),
(113,178,cs),
(121,216,o),
(148,264,o),
(211,264,cs)
);
}
);
width = 373;
}
);
metricLeft = n;
metricRight = o;
unicode = 112;
},
{
glyphname = q;
lastChange = "2022-03-22 01:38:39 +0000";
layers = (
{
layerId = m01;
shapes = (
{
closed = 1;
nodes = (
(110,-145,ls),
(93,-212,o),
(88,-300,o),
(158,-300,cs),
(200,-300,o),
(233,-253,o),
(257,-223,cs),
(277,-197,o),
(280,-191,o),
(281,-183,cs),
(282,-168,o),
(271,-159,o),
(260,-157,cs),
(248,-155,o),
(240,-166,o),
(238,-169,cs),
(223,-190,ls),
(208,-211,o),
(177,-254,o),
(160,-254,cs),
(141,-254,o),
(152,-183,o),
(156,-167,cs),
(279,322,ls),
(283,338,o),
(279,350,o),
(262,350,cs),
(243,350,o),
(233,343,o),
(228,325,cs)
);
},
{
closed = 1;
nodes = (
(73,354,o),
(17,275,o),
(-12,160,cs),
(-31,84,o),
(1,0,o),
(74,0,cs),
(160,0,o),
(209,93,o),
(229,170,cs),
(249,248,o),
(246,354,o),
(163,354,cs)
);
},
{
closed = 1;
nodes = (
(206,308,o),
(190,221,o),
(180,182,cs),
(167,129,o),
(125,45,o),
(86,45,cs),
(30,45,o),
(27,113,o),
(42,173,cs),
(56,230,o),
(105,308,o),
(152,308,cs)
);
}
);
width = 325;
},
{
layerId = m002;
shapes = (
{
closed = 1;
nodes = (
(160,-133,ls),
(140,-213,o),
(148,-300,o),
(227,-300,cs),
(273,-300,o),
(316,-281,o),
(342,-246,cs),
(361,-221,o),
(377,-188,o),
(378,-174,cs),
(379,-158,o),
(366,-142,o),
(352,-136,cs),
(341,-131,o),
(323,-128,o),
(311,-145,cs),
(297,-165,ls),
(290,-175,o),
(263,-209,o),
(254,-209,cs),
(244,-209,o),
(245,-193,o),
(258,-142,cs),
(368,297,ls),
(378,335,o),
(353,350,o),
(329,350,cs),
(302,350,o),
(277,338,o),
(270,311,cs)
);
},
{
closed = 1;
nodes = (
(89,354,o),
(21,265,o),
(3,164,cs),
(-10,88,o),
(31,0,o),
(105,0,cs),
(214,0,o),
(275,91,o),
(296,170,cs),
(316,248,o),
(301,354,o),
(204,354,cs)
);
},
{
closed = 1;
nodes = (
(228,264,o),
(236,217,o),
(226,183,cs),
(213,138,o),
(184,90,o),
(135,90,cs),
(102,90,o),
(97,129,o),
(105,178,cs),
(113,216,o),
(139,264,o),
(182,264,cs)
);
}
);
width = 433;
}
);
metricLeft = o;
unicode = 113;
},
{
glyphname = r;
lastChange = "2022-03-17 23:46:06 +0000";
layers = (
{
layerId = m01;
shapes = (
{
closed = 1;
nodes = (
(219,267,o),
(235,262,o),
(248,267,cs),
(260,272,o),
(266,281,o),
(264,291,cs),
(256,327,o),
(231,353,o),
(181,353,cs),
(118,353,o),
(78,292,o),
(46,243,c),
(12,97,l),
(40,153,o),
(131,307,o),
(169,307,cs),
(199,307,o),
(212,294,o),
(217,276,cs)
);
},
{
closed = 1;
nodes = (
(84,338,o),
(80,349,o),
(63,350,cs),
(44,351,o),
(34,343,o),
(29,325,cs),
(-44,35,ls),
(-48,18,o),
(-48,0,o),
(-26,0,cs),
(-1,0,o),
(2,14,o),
(7,32,cs),
(80,322,ls)
);
}
);
width = 273;
},
{
layerId = m002;
shapes = (
{
closed = 1;
nodes = (
(246,242,o),
(266,226,o),
(292,237,cs),
(325,251,o),
(329,274,o),
(325,288,cs),
(313,326,o),
(284,354,o),
(232,354,cs),
(178,354,o),
(139,322,o),
(107,285,c),
(67,99,l),
(113,164,o),
(188,266,o),
(212,266,cs),
(225,266,o),
(239,261,o),
(241,255,cs)
);
},
{
closed = 1;
nodes = (
(136,333,o),
(112,348,o),
(88,350,cs),
(61,352,o),
(36,340,o),
(29,311,cs),
(-33,59,ls),
(-41,27,o),
(-26,3,o),
(7,0,cs),
(46,-2,o),
(59,24,o),
(64,44,cs),
(127,297,ls)
);
}
);
width = 331;
}
);
metricLeft = n;
unicode = 114;
},
{
glyphname = s;
lastChange = "2022-03-22 01:38:39 +0000";
layers = (
{
layerId = m01;
shapes = (
{
closed = 1;
nodes = (
(44,45,o),
(15,66,o),
(7,71,cs),
(-9,82,o),
(-25,85,o),
(-33,71,cs),
(-42,56,o),
(-33,39,o),
(-1,22,cs),
(21,10,o),
(50,0,o),
(90,0,cs),
(147,0,o),
(195,20,o),
(205,80,cs),
(216,147,o),
(164,175,o),
(124,203,cs),
(91,226,o),
(61,241,o),
(65,266,cs),
(69,287,o),
(95,304,o),
(131,304,cs),
(166,304,o),
(204,287,o),
(213,282,cs),
(228,275,o),
(247,271,o),
(256,286,cs),
(264,300,o),
(254,317,o),
(225,331,cs),
(200,342,o),
(164,350,o),
(135,350,cs),
(70,350,o),
(23,310,o),
(15,268,cs),
(6,217,o),
(59,187,o),
(84,171,cs),
(122,147,o),
(163,129,o),
(157,90,cs),
(152,61,o),
(125,47,o),
(89,46,cs)
);
}
);
width = 285;
},
{
layerId = m002;
shapes = (
{
closed = 1;
nodes = (
(89,88,o),
(71,94,o),
(58,100,cs),
(36,111,o),
(0,115,o),
(-14,88,cs),
(-27,64,o),
(-13,34,o),
(23,18,cs),
(51,5,o),
(95,0,o),
(125,0,cs),
(185,0,o),
(242,20,o),
(254,95,cs),
(265,161,o),
(225,177,o),
(180,208,cs),
(156,225,o),
(122,240,o),
(124,251,cs),
(126,261,o),
(143,263,o),
(167,263,cs),
(197,263,o),
(215,254,o),
(219,252,cs),
(244,239,o),
(276,233,o),
(293,261,cs),
(308,286,o),
(297,314,o),
(255,334,cs),
(232,345,o),
(201,353,o),
(171,353,cs),
(107,353,o),
(36,316,o),
(27,262,cs),
(18,208,o),
(77,168,o),
(96,156,cs),
(128,136,o),
(168,121,o),
(165,107,cs),
(162,92,o),
(140,90,o),
(122,88,c)
);
}
);
width = 322;
}
);
metricLeft = o;
metricRight = o;
unicode = 115;
},
{
glyphname = t;
lastChange = "2022-03-17 23:46:06 +0000";
layers = (
{
layerId = m01;
shapes = (
{
closed = 1;
nodes = (
(243,305,o),
(249,316,o),
(249,328,cs),
(249,340,o),
(243,350,o),
(223,350,cs),
(10,350,ls),
(-10,350,o),
(-16,340,o),
(-16,328,cs),
(-16,316,o),
(-10,305,o),
(10,305,cs),
(223,305,ls)
);
},
{
closed = 1;
nodes = (
(198,552,o),
(185,563,o),
(171,564,cs),
(160,565,o),
(149,558,o),
(146,545,cs),
(17,25,ls),
(13,10,o),
(25,1,o),
(38,0,cs),
(51,-1,o),
(64,5,o),
(68,21,cs),
(194,534,ls)
);
}
);
width = 225;
},
{
layerId = m002;
shapes = (
{
closed = 1;
nodes = (
(250,267,o),
(268,287,o),
(268,311,cs),
(268,336,o),
(250,354,o),
(219,354,cs),
(32,354,ls),
(1,354,o),
(-18,336,o),
(-18,311,cs),
(-18,287,o),
(1,267,o),
(32,267,cs),
(219,267,ls)
);
},
{
closed = 1;
nodes = (
(235,546,o),
(210,562,o),
(183,564,cs),
(161,566,o),
(134,551,o),
(128,528,cs),
(8,48,ls),
(0,16,o),
(26,2,o),
(52,0,cs),
(77,-1,o),
(100,6,o),
(107,32,cs),
(227,513,ls)
);
}
);
width = 253;
}
);
unicode = 116;
},
{
glyphname = u;
lastChange = "2022-03-22 01:38:39 +0000";
layers = (
{
layerId = m01;
shapes = (
{
closed = 1;
nodes = (
(196,197,o),
(105,43,o),
(67,43,cs),
(15,43,o),
(29,121,o),
(39,162,cs),
(78,316,ls),
(82,333,o),
(82,351,o),
(60,351,cs),
(35,351,o),
(32,337,o),
(27,319,cs),
(-11,167,ls),
(-30,92,o),
(-22,-3,o),
(55,-3,cs),
(118,-3,o),
(158,58,o),
(190,107,c),
(224,253,l)
);
},
{
closed = 1;
nodes = (
(152,12,o),
(156,1,o),
(173,0,cs),
(192,-1,o),
(202,7,o),
(207,25,cs),
(280,315,ls),
(284,332,o),
(284,350,o),
(262,350,cs),
(237,350,o),
(234,336,o),
(229,318,cs),
(156,28,ls)
);
}
);
width = 313;
},
{
layerId = m002;
shapes = (
{
closed = 1;
nodes = (
(205,186,o),
(130,86,o),
(101,86,cs),
(77,86,o),
(85,120,o),
(95,161,cs),
(131,304,ls),
(138,332,o),
(112,350,o),
(90,350,cs),
(65,350,o),
(36,336,o),
(29,307,cs),
(-7,166,ls),
(-27,86,o),
(-7,-4,o),
(86,-4,cs),
(140,-4,o),
(179,28,o),
(211,65,c),
(251,251,l)
);
},
{
closed = 1;
nodes = (
(182,17,o),
(206,2,o),
(230,0,cs),
(257,-2,o),
(282,10,o),
(289,39,cs),
(351,291,ls),
(359,323,o),
(344,347,o),
(311,350,cs),
(272,352,o),
(259,326,o),
(254,306,cs),
(191,53,ls)
);
}
);
width = 389;
}
);
metricLeft = n;
metricRight = n;
unicode = 117;
},
{
glyphname = v;
lastChange = "2022-03-22 01:38:39 +0000";
layers = (
{
layerId = m01;
shapes = (
{
closed = 1;
nodes = (
(277,328,o),
(274,340,o),
(264,345,cs),
(256,350,o),
(246,351,o),
(240,349,cs),
(233,346,o),
(228,341,o),
(224,334,cs),
(90,75,l),
(89,0,l),
(105,0,o),
(110,4,o),
(116,16,cs),
(272,318,ls)
);
},
{
closed = 1;
nodes = (
(87,350,o),
(68,352,o),
(56,348,cs),
(42,343,o),
(38,330,o),
(39,320,cs),
(64,19,ls),
(65,6,o),
(76,0,o),
(90,0,c),
(109,75,l),
(89,328,ls)
);
}
);
width = 305;
},
{
layerId = m002;
shapes = (
{
closed = 1;
nodes = (
(295,303,o),
(299,326,o),
(281,337,cs),
(258,352,o),
(238,352,o),
(225,348,cs),
(212,343,o),
(202,335,o),
(196,323,cs),
(78,95,l),
(107,0,l),
(125,0,o),
(142,8,o),
(152,27,cs),
(288,289,ls)
);
},
{
closed = 1;
nodes = (
(128,345,o),
(91,357,o),
(64,347,cs),
(41,338,o),
(32,318,o),
(34,298,cs),
(55,39,ls),
(57,18,o),
(79,0,o),
(109,0,c),
(149,88,l),
(131,309,ls)
);
}
);
width = 327;
}
);
metricRight = n;
unicode = 118;
},
{
glyphname = w;
lastChange = "2022-03-22 01:38:39 +0000";
layers = (
{
layerId = m01;
shapes = (
{
closed = 1;
nodes = (
(283,350,l),
(270,350,o),
(263,344,o),
(257,334,cs),
(93,72,l),
(89,0,l),
(105,0,o),
(110,4,o),
(117,16,cs),
(279,276,l)
);
},
{
closed = 1;
nodes = (
(87,350,o),
(68,352,o),
(56,348,cs),
(42,343,o),
(38,330,o),
(39,320,cs),
(65,18,ls),
(66,5,o),
(76,0,o),
(90,0,c),
(110,74,l),
(89,328,ls)
);
},
{
closed = 1;
nodes = (
(542,322,o),
(543,336,o),
(533,344,cs),
(524,351,o),
(513,351,o),
(507,349,cs),
(500,346,o),
(495,341,o),
(491,334,cs),
(326,72,l),
(323,0,l),
(339,0,o),
(344,4,o),
(351,16,cs),
(537,314,ls)
);
},
{
closed = 1;
nodes = (
(304,344,o),
(292,350,o),
(282,350,c),
(263,277,l),
(299,18,ls),
(301,5,o),
(310,0,o),
(324,0,c),
(342,74,l),
(306,328,ls)
);
}
);
width = 560;
},
{
layerId = m002;
shapes = (
{
closed = 1;
nodes = (
(279,350,l),
(256,350,o),
(238,344,o),
(227,327,cs),
(80,94,l),
(92,0,l),
(119,0,o),
(141,10,o),
(151,25,cs),
(297,259,l)
);
},
{
closed = 1;
nodes = (
(128,348,o),
(86,355,o),
(64,347,cs),
(41,337,o),
(31,317,o),
(33,298,cs),
(56,38,ls),
(59,8,o),
(78,0,o),
(93,0,c),
(149,87,l),
(131,309,ls)
);
},
{
closed = 1;
nodes = (
(531,306,o),
(529,325,o),
(511,337,cs),
(490,351,o),
(468,352,o),
(456,347,cs),
(446,343,o),
(436,334,o),
(429,323,cs),
(284,94,l),
(318,0,l),
(335,0,o),
(344,5,o),
(356,25,cs),
(522,292,ls)
);
},
{
closed = 1;
nodes = (
(317,344,o),
(295,350,o),
(277,350,c),
(229,267,l),
(261,38,ls),
(265,8,o),
(291,0,o),
(320,0,c),
(352,88,l),
(321,314,ls)
);
}
);
width = 542;
}
);
metricRight = o;
unicode = 119;
},
{
glyphname = x;
lastChange = "2022-03-17 23:46:06 +0000";
layers = (
{
layerId = m01;
shapes = (
{
closed = 1;
nodes = (
(344,313,o),
(348,320,o),
(348,327,cs),
(348,333,o),
(346,339,o),
(341,344,cs),
(336,349,o),
(329,350,o),
(322,350,cs),
(315,349,o),
(308,346,o),
(303,341,cs),
(-36,44,ls),
(-44,37,o),
(-45,28,o),
(-44,21,cs),
(-43,16,o),
(-40,11,o),
(-36,6,cs),
(-32,2,o),
(-27,0,o),
(-20,0,cs),
(-12,0,o),
(-4,5,o),
(1,10,cs),
(339,308,ls)
);
},
{
closed = 1;
nodes = (
(72,345,o),
(65,350,o),
(57,350,cs),
(50,350,o),
(44,347,o),
(39,343,cs),
(34,339,o),
(31,333,o),
(30,327,cs),
(30,321,o),
(33,314,o),
(36,309,cs),
(229,8,ls),
(233,2,o),
(239,0,o),
(244,0,cs),
(251,0,o),
(259,1,o),
(264,6,cs),
(269,11,o),
(273,18,o),
(273,25,cs),
(273,31,o),
(270,37,o),
(267,42,cs),
(77,338,ls)
);
}
);
width = 360;
},
{
layerId = m002;
shapes = (
{
closed = 1;
nodes = (
(346,278,o),
(354,289,o),
(354,306,cs),
(354,317,o),
(350,328,o),
(340,337,cs),
(332,346,o),
(316,350,o),
(301,350,cs),
(292,350,o),
(277,345,o),
(268,337,cs),
(-25,81,ls),
(-38,70,o),
(-42,55,o),
(-40,40,cs),
(-39,30,o),
(-34,23,o),
(-27,14,cs),
(-20,6,o),
(-6,0,o),
(8,0,cs),
(22,0,o),
(37,7,o),
(47,16,cs),
(338,271,ls)
);
},
{
closed = 1;
nodes = (
(105,343,o),
(89,350,o),
(75,350,cs),
(62,350,o),
(48,345,o),
(40,337,cs),
(31,330,o),
(26,321,o),
(24,308,cs),
(23,298,o),
(27,286,o),
(31,280,cs),
(202,21,ls),
(209,11,o),
(221,0,o),
(233,0,cs),
(248,0,o),
(265,5,o),
(275,15,cs),
(285,24,o),
(290,36,o),
(290,48,cs),
(290,57,o),
(287,66,o),
(281,75,cs),
(114,329,ls)
);
}
);
width = 367;
}
);
unicode = 120;
},
{
glyphname = y;
lastChange = "2022-03-22 01:38:39 +0000";
layers = (
{
layerId = m01;
shapes = (
{
closed = 1;
nodes = (
(196,197,o),
(105,43,o),
(67,43,cs),
(15,43,o),
(29,121,o),
(39,162,cs),
(78,316,ls),
(82,333,o),
(82,351,o),
(60,351,cs),
(35,351,o),
(32,337,o),
(27,319,cs),
(-11,167,ls),
(-30,92,o),
(-22,-3,o),
(55,-3,cs),
(118,-3,o),
(158,58,o),
(190,107,c),
(224,253,l)
);
},
{
closed = 1;
nodes = (
(127,-87,ls),
(115,-135,o),
(97,-200,o),
(63,-226,cs),
(43,-244,o),
(13,-250,o),
(-11,-250,cs),
(-40,-250,o),
(-50,-240,o),
(-62,-231,cs),
(-74,-222,o),
(-87,-220,o),
(-98,-229,cs),
(-109,-238,o),
(-112,-253,o),
(-100,-263,cs),
(-81,-280,o),
(-61,-300,o),
(-15,-300,cs),
(26,-300,o),
(64,-289,o),
(93,-267,cs),
(134,-235,o),
(160,-164,o),
(178,-91,cs),
(283,328,ls),
(286,340,o),
(275,350,o),
(261,350,cs),
(247,350,o),
(235,341,o),
(232,331,cs)
);
}
);
width = 313;
},
{
layerId = m002;
shapes = (
{
closed = 1;
nodes = (
(205,186,o),
(130,86,o),
(101,86,cs),
(77,86,o),
(85,120,o),
(95,161,cs),
(131,304,ls),
(138,332,o),
(112,350,o),
(90,350,cs),
(65,350,o),
(36,336,o),
(29,307,cs),
(-7,166,ls),
(-27,86,o),
(-7,-4,o),
(86,-4,cs),
(140,-4,o),
(179,28,o),
(211,65,c),
(251,251,l)
);
},
{
closed = 1;
nodes = (
(164,-50,ls),
(154,-92,o),
(126,-178,o),
(107,-193,cs),
(88,-207,o),
(65,-210,o),
(48,-210,cs),
(31,-210,o),
(19,-208,o),
(5,-197,cs),
(-8,-186,o),
(-36,-183,o),
(-54,-199,cs),
(-76,-219,o),
(-78,-245,o),
(-55,-264,cs),
(-37,-280,o),
(-3,-300,o),
(42,-300,cs),
(85,-300,o),
(135,-291,o),
(163,-269,cs),
(221,-225,o),
(247,-131,o),
(263,-65,cs),
(354,302,ls),
(360,327,o),
(338,350,o),
(309,350,cs),
(285,350,o),
(259,337,o),
(254,316,cs)
);
}
);
width = 389;
}
);
metricLeft = n;
metricRight = n;
unicode = 121;
},
{
glyphname = z;
lastChange = "2022-03-17 23:46:06 +0000";
layers = (
{
layerId = m01;
shapes = (
{
closed = 1;
nodes = (
(252,0,ls),
(272,0,o),
(278,13,o),
(278,25,cs),
(278,37,o),
(272,50,o),
(252,50,cs),
(26,50,l),
(-23,0,l)
);
},
{
closed = 1;
nodes = (
(324,350,l),
(50,350,ls),
(30,350,o),
(24,337,o),
(24,325,cs),
(24,313,o),
(30,300,o),
(50,300,cs),
(277,300,l)
);
},
{
closed = 1;
nodes = (
(344,313,o),
(348,320,o),
(348,327,cs),
(348,333,o),
(346,339,o),
(341,344,cs),
(336,349,o),
(329,350,o),
(322,350,cs),
(315,349,o),
(308,346,o),
(303,341,cs),
(-36,44,ls),
(-44,37,o),
(-45,28,o),
(-44,21,cs),
(-43,16,o),
(-40,11,o),
(-36,6,cs),
(-32,2,o),
(-27,0,o),
(-20,0,cs),
(-12,0,o),
(-4,5,o),
(1,10,cs),
(339,308,ls)
);
}
);
width = 361;
},
{
layerId = m002;
shapes = (
{
closed = 1;
nodes = (
(239,0,ls),
(271,0,o),
(289,21,o),
(289,46,cs),
(289,70,o),
(271,90,o),
(239,90,cs),
(94,90,l),
(4,0,l)
);
},
{
closed = 1;
nodes = (
(308,350,l),
(74,350,ls),
(42,350,o),
(24,329,o),
(24,304,cs),
(24,280,o),
(42,260,o),
(74,260,cs),
(219,260,l)
);
},
{
closed = 1;
nodes = (
(346,278,o),
(354,289,o),
(354,306,cs),
(354,317,o),
(350,328,o),
(340,337,cs),
(332,346,o),
(316,350,o),
(301,350,cs),
(292,350,o),
(277,345,o),
(268,337,cs),
(-25,81,ls),
(-38,70,o),
(-42,55,o),
(-40,40,cs),
(-39,30,o),
(-34,23,o),
(-27,14,cs),
(-20,6,o),
(-6,0,o),
(8,0,cs),
(22,0,o),
(37,7,o),
(47,16,cs),
(338,271,ls)
);
}
);
width = 353;
}
);
unicode = 122;
},
{
glyphname = a.ss01;
lastChange = "2022-03-24 00:44:34 +0000";
layers = (
{
layerId = m01;
shapes = (
{
closed = 1;
nodes = (
(185,155,ls),
(168,88,o),
(163,0,o),
(233,0,cs),
(275,0,o),
(308,47,o),
(332,77,cs),
(352,103,o),
(355,109,o),
(356,117,cs),
(357,132,o),
(346,141,o),
(335,143,cs),
(323,145,o),
(315,134,o),
(313,131,cs),
(298,110,ls),
(283,89,o),
(252,46,o),
(235,46,cs),
(216,46,o),
(227,117,o),
(231,133,cs),
(279,322,ls),
(283,338,o),
(279,350,o),
(262,350,cs),
(243,350,o),
(233,343,o),
(228,325,cs)
);
},
{
closed = 1;
nodes = (
(73,354,o),
(17,275,o),
(-12,160,cs),
(-31,84,o),
(1,0,o),
(74,0,cs),
(160,0,o),
(209,93,o),
(229,170,cs),
(249,248,o),
(246,354,o),
(163,354,cs)
);
},
{
closed = 1;
nodes = (
(206,308,o),
(190,221,o),
(180,182,cs),
(167,129,o),
(125,45,o),
(86,45,cs),
(30,45,o),
(27,113,o),
(42,173,cs),
(56,230,o),
(105,308,o),
(152,308,cs)
);
}
);
width = 399;
},
{
layerId = m002;
shapes = (
{
closed = 1;
nodes = (
(235,167,ls),
(216,87,o),
(223,0,o),
(302,0,cs),
(348,0,o),
(391,19,o),
(417,54,cs),
(436,79,o),
(452,112,o),
(453,126,cs),
(454,142,o),
(441,158,o),
(427,164,cs),
(416,169,o),
(398,172,o),
(386,155,cs),
(372,135,ls),
(365,125,o),
(338,91,o),
(329,91,cs),
(319,91,o),
(320,107,o),
(333,158,cs),
(368,297,ls),
(378,335,o),
(353,350,o),
(329,350,cs),
(302,350,o),
(277,338,o),
(270,311,cs)
);
},
{
closed = 1;
nodes = (
(89,354,o),
(21,265,o),
(3,164,cs),
(-10,88,o),
(31,0,o),
(105,0,cs),
(214,0,o),
(275,91,o),
(296,170,cs),
(316,248,o),
(301,354,o),
(204,354,cs)
);
},
{
closed = 1;
nodes = (
(228,264,o),
(236,217,o),
(226,183,cs),
(213,138,o),
(184,90,o),
(135,90,cs),
(102,90,o),
(97,129,o),
(105,178,cs),
(113,216,o),
(139,264,o),
(182,264,cs)
);
}
);
width = 490;
}
);
metricLeft = o;
},
{
glyphname = f.ss01;
lastChange = "2022-03-24 00:49:53 +0000";
layers = (
{
layerId = m01;
shapes = (
{
closed = 1;
nodes = (
(225,305,o),
(231,316,o),
(231,328,cs),
(231,340,o),
(225,350,o),
(205,350,cs),
(11,350,ls),
(-9,350,o),
(-15,340,o),
(-15,328,cs),
(-15,316,o),
(-9,305,o),
(11,305,cs),
(205,305,ls)
);
},
{
closed = 1;
nodes = (
(-22,-87,ls),
(-34,-135,o),
(-53,-199,o),
(-86,-226,cs),
(-107,-243,o),
(-136,-250,o),
(-160,-250,cs),
(-189,-250,o),
(-199,-240,o),
(-211,-231,cs),
(-223,-222,o),
(-236,-220,o),
(-247,-229,cs),
(-258,-238,o),
(-261,-253,o),
(-249,-263,cs),
(-230,-280,o),
(-210,-300,o),
(-164,-300,cs),
(-123,-300,o),
(-85,-289,o),
(-56,-267,cs),
(-15,-235,o),
(11,-164,o),
(29,-91,cs),
(180,514,ls),
(190,554,o),
(221,604,o),
(254,604,cs),
(275,604,o),
(294,597,o),
(308,560,cs),
(314,545,o),
(327,539,o),
(341,545,cs),
(356,551,o),
(352,573,o),
(346,589,cs),
(331,630,o),
(295,650,o),
(258,650,cs),
(208,650,o),
(153,611,o),
(131,524,cs)
);
}
);
width = 238;
},
{
layerId = m002;
shapes = (
{
closed = 1;
nodes = (
(241,263,o),
(259,283,o),
(259,307,cs),
(259,332,o),
(241,350,o),
(210,350,cs),
(40,350,ls),
(8,350,o),
(-10,332,o),
(-10,307,cs),
(-10,283,o),
(8,263,o),
(40,263,cs),
(210,263,ls)
);
},
{
closed = 1;
nodes = (
(-21,-50,ls),
(-31,-92,o),
(-59,-178,o),
(-78,-193,cs),
(-97,-207,o),
(-120,-210,o),
(-137,-210,cs),
(-154,-210,o),
(-166,-208,o),
(-180,-197,cs),
(-193,-186,o),
(-221,-183,o),
(-239,-199,cs),
(-261,-219,o),
(-263,-245,o),
(-240,-264,cs),
(-222,-280,o),
(-188,-300,o),
(-143,-300,cs),
(-100,-300,o),
(-50,-291,o),
(-22,-269,cs),
(36,-225,o),
(62,-131,o),
(78,-65,cs),
(219,501,ls),
(227,533,o),
(244,561,o),
(263,561,cs),
(278,561,o),
(297,561,o),
(306,539,cs),
(317,513,o),
(346,502,o),
(370,512,cs),
(400,523,o),
(400,553,o),
(390,580,cs),
(373,626,o),
(324,650,o),
(279,650,cs),
(205,650,o),
(143,608,o),
(121,521,cs)
);
}
);
width = 269;
}
);
},
{
glyphname = h.ss01;
lastChange = "2022-03-24 00:59:23 +0000";
layers = (
{
layerId = m01;
shapes = (
{
closed = 1;
nodes = (
(189,155,ls),
(172,86,o),
(166,0,o),
(236,0,cs),
(278,0,o),
(311,47,o),
(335,77,cs),
(355,103,o),
(358,109,o),
(359,117,cs),
(360,132,o),
(349,141,o),
(338,143,cs),
(326,145,o),
(318,134,o),
(316,131,cs),
(301,110,ls),
(286,89,o),
(255,46,o),
(238,46,cs),
(219,46,o),
(230,117,o),
(234,133,cs),
(247,183,ls),
(267,258,o),
(258,354,o),
(181,354,cs),
(118,354,o),
(78,292,o),
(46,243,c),
(12,97,l),
(40,153,o),
(131,309,o),
(169,309,cs),
(221,309,o),
(207,229,o),
(197,188,cs)
);
},
{
closed = 1;
nodes = (
(159,638,o),
(155,650,o),
(136,650,cs),
(119,650,o),
(109,643,o),
(104,625,cs),
(-44,35,ls),
(-48,18,o),
(-48,0,o),
(-26,0,cs),
(-1,0,o),
(3,14,o),
(7,32,cs),
(155,622,ls)
);
}
);
width = 402;
},
{
layerId = m002;
shapes = (
{
closed = 1;
nodes = (
(218,165,ls),
(199,89,o),
(209,0,o),
(288,0,cs),
(334,0,o),
(377,19,o),
(403,54,cs),
(422,79,o),
(438,112,o),
(439,126,cs),
(440,142,o),
(427,158,o),
(413,164,cs),
(402,169,o),
(384,172,o),
(372,155,cs),
(358,135,ls),
(351,125,o),
(324,91,o),
(315,91,cs),
(305,91,o),
(306,106,o),
(319,157,cs),
(326,184,ls),
(347,265,o),
(326,354,o),
(233,354,cs),
(179,354,o),
(140,322,o),
(108,285,c),
(68,99,l),
(114,164,o),
(189,265,o),
(218,265,cs),
(242,265,o),
(234,229,o),
(224,189,cs)
);
},
{
closed = 1;
nodes = (
(211,633,o),
(187,650,o),
(163,650,cs),
(136,650,o),
(111,640,o),
(104,611,cs),
(-32,59,ls),
(-40,27,o),
(-25,0,o),
(8,0,cs),
(47,0,o),
(60,24,o),
(65,44,cs),
(202,597,ls)
);
}
);
width = 476;
}
);
metricLeft = n;
metricRight = a.ss01;
},
{
glyphname = i.ss01;
lastChange = "2022-03-24 00:59:28 +0000";
layers = (
{
layerId = m01;
shapes = (
{
closed = 1;
nodes = (
(107,441,o),
(120,454,o),
(120,468,cs),
(120,483,o),
(106,494,o),
(92,494,cs),
(76,494,o),
(65,481,o),
(65,468,cs),
(65,454,o),
(77,441,o),
(92,441,cs)
);
},
{
closed = 1;
nodes = (
(-13,155,ls),
(-30,88,o),
(-35,0,o),
(35,0,cs),
(77,0,o),
(110,47,o),
(134,77,cs),
(154,103,o),
(157,109,o),
(158,117,cs),
(159,132,o),
(148,141,o),
(137,143,cs),
(125,145,o),
(117,134,o),
(115,131,cs),
(100,110,ls),
(85,89,o),
(54,46,o),
(37,46,cs),
(18,46,o),
(29,117,o),
(33,133,cs),
(81,322,ls),
(85,338,o),
(81,350,o),
(64,350,cs),
(45,350,o),
(35,343,o),
(30,325,cs)
);
}
);
width = 201;
},
{
layerId = m002;
shapes = (
{
closed = 1;
nodes = (
(147,422,o),
(172,443,o),
(172,470,cs),
(172,499,o),
(143,516,o),
(120,516,cs),
(92,516,o),
(70,495,o),
(70,470,cs),
(70,443,o),
(93,422,o),
(120,422,cs)
);
},
{
closed = 1;
nodes = (
(-6,167,ls),
(-25,87,o),
(-18,0,o),
(61,0,cs),
(107,0,o),
(150,19,o),
(176,54,cs),
(195,79,o),
(211,112,o),
(212,126,cs),
(213,142,o),
(200,158,o),
(186,164,cs),
(175,169,o),
(157,172,o),
(145,155,cs),
(131,135,ls),
(124,125,o),
(97,91,o),
(88,91,cs),
(78,91,o),
(79,107,o),
(92,158,cs),
(127,297,ls),
(137,335,o),
(112,350,o),
(88,350,cs),
(61,350,o),
(36,338,o),
(29,311,cs)
);
}
);
width = 249;
}
);
metricLeft = n;
metricRight = a.ss01;
},
{
glyphname = k.ss01;
lastChange = "2022-03-24 01:04:15 +0000";
layers = (
{
layerId = m01;
shapes = (
{
closed = 1;
nodes = (
(38,201,l),
(57,218,o),
(102,257,o),
(119,271,cs),
(140,289,o),
(165,308,o),
(185,308,cs),
(204,308,o),
(216,290,o),
(211,266,cs),
(202,222,o),
(173,204,o),
(140,204,cs),
(110,204,o),
(72,261,o),
(61,279,c),
(50,219,l),
(66,183,o),
(111,159,o),
(140,158,cs),
(196,156,o),
(248,190,o),
(260,258,cs),
(266,292,o),
(249,354,o),
(192,354,cs),
(149,354,o),
(105,319,o),
(87,304,cs),
(65,285,l)
);
},
{
closed = 1;
nodes = (
(159,638,o),
(155,649,o),
(138,650,cs),
(119,651,o),
(109,643,o),
(104,625,cs),
(-44,35,ls),
(-48,18,o),
(-48,0,o),
(-26,0,cs),
(-1,0,o),
(3,14,o),
(7,32,cs),
(155,622,ls)
);
},
{
closed = 1;
nodes = (
(157,12,o),
(172,0,o),
(196,0,cs),
(238,0,o),
(271,47,o),
(295,77,cs),
(315,103,o),
(318,109,o),
(319,117,cs),
(320,132,o),
(309,141,o),
(298,143,cs),
(286,145,o),
(278,134,o),
(276,131,cs),
(261,110,ls),
(246,89,o),
(215,46,o),
(198,46,cs),
(195,46,o),
(193,48,o),
(191,51,cs),
(103,197,l),
(46,233,l),
(40,211,l),
(148,27,ls)
);
}
);
width = 362;
},
{
layerId = m002;
shapes = (
{
closed = 1;
nodes = (
(58,144,l),
(113,199,o),
(165,239,o),
(176,248,cs),
(193,261,o),
(209,266,o),
(217,266,cs),
(223,266,o),
(228,262,o),
(223,245,cs),
(218,225,o),
(199,220,o),
(184,220,cs),
(167,220,o),
(142,227,o),
(94,304,c),
(72,208,l),
(86,164,o),
(140,134,o),
(177,132,cs),
(238,130,o),
(298,168,o),
(310,240,cs),
(319,284,o),
(292,352,o),
(224,352,cs),
(173,352,o),
(126,313,o),
(113,301,cs),
(89,280,l)
);
},
{
closed = 1;
nodes = (
(213,633,o),
(188,648,o),
(164,650,cs),
(137,652,o),
(111,640,o),
(104,611,cs),
(-32,59,ls),
(-40,27,o),
(-24,3,o),
(9,0,cs),
(48,-2,o),
(62,24,o),
(67,44,cs),
(204,597,ls)
);
},
{
closed = 1;
nodes = (
(172,11,o),
(189,0,o),
(218,0,cs),
(264,0,o),
(307,19,o),
(333,54,cs),
(352,79,o),
(368,112,o),
(369,126,cs),
(370,142,o),
(357,158,o),
(343,164,cs),
(332,169,o),
(314,172,o),
(302,155,cs),
(288,135,ls),
(281,125,o),
(254,91,o),
(245,91,cs),
(242,91,o),
(241,92,o),
(239,95,cs),
(172,211,l),
(88,256,l),
(68,192,l),
(162,30,ls)
);
}
);
width = 406;
}
);
metricLeft = n;
metricRight = a.ss01;
},
{
glyphname = l.ss01;
lastChange = "2022-03-24 01:06:09 +0000";
layers = (
{
layerId = m01;
shapes = (
{
closed = 1;
nodes = (
(-14,155,ls),
(-31,88,o),
(-36,0,o),
(34,0,cs),
(76,0,o),
(109,47,o),
(133,77,cs),
(153,103,o),
(156,109,o),
(157,117,cs),
(158,132,o),
(147,141,o),
(136,143,cs),
(124,145,o),
(116,134,o),
(114,131,cs),
(99,110,ls),
(84,89,o),
(53,46,o),
(36,46,cs),
(17,46,o),
(28,117,o),
(32,133,cs),
(155,622,ls),
(159,638,o),
(155,650,o),
(138,650,cs),
(119,650,o),
(109,643,o),
(104,625,cs)
);
}
);
width = 200;
},
{
layerId = m002;
shapes = (
{
closed = 1;
nodes = (
(-6,167,ls),
(-26,87,o),
(-18,0,o),
(61,0,cs),
(107,0,o),
(150,19,o),
(176,54,cs),
(195,79,o),
(211,112,o),
(212,126,cs),
(213,142,o),
(200,158,o),
(186,164,cs),
(175,169,o),
(157,172,o),
(145,155,cs),
(131,135,ls),
(124,125,o),
(97,91,o),
(88,91,cs),
(78,91,o),
(79,107,o),
(92,158,cs),
(202,597,ls),
(212,635,o),
(187,650,o),
(163,650,cs),
(136,650,o),
(111,638,o),
(104,611,cs)
);
}
);
width = 249;
}
);
metricLeft = n;
metricRight = a.ss01;
},
{
glyphname = m.ss01;
lastChange = "2022-03-24 01:08:12 +0000";
layers = (
{
layerId = m01;
shapes = (
{
closed = 1;
nodes = (
(40,153,o),
(131,307,o),
(169,307,cs),
(221,307,o),
(207,229,o),
(197,188,cs),
(158,34,ls),
(154,17,o),
(154,-1,o),
(176,-1,cs),
(201,-1,o),
(204,13,o),
(209,31,cs),
(247,183,ls),
(266,258,o),
(258,353,o),
(181,353,cs),
(118,353,o),
(78,292,o),
(46,243,c),
(12,97,l)
);
},
{
closed = 1;
nodes = (
(84,338,o),
(80,349,o),
(63,350,cs),
(44,351,o),
(34,343,o),
(29,325,cs),
(-44,35,ls),
(-48,18,o),
(-48,0,o),
(-26,0,cs),
(-1,0,o),
(2,14,o),
(7,32,cs),
(80,322,ls)
);
},
{
closed = 1;
nodes = (
(395,155,ls),
(378,86,o),
(372,0,o),
(442,0,cs),
(484,0,o),
(517,47,o),
(541,77,cs),
(561,103,o),
(564,109,o),
(565,117,cs),
(566,132,o),
(555,141,o),
(544,143,cs),
(532,145,o),
(524,134,o),
(522,131,cs),
(507,110,ls),
(492,89,o),
(461,46,o),
(444,46,cs),
(425,46,o),
(436,117,o),
(440,133,cs),
(453,183,ls),
(473,258,o),
(464,354,o),
(387,354,cs),
(324,354,o),
(284,292,o),
(252,243,c),
(218,97,l),
(246,153,o),
(337,309,o),
(375,309,cs),
(427,309,o),
(413,229,o),
(403,188,cs)
);
}
);
width = 608;
},
{
layerId = m002;
shapes = (
{
closed = 1;
nodes = (
(113,164,o),
(188,264,o),
(217,264,cs),
(241,264,o),
(233,230,o),
(223,189,cs),
(187,46,ls),
(180,18,o),
(206,0,o),
(228,0,cs),
(253,0,o),
(282,14,o),
(289,43,cs),
(325,184,ls),
(345,264,o),
(325,354,o),
(232,354,cs),
(178,354,o),
(139,322,o),
(107,285,c),
(67,99,l)
);
},
{
closed = 1;
nodes = (
(136,333,o),
(112,348,o),
(88,350,cs),
(61,352,o),
(36,340,o),
(29,311,cs),
(-33,59,ls),
(-41,27,o),
(-26,3,o),
(7,0,cs),
(46,-2,o),
(59,24,o),
(64,44,cs),
(127,297,ls)
);
},
{
closed = 1;
nodes = (
(442,165,ls),
(423,89,o),
(433,0,o),
(512,0,cs),
(558,0,o),
(601,19,o),
(627,54,cs),
(646,79,o),
(662,112,o),
(663,126,cs),
(664,142,o),
(651,158,o),
(637,164,cs),
(626,169,o),
(608,172,o),
(596,155,cs),
(582,135,ls),
(575,125,o),
(548,91,o),
(539,91,cs),
(529,91,o),
(530,106,o),
(543,157,cs),
(550,184,ls),
(571,265,o),
(550,354,o),
(457,354,cs),
(403,354,o),
(355,313,o),
(323,276,c),
(292,99,l),
(338,164,o),
(413,265,o),
(442,265,cs),
(466,265,o),
(458,229,o),
(448,189,cs)
);
}
);
width = 700;
}
);
metricLeft = n;
metricRight = a.ss01;
},
{
glyphname = n.ss01;
lastChange = "2022-03-24 01:09:34 +0000";
layers = (
{
layerId = m01;
shapes = (
{
closed = 1;
nodes = (
(84,338,o),
(80,349,o),
(63,350,cs),
(44,351,o),
(34,343,o),
(29,325,cs),
(-44,35,ls),
(-48,18,o),
(-48,0,o),
(-26,0,cs),
(-1,0,o),
(2,14,o),
(7,32,cs),
(80,322,ls)
);
},
{
closed = 1;
nodes = (
(189,155,ls),
(172,86,o),
(166,0,o),
(236,0,cs),
(278,0,o),
(311,47,o),
(335,77,cs),
(355,103,o),
(358,109,o),
(359,117,cs),
(360,132,o),
(349,141,o),
(338,143,cs),
(326,145,o),
(318,134,o),
(316,131,cs),
(301,110,ls),
(286,89,o),
(255,46,o),
(238,46,cs),
(219,46,o),
(230,117,o),
(234,133,cs),
(247,183,ls),
(267,258,o),
(258,354,o),
(181,354,cs),
(118,354,o),
(78,292,o),
(46,243,c),
(12,97,l),
(40,153,o),
(131,309,o),
(169,309,cs),
(221,309,o),
(207,229,o),
(197,188,cs)
);
}
);
width = 402;
},
{
layerId = m002;
shapes = (
{
closed = 1;
nodes = (
(136,333,o),
(112,348,o),
(88,350,cs),
(61,352,o),
(36,340,o),
(29,311,cs),
(-33,59,ls),
(-41,27,o),
(-26,3,o),
(7,0,cs),
(46,-2,o),
(59,24,o),
(64,44,cs),
(127,297,ls)
);
},
{
closed = 1;
nodes = (
(218,165,ls),
(199,89,o),
(209,0,o),
(288,0,cs),
(334,0,o),
(377,19,o),
(403,54,cs),
(422,79,o),
(438,112,o),
(439,126,cs),
(440,142,o),
(427,158,o),
(413,164,cs),
(402,169,o),
(384,172,o),
(372,155,cs),
(358,135,ls),
(351,125,o),
(324,91,o),
(315,91,cs),
(305,91,o),
(306,106,o),
(319,157,cs),
(326,184,ls),
(347,265,o),
(326,354,o),
(233,354,cs),
(179,354,o),
(140,322,o),
(108,285,c),
(68,99,l),
(114,164,o),
(189,265,o),
(218,265,cs),
(242,265,o),
(234,229,o),
(224,189,cs)
);
}
);
width = 476;
}
);
metricRight = a.ss01;
},
{
glyphname = o.ss01;
lastChange = "2022-03-24 04:11:16 +0000";
layers = (
{
layerId = m01;
shapes = (
{
closed = 1;
nodes = (
(73,354,o),
(17,275,o),
(-12,160,cs),
(-31,84,o),
(1,0,o),
(74,0,cs),
(160,0,o),
(209,93,o),
(229,170,cs),
(249,248,o),
(246,354,o),
(163,354,cs)
);
},
{
closed = 1;
nodes = (
(206,308,o),
(190,221,o),
(180,182,cs),
(167,129,o),
(125,45,o),
(86,45,cs),
(30,45,o),
(27,113,o),
(42,173,cs),
(56,230,o),
(105,308,o),
(152,308,cs)
);
},
{
closed = 1;
nodes = (
(226,279,l),
(237,279,o),
(259,283,o),
(277,294,cs),
(293,303,o),
(307,318,o),
(305,334,cs),
(303,355,o),
(278,354,o),
(258,340,cs),
(251,335,o),
(242,327,o),
(232,327,cs),
(221,327,o),
(212,336,o),
(200,344,c)
);
}
);
width = 286;
},
{
layerId = m002;
shapes = (
{
closed = 1;
nodes = (
(88,354,o),
(21,265,o),
(3,164,cs),
(-10,88,o),
(30,-1,o),
(104,-1,cs),
(213,-1,o),
(274,91,o),
(295,170,cs),
(315,248,o),
(300,354,o),
(203,354,cs)
);
},
{
closed = 1;
nodes = (
(213,264,o),
(206,217,o),
(196,183,cs),
(183,138,o),
(157,89,o),
(125,89,cs),
(101,89,o),
(96,129,o),
(104,178,cs),
(112,216,o),
(138,264,o),
(181,264,cs)
);
},
{
closed = 1;
nodes = (
(268,238,l),
(279,238,o),
(301,242,o),
(319,253,cs),
(335,262,o),
(376,287,o),
(367,317,cs),
(354,360,o),
(328,353,o),
(308,339,cs),
(301,334,o),
(290,328,o),
(280,328,cs),
(264,328,o),
(254,343,o),
(226,351,c)
);
}
);
width = 343;
}
);
},
{
glyphname = r.ss01;
lastChange = "2022-03-24 01:16:30 +0000";
layers = (
{
layerId = m01;
shapes = (
{
closed = 1;
nodes = (
(84,338,o),
(80,349,o),
(63,350,cs),
(44,351,o),
(34,343,o),
(29,325,cs),
(-44,35,ls),
(-48,18,o),
(-48,0,o),
(-26,0,cs),
(-1,0,o),
(2,14,o),
(7,32,cs),
(80,322,ls)
);
},
{
closed = 1;
nodes = (
(75,206,ls),
(83,220,o),
(122,274,o),
(143,292,cs),
(154,302,o),
(163,307,o),
(170,307,cs),
(184,307,o),
(196,278,o),
(226,278,cs),
(237,278,o),
(259,282,o),
(277,293,cs),
(293,302,o),
(307,317,o),
(305,333,cs),
(303,354,o),
(278,353,o),
(258,339,cs),
(251,334,o),
(237,326,o),
(227,326,cs),
(208,326,o),
(211,354,o),
(178,354,cs),
(163,354,o),
(146,348,o),
(130,338,cs),
(107,323,o),
(83,297,o),
(75,285,cs),
(46,243,l),
(15,107,l)
);
}
);
width = 295;
},
{
layerId = m002;
shapes = (
{
closed = 1;
nodes = (
(136,333,o),
(112,348,o),
(88,350,cs),
(61,352,o),
(36,340,o),
(29,311,cs),
(-33,59,ls),
(-41,27,o),
(-26,3,o),
(7,0,cs),
(46,-2,o),
(59,24,o),
(64,44,cs),
(127,297,ls)
);
},
{
closed = 1;
nodes = (
(122,175,ls),
(133,191,o),
(159,223,o),
(178,242,cs),
(188,252,o),
(203,266,o),
(214,266,cs),
(228,266,o),
(231,238,o),
(261,238,cs),
(272,238,o),
(294,242,o),
(312,253,cs),
(328,262,o),
(369,287,o),
(360,317,cs),
(347,360,o),
(313,353,o),
(293,339,cs),
(286,334,o),
(272,326,o),
(262,326,cs),
(243,326,o),
(251,354,o),
(218,354,cs),
(203,354,o),
(180,345,o),
(165,335,cs),
(151,326,o),
(140,319,o),
(110,289,cs),
(107,286,l),
(68,101,l)
);
}
);
width = 353;
}
);
metricLeft = n;
metricRight = a.ss01;
},
{
glyphname = t.ss01;
lastChange = "2022-03-24 01:21:33 +0000";
layers = (
{
layerId = m01;
shapes = (
{
closed = 1;
nodes = (
(243,305,o),
(249,316,o),
(249,328,cs),
(249,340,o),
(243,350,o),
(223,350,cs),
(10,350,ls),
(-10,350,o),
(-16,340,o),
(-16,328,cs),
(-16,316,o),
(-10,305,o),
(10,305,cs),
(223,305,ls)
);
},
{
closed = 1;
nodes = (
(49,154,ls),
(33,89,o),
(27,0,o),
(97,0,cs),
(139,0,o),
(172,47,o),
(196,77,cs),
(216,103,o),
(219,109,o),
(220,117,cs),
(221,132,o),
(210,141,o),
(199,143,cs),
(187,145,o),
(179,134,o),
(177,131,cs),
(162,110,ls),
(147,89,o),
(116,46,o),
(99,46,cs),
(80,46,o),
(92,119,o),
(96,135,cs),
(194,534,ls),
(198,552,o),
(185,563,o),
(171,564,cs),
(160,565,o),
(149,558,o),
(146,545,cs)
);
}
);
width = 263;
},
{
layerId = m002;
shapes = (
{
closed = 1;
nodes = (
(250,267,o),
(268,287,o),
(268,311,cs),
(268,336,o),
(250,354,o),
(219,354,cs),
(32,354,ls),
(1,354,o),
(-18,336,o),
(-18,311,cs),
(-18,287,o),
(1,267,o),
(32,267,cs),
(219,267,ls)
);
},
{
closed = 1;
nodes = (
(38,167,ls),
(18,87,o),
(29,0,o),
(108,0,cs),
(154,0,o),
(197,19,o),
(223,54,cs),
(242,79,o),
(258,112,o),
(259,126,cs),
(260,142,o),
(247,158,o),
(233,164,cs),
(222,169,o),
(204,172,o),
(192,155,cs),
(178,135,ls),
(171,125,o),
(144,91,o),
(135,91,cs),
(125,91,o),
(126,107,o),
(139,158,cs),
(227,513,ls),
(235,546,o),
(210,562,o),
(183,564,cs),
(161,566,o),
(134,551,o),
(128,528,cs)
);
}
);
width = 296;
}
);
metricRight = a.ss01;
},
{
glyphname = u.ss01;
lastChange = "2022-03-24 01:22:57 +0000";
layers = (
{
layerId = m01;
shapes = (
{
closed = 1;
nodes = (
(196,197,o),
(105,43,o),
(67,43,cs),
(15,43,o),
(29,121,o),
(39,162,cs),
(78,316,ls),
(82,333,o),
(82,351,o),
(60,351,cs),
(35,351,o),
(32,337,o),
(27,319,cs),
(-11,167,ls),
(-30,92,o),
(-22,-3,o),
(55,-3,cs),
(118,-3,o),
(158,58,o),
(190,107,c),
(224,253,l)
);
},
{
closed = 1;
nodes = (
(188,155,ls),
(171,88,o),
(166,0,o),
(236,0,cs),
(278,0,o),
(311,47,o),
(335,77,cs),
(355,103,o),
(358,109,o),
(359,117,cs),
(360,132,o),
(349,141,o),
(338,143,cs),
(326,145,o),
(318,134,o),
(316,131,cs),
(301,110,ls),
(286,89,o),
(255,46,o),
(238,46,cs),
(219,46,o),
(230,117,o),
(234,133,cs),
(282,322,ls),
(286,338,o),
(282,350,o),
(265,350,cs),
(246,350,o),
(236,343,o),
(231,325,cs)
);
}
);
width = 402;
},
{
layerId = m002;
shapes = (
{
closed = 1;
nodes = (
(205,186,o),
(130,86,o),
(101,86,cs),
(77,86,o),
(85,120,o),
(95,161,cs),
(131,304,ls),
(138,332,o),
(112,350,o),
(90,350,cs),
(65,350,o),
(36,336,o),
(29,307,cs),
(-7,166,ls),
(-27,86,o),
(-7,-4,o),
(86,-4,cs),
(140,-4,o),
(179,28,o),
(211,65,c),
(251,251,l)
);
},
{
closed = 1;
nodes = (
(220,167,ls),
(201,87,o),
(208,0,o),
(287,0,cs),
(333,0,o),
(376,19,o),
(402,54,cs),
(421,79,o),
(437,112,o),
(438,126,cs),
(439,142,o),
(426,158,o),
(412,164,cs),
(401,169,o),
(383,172,o),
(371,155,cs),
(357,135,ls),
(350,125,o),
(323,91,o),
(314,91,cs),
(304,91,o),
(305,107,o),
(318,158,cs),
(353,297,ls),
(363,335,o),
(338,350,o),
(314,350,cs),
(287,350,o),
(262,338,o),
(255,311,cs)
);
}
);
width = 475;
}
);
metricLeft = n;
metricRight = a.ss01;
},
{
glyphname = v.ss01;
lastChange = "2022-03-24 01:25:43 +0000";
layers = (
{
layerId = m01;
shapes = (
{
closed = 1;
nodes = (
(264,345,l),
(256,350,o),
(246,351,o),
(240,349,cs),
(233,346,o),
(228,341,o),
(224,334,cs),
(90,75,l),
(89,0,l),
(105,0,o),
(110,4,o),
(116,16,cs),
(272,318,l)
);
},
{
closed = 1;
nodes = (
(87,350,o),
(68,352,o),
(56,348,cs),
(42,343,o),
(38,330,o),
(39,320,cs),
(64,19,ls),
(65,6,o),
(76,0,o),
(90,0,c),
(109,75,l),
(89,328,ls)
);
},
{
closed = 1;
nodes = (
(258,305,l),
(304,305,ls),
(324,305,o),
(330,316,o),
(330,328,cs),
(330,340,o),
(324,350,o),
(304,350,cs),
(247,350,l)
);
}
);
width = 321;
},
{
layerId = m002;
shapes = (
{
closed = 1;
nodes = (
(281,337,l),
(258,352,o),
(238,352,o),
(225,348,cs),
(212,343,o),
(202,335,o),
(196,323,cs),
(78,95,l),
(107,0,l),
(125,0,o),
(142,8,o),
(152,27,cs),
(288,289,l)
);
},
{
closed = 1;
nodes = (
(128,345,o),
(91,357,o),
(64,347,cs),
(41,338,o),
(32,318,o),
(34,298,cs),
(55,39,ls),
(57,18,o),
(79,0,o),
(109,0,c),
(149,88,l),
(131,309,ls)
);
},
{
closed = 1;
nodes = (
(255,263,l),
(316,263,ls),
(347,263,o),
(365,283,o),
(365,307,cs),
(365,332,o),
(347,350,o),
(316,350,cs),
(241,350,l)
);
}
);
width = 358;
}
);
metricRight = a.ss01;
},
{
glyphname = w.ss01;
lastChange = "2022-03-24 01:27:28 +0000";
layers = (
{
layerId = m01;
shapes = (
{
closed = 1;
nodes = (
(283,350,l),
(270,350,o),
(263,344,o),
(257,334,cs),
(93,72,l),
(89,0,l),
(105,0,o),
(110,4,o),
(117,16,cs),
(279,276,l)
);
},
{
closed = 1;
nodes = (
(87,350,o),
(68,352,o),
(56,348,cs),
(42,343,o),
(38,330,o),
(39,320,cs),
(65,18,ls),
(66,5,o),
(76,0,o),
(90,0,c),
(110,74,l),
(89,328,ls)
);
},
{
closed = 1;
nodes = (
(542,322,o),
(543,336,o),
(533,344,cs),
(524,351,o),
(513,351,o),
(507,349,cs),
(500,346,o),
(495,341,o),
(491,334,cs),
(326,72,l),
(323,0,l),
(339,0,o),
(344,4,o),
(351,16,cs),
(537,314,ls)
);
},
{
closed = 1;
nodes = (
(304,344,o),
(292,350,o),
(282,350,c),
(263,277,l),
(299,18,ls),
(301,5,o),
(310,0,o),
(324,0,c),
(342,74,l),
(306,328,ls)
);
},
{
closed = 1;
nodes = (
(528,305,l),
(574,305,ls),
(594,305,o),
(600,316,o),
(600,328,cs),
(600,340,o),
(594,350,o),
(574,350,cs),
(517,350,l)
);
}
);
width = 591;
},
{
layerId = m002;
shapes = (
{
closed = 1;
nodes = (
(279,350,l),
(256,350,o),
(238,344,o),
(227,327,cs),
(80,94,l),
(92,0,l),
(119,0,o),
(141,10,o),
(151,25,cs),
(297,259,l)
);
},
{
closed = 1;
nodes = (
(128,348,o),
(86,355,o),
(64,347,cs),
(41,337,o),
(31,317,o),
(33,298,cs),
(56,38,ls),
(59,8,o),
(78,0,o),
(93,0,c),
(149,87,l),
(131,309,ls)
);
},
{
closed = 1;
nodes = (
(531,306,o),
(529,325,o),
(511,337,cs),
(490,351,o),
(468,352,o),
(456,347,cs),
(446,343,o),
(436,334,o),
(429,323,cs),
(284,94,l),
(318,0,l),
(335,0,o),
(344,5,o),
(356,25,cs),
(522,292,ls)
);
},
{
closed = 1;
nodes = (
(317,344,o),
(295,350,o),
(277,350,c),
(229,267,l),
(261,38,ls),
(265,8,o),
(291,0,o),
(320,0,c),
(352,88,l),
(321,314,ls)
);
},
{
closed = 1;
nodes = (
(490,263,l),
(551,263,ls),
(582,263,o),
(600,283,o),
(600,307,cs),
(600,332,o),
(582,350,o),
(551,350,cs),
(476,350,l)
);
}
);
width = 593;
}
);
metricRight = a.ss01;
},
{
glyphname = zero;
lastChange = "2022-03-17 23:46:06 +0000";
layers = (
{
layerId = m01;
shapes = (
{
closed = 1;
nodes = (
(273,-4,o),
(381,230,o),
(411,357,cs),
(440,477,o),
(393,568,o),
(287,568,cs),
(114,568,o),
(50,277,o),
(29,194,cs),
(1,81,o),
(57,-4,o),
(144,-4,cs)
);
},
{
closed = 1;
nodes = (
(100,42,o),
(53,84,o),
(79,189,cs),
(102,279,o),
(168,522,o),
(289,522,cs),
(354,522,o),
(387,465,o),
(361,360,cs),
(325,218,o),
(214,42,o),
(143,42,cs)
);
}
);
width = 441;
},
{
layerId = m002;
shapes = (
{
closed = 1;
nodes = (
(302,-5,o),
(451,236,o),
(451,399,cs),
(451,469,o),
(420,568,o),
(305,568,cs),
(116,568,o),
(22,278,o),
(22,168,cs),
(22,92,o),
(61,-7,o),
(149,-6,cs)
);
},
{
closed = 1;
nodes = (
(153,87,o),
(121,108,o),
(121,164,cs),
(121,269,o),
(207,475,o),
(307,475,cs),
(343,475,o),
(351,449,o),
(351,401,cs),
(351,242,o),
(224,87,o),
(179,87,cs)
);
}
);
width = 473;
}
);
unicode = 48;
},
{
glyphname = one;
lastChange = "2022-03-17 23:46:06 +0000";
layers = (
{
layerId = m01;
shapes = (
{
closed = 1;
nodes = (
(267,559,o),
(257,568,o),
(244,568,cs),
(231,568,o),
(216,563,o),
(212,547,cs),
(83,30,ls),
(78,10,o),
(90,0,o),
(103,0,cs),
(115,0,o),
(129,6,o),
(133,22,cs),
(263,543,ls)
);
}
);
width = 361;
},
{
layerId = m002;
shapes = (
{
closed = 1;
nodes = (
(296,546,o),
(273,566,o),
(246,568,cs),
(223,570,o),
(197,557,o),
(190,530,cs),
(71,55,ls),
(63,25,o),
(86,2,o),
(114,0,cs),
(136,-1,o),
(160,11,o),
(167,38,cs),
(288,516,ls)
);
}
);
width = 372;
}
);
unicode = 49;
},
{
glyphname = two;
lastChange = "2022-03-17 23:46:06 +0000";
layers = (
{
layerId = m01;
shapes = (
{
closed = 1;
nodes = (
(72,49,l),
(138,113,o),
(291,263,o),
(304,278,cs),
(429,431,o),
(440,501,o),
(361,549,cs),
(292,591,o),
(173,558,o),
(110,505,cs),
(86,485,o),
(90,472,o),
(98,463,cs),
(106,454,o),
(122,451,o),
(147,471,cs),
(199,513,o),
(295,531,o),
(338,505,cs),
(388,475,o),
(335,393,o),
(283,332,cs),
(257,301,o),
(130,177,o),
(-14,35,cs),
(-33,16,o),
(-20,0,o),
(2,0,c),
(23,0,l)
);
},
{
closed = 1;
nodes = (
(276,0,ls),
(296,0,o),
(302,13,o),
(302,25,cs),
(302,37,o),
(296,50,o),
(276,50,cs),
(21,50,l),
(21,0,l)
);
}
);
width = 426;
},
{
layerId = m002;
shapes = (
{
closed = 1;
nodes = (
(122,50,l),
(176,109,o),
(319,263,o),
(330,275,cs),
(449,420,o),
(459,494,o),
(371,547,cs),
(300,592,o),
(181,558,o),
(121,507,cs),
(91,482,o),
(87,458,o),
(107,436,cs),
(119,422,o),
(150,412,o),
(187,440,cs),
(228,474,o),
(293,486,o),
(323,468,cs),
(345,456,o),
(314,401,o),
(268,352,cs),
(244,326,o),
(126,198,o),
(5,69,cs),
(-29,33,o),
(1,-2,o),
(39,-2,cs),
(69,-2,l)
);
},
{
closed = 1;
nodes = (
(277,-2,ls),
(308,-2,o),
(327,19,o),
(327,44,cs),
(327,68,o),
(308,90,o),
(277,90,cs),
(151,90,l),
(62,-2,l)
);
}
);
width = 449;
}
);
unicode = 50;
},
{
glyphname = three;
lastChange = "2022-03-17 23:46:06 +0000";
layers = (
{
layerId = m01;
shapes = (
{
closed = 1;
nodes = (
(153,295,o),
(185,301,o),
(213,301,cs),
(258,301,o),
(283,249,o),
(273,208,cs),
(249,110,o),
(185,47,o),
(97,47,cs),
(73,47,o),
(51,53,o),
(34,66,cs),
(10,84,o),
(-4,72,o),
(-9,65,cs),
(-14,58,o),
(-19,45,o),
(6,25,cs),
(30,5,o),
(62,-4,o),
(96,-4,cs),
(210,-4,o),
(291,82,o),
(323,209,cs),
(341,281,o),
(277,350,o),
(208,350,cs),
(172,350,o),
(135,344,o),
(95,324,c),
(111,275,l)
);
},
{
closed = 1;
nodes = (
(383,568,l),
(136,568,ls),
(116,568,o),
(110,555,o),
(110,543,cs),
(110,531,o),
(116,518,o),
(136,518,cs),
(336,518,l)
);
},
{
closed = 1;
nodes = (
(403,530,o),
(407,538,o),
(407,545,cs),
(407,551,o),
(405,557,o),
(400,562,cs),
(395,567,o),
(388,568,o),
(381,568,cs),
(374,567,o),
(367,563,o),
(362,559,cs),
(76,311,ls),
(68,304,o),
(67,295,o),
(68,288,cs),
(69,283,o),
(72,278,o),
(76,273,cs),
(80,269,o),
(85,267,o),
(92,267,cs),
(100,267,o),
(108,272,o),
(113,277,cs),
(398,526,ls)
);
}
);
width = 458;
},
{
layerId = m002;
shapes = (
{
closed = 1;
nodes = (
(157,255,o),
(191,265,o),
(216,265,cs),
(250,265,o),
(258,250,o),
(258,219,cs),
(258,143,o),
(173,87,o),
(119,87,cs),
(88,87,o),
(79,89,o),
(67,98,cs),
(35,123,o),
(2,110,o),
(-11,92,cs),
(-22,74,o),
(-24,51,o),
(8,26,cs),
(33,4,o),
(69,-4,o),
(119,-4,cs),
(218,-4,o),
(356,94,o),
(356,220,cs),
(356,300,o),
(298,356,o),
(212,356,cs),
(171,356,o),
(121,343,o),
(71,316,c),
(100,229,l)
);
},
{
closed = 1;
nodes = (
(382,568,l),
(143,568,ls),
(111,568,o),
(93,547,o),
(93,522,cs),
(93,498,o),
(111,478,o),
(143,478,cs),
(274,478,l)
);
},
{
closed = 1;
nodes = (
(424,499,o),
(431,511,o),
(431,524,cs),
(431,536,o),
(427,546,o),
(417,556,cs),
(409,564,o),
(394,568,o),
(380,568,cs),
(367,567,o),
(354,560,o),
(346,553,cs),
(69,312,ls),
(55,300,o),
(51,286,o),
(53,270,cs),
(55,262,o),
(59,254,o),
(65,247,cs),
(72,237,o),
(87,232,o),
(101,232,cs),
(114,232,o),
(130,238,o),
(138,247,c),
(414,490,ls)
);
}
);
width = 479;
}
);
unicode = 51;
},
{
glyphname = four;
lastChange = "2022-03-17 23:46:06 +0000";
layers = (
{
layerId = m01;
shapes = (
{
closed = 1;
nodes = (
(181,556,o),
(170,567,o),
(158,568,cs),
(146,569,o),
(132,564,o),
(127,546,cs),
(28,161,ls),
(25,149,o),
(34,136,o),
(52,135,cs),
(68,134,o),
(76,146,o),
(79,158,cs),
(177,539,ls)
);
},
{
closed = 1;
nodes = (
(275,295,o),
(264,307,o),
(252,307,cs),
(240,307,o),
(224,300,o),
(221,287,cs),
(156,32,ls),
(151,12,o),
(163,0,o),
(176,0,cs),
(188,0,o),
(201,4,o),
(206,23,cs),
(270,276,ls)
);
},
{
closed = 1;
nodes = (
(357,135,ls),
(373,135,o),
(383,146,o),
(383,158,cs),
(383,170,o),
(373,180,o),
(357,180,cs),
(80,180,l),
(50,135,l)
);
}
);
width = 390;
},
{
layerId = m002;
shapes = (
{
closed = 1;
nodes = (
(219,542,o),
(196,565,o),
(169,567,cs),
(146,568,o),
(121,557,o),
(114,528,cs),
(22,167,ls),
(16,143,o),
(37,118,o),
(67,116,cs),
(93,114,o),
(114,130,o),
(120,155,cs),
(211,512,ls)
);
},
{
closed = 1;
nodes = (
(316,288,o),
(296,307,o),
(272,314,cs),
(249,320,o),
(219,309,o),
(211,278,cs),
(155,56,ls),
(147,25,o),
(166,3,o),
(193,-1,cs),
(216,-5,o),
(243,7,o),
(251,38,cs),
(308,259,ls)
);
},
{
closed = 1;
nodes = (
(350,116,ls),
(378,116,o),
(400,136,o),
(400,160,cs),
(400,185,o),
(378,203,o),
(350,203,cs),
(122,203,l),
(61,116,l)
);
}
);
width = 410;
}
);
unicode = 52;
},
{
glyphname = five;
lastChange = "2022-03-17 23:46:06 +0000";
layers = (
{
layerId = m01;
shapes = (
{
closed = 1;
nodes = (
(111,299,o),
(139,304,o),
(164,304,cs),
(243,304,o),
(277,241,o),
(277,192,cs),
(277,121,o),
(217,43,o),
(146,43,cs),
(79,43,o),
(49,80,o),
(35,93,cs),
(28,100,o),
(21,102,o),
(14,102,cs),
(1,102,o),
(-10,93,o),
(-10,80,cs),
(-10,72,o),
(-6,63,o),
(3,54,cs),
(24,34,o),
(65,-3,o),
(149,-3,cs),
(251,-3,o),
(327,97,o),
(327,193,cs),
(327,276,o),
(263,354,o),
(161,354,cs),
(133,354,o),
(105,349,o),
(70,337,c),
(74,288,l)
);
},
{
closed = 1;
nodes = (
(141,566,l),
(119,566,o),
(110,562,o),
(105,541,cs),
(48,314,ls),
(44,299,o),
(56,289,o),
(69,288,cs),
(81,287,o),
(95,294,o),
(99,310,cs),
(156,538,l)
);
},
{
closed = 1;
nodes = (
(353,521,ls),
(373,521,o),
(379,531,o),
(379,543,cs),
(379,555,o),
(373,566,o),
(353,566,cs),
(139,566,l),
(139,521,l)
);
}
);
width = 383;
},
{
layerId = m002;
shapes = (
{
closed = 1;
nodes = (
(140,258,o),
(165,264,o),
(191,264,cs),
(243,264,o),
(263,228,o),
(263,190,cs),
(263,135,o),
(224,84,o),
(176,84,cs),
(132,84,o),
(114,105,o),
(98,119,cs),
(87,130,o),
(72,135,o),
(60,135,cs),
(38,135,o),
(12,119,o),
(12,92,cs),
(12,79,o),
(18,65,o),
(30,53,cs),
(45,38,o),
(90,-4,o),
(178,-4,cs),
(284,-4,o),
(361,96,o),
(361,191,cs),
(361,275,o),
(294,356,o),
(189,356,cs),
(173,356,o),
(162,354,o),
(153,350,c),
(120,250,l)
);
},
{
closed = 1;
nodes = (
(181,566,l),
(147,567,o),
(129,561,o),
(120,524,cs),
(64,303,ls),
(57,274,o),
(78,253,o),
(106,250,cs),
(129,248,o),
(153,262,o),
(160,288,cs),
(219,521,l)
);
},
{
closed = 1;
nodes = (
(364,476,ls),
(395,476,o),
(413,496,o),
(413,521,cs),
(413,545,o),
(395,566,o),
(364,566,cs),
(179,566,l),
(198,476,l)
);
}
);
width = 394;
}
);
unicode = 53;
},
{
glyphname = six;
lastChange = "2022-03-17 23:46:06 +0000";
layers = (
{
layerId = m01;
shapes = (
{
closed = 1;
nodes = (
(70,209,o),
(104,288,o),
(174,387,cs),
(201,425,o),
(247,471,o),
(322,523,cs),
(333,530,o),
(337,540,o),
(337,548,cs),
(336,559,o),
(328,568,o),
(315,568,cs),
(309,568,o),
(302,566,o),
(294,562,cs),
(247,535,o),
(164,460,o),
(130,412,cs),
(62,316,o),
(21,213,o),
(21,113,c),
(70,113,l)
);
},
{
closed = 1;
nodes = (
(21,53,o),
(69,0,o),
(137,0,cs),
(239,0,o),
(347,149,o),
(347,257,cs),
(347,321,o),
(310,354,o),
(238,354,cs),
(151,354,o),
(89,306,o),
(54,244,c),
(21,114,l)
);
},
{
closed = 1;
nodes = (
(102,50,o),
(71,78,o),
(71,135,cs),
(71,215,o),
(132,303,o),
(235,303,cs),
(276,303,o),
(297,289,o),
(297,251,cs),
(297,173,o),
(205,50,o),
(135,50,cs)
);
}
);
width = 397;
},
{
layerId = m002;
shapes = (
{
closed = 1;
nodes = (
(101,188,o),
(123,257,o),
(187,349,cs),
(211,382,o),
(265,441,o),
(328,485,cs),
(344,496,o),
(352,510,o),
(352,526,cs),
(350,549,o),
(331,568,o),
(306,568,cs),
(297,568,o),
(283,565,o),
(273,559,cs),
(227,533,o),
(135,441,o),
(104,398,cs),
(37,302,o),
(10,219,o),
(10,118,c),
(107,97,l)
);
},
{
closed = 1;
nodes = (
(11,46,o),
(58,0,o),
(134,0,cs),
(241,0,o),
(348,141,o),
(348,247,cs),
(348,317,o),
(304,354,o),
(239,354,cs),
(135,354,o),
(73,305,o),
(39,243,c),
(10,118,l)
);
},
{
closed = 1;
nodes = (
(118,90,o),
(107,100,o),
(107,140,cs),
(107,203,o),
(148,263,o),
(223,263,cs),
(246,263,o),
(251,251,o),
(251,227,cs),
(251,180,o),
(183,90,o),
(136,90,cs)
);
}
);
width = 371;
}
);
unicode = 54;
},
{
glyphname = seven;
lastChange = "2022-03-17 23:46:06 +0000";
layers = (
{
layerId = m01;
shapes = (
{
closed = 1;
nodes = (
(303,554,o),
(298,567,o),
(278,568,cs),
(267,569,o),
(255,562,o),
(252,551,cs),
(121,28,ls),
(116,10,o),
(127,1,o),
(140,0,cs),
(152,-1,o),
(166,6,o),
(170,24,cs),
(300,542,ls)
);
},
{
closed = 1;
nodes = (
(279,568,l),
(32,568,ls),
(14,568,o),
(5,557,o),
(5,546,cs),
(5,534,o),
(14,523,o),
(32,523,cs),
(279,523,l)
);
}
);
width = 333;
},
{
layerId = m002;
shapes = (
{
closed = 1;
nodes = (
(371,541,o),
(354,566,o),
(320,568,cs),
(299,570,o),
(275,557,o),
(269,535,cs),
(148,54,ls),
(140,23,o),
(163,2,o),
(190,0,cs),
(213,-2,o),
(238,11,o),
(245,39,cs),
(365,516,ls)
);
},
{
closed = 1;
nodes = (
(322,568,l),
(79,568,ls),
(49,568,o),
(28,546,o),
(28,523,cs),
(28,498,o),
(49,478,o),
(79,478,cs),
(274,478,l)
);
}
);
width = 413;
}
);
unicode = 55;
},
{
glyphname = eight;
lastChange = "2022-03-17 23:46:06 +0000";
layers = (
{
layerId = m01;
shapes = (
{
closed = 1;
nodes = (
(162,332,l),
(91,290,o),
(34,243,o),
(13,151,cs),
(0,93,o),
(40,-4,o),
(137,-4,cs),
(241,-4,o),
(284,82,o),
(300,147,cs),
(317,215,o),
(278,274,o),
(251,301,cs),
(235,317,l)
);
},
{
closed = 1;
nodes = (
(237,246,o),
(261,201,o),
(249,151,cs),
(238,107,o),
(200,42,o),
(143,42,cs),
(93,42,o),
(54,103,o),
(65,152,cs),
(78,211,o),
(130,261,o),
(188,291,c),
(214,267,ls)
);
},
{
closed = 1;
nodes = (
(311,370,o),
(359,382,o),
(376,451,cs),
(394,525,o),
(315,568,o),
(256,568,cs),
(183,568,o),
(111,541,o),
(89,454,cs),
(75,398,o),
(142,342,o),
(168,315,c),
(211,341,l),
(188,363,o),
(130,409,o),
(140,451,cs),
(154,508,o),
(206,522,o),
(247,522,cs),
(283,522,o),
(337,495,o),
(326,451,cs),
(316,411,o),
(236,376,o),
(161,329,c),
(230,314,l)
);
}
);
width = 388;
},
{
layerId = m002;
shapes = (
{
closed = 1;
nodes = (
(172,338,l),
(103,298,o),
(41,252,o),
(21,159,cs),
(5,94,o),
(49,-4,o),
(153,-4,cs),
(262,-4,o),
(309,84,o),
(324,145,cs),
(342,216,o),
(302,274,o),
(274,302,cs),
(255,321,l)
);
},
{
closed = 1;
nodes = (
(221,224,o),
(236,195,o),
(227,160,cs),
(218,124,o),
(194,83,o),
(161,83,cs),
(133,83,o),
(111,116,o),
(118,150,cs),
(128,190,o),
(157,222,o),
(196,246,c),
(205,238,ls)
);
},
{
closed = 1;
nodes = (
(316,323,o),
(377,348,o),
(395,426,cs),
(416,509,o),
(352,568,o),
(264,568,cs),
(190,568,o),
(115,529,o),
(92,440,cs),
(76,376,o),
(140,305,o),
(177,266,c),
(261,315,l),
(219,357,o),
(184,404,o),
(189,426,cs),
(198,462,o),
(225,480,o),
(257,480,cs),
(281,480,o),
(305,458,o),
(300,438,cs),
(292,408,o),
(197,359,o),
(114,298,c),
(243,271,l)
);
}
);
width = 405;
}
);
unicode = 56;
},
{
glyphname = nine;
lastChange = "2022-03-17 23:46:06 +0000";
layers = (
{
layerId = m01;
shapes = (
{
closed = 1;
nodes = (
(341,557,o),
(336,568,o),
(319,568,cs),
(300,568,o),
(291,562,o),
(288,548,cs),
(159,29,ls),
(155,13,o),
(166,0,o),
(178,0,cs),
(191,-1,o),
(204,6,o),
(208,21,cs),
(338,545,ls)
);
},
{
closed = 1;
nodes = (
(130,568,o),
(74,489,o),
(45,374,cs),
(26,298,o),
(58,214,o),
(131,214,cs),
(217,214,o),
(266,307,o),
(286,384,cs),
(306,462,o),
(303,568,o),
(220,568,cs)
);
},
{
closed = 1;
nodes = (
(263,522,o),
(247,435,o),
(237,396,cs),
(224,343,o),
(182,259,o),
(143,259,cs),
(87,259,o),
(84,327,o),
(99,387,cs),
(113,444,o),
(162,522,o),
(209,522,cs)
);
}
);
width = 358;
},
{
layerId = m002;
shapes = (
{
closed = 1;
nodes = (
(361,545,o),
(343,568,o),
(312,568,cs),
(284,568,o),
(265,556,o),
(259,532,cs),
(141,54,ls),
(134,25,o),
(156,1,o),
(182,0,cs),
(205,-2,o),
(230,12,o),
(236,36,cs),
(355,519,ls)
);
},
{
closed = 1;
nodes = (
(122,568,o),
(65,487,o),
(38,380,cs),
(18,300,o),
(55,210,o),
(140,210,cs),
(234,210,o),
(283,306,o),
(301,377,cs),
(321,451,o),
(319,568,o),
(218,568,cs)
);
},
{
closed = 1;
nodes = (
(223,478,o),
(214,431,o),
(206,398,cs),
(195,352,o),
(167,296,o),
(150,296,cs),
(127,296,o),
(126,329,o),
(138,378,cs),
(150,426,o),
(183,478,o),
(208,478,cs)
);
}
);
width = 389;
}
);
unicode = 57;
},
{
glyphname = .notdef;
lastChange = "2022-03-22 01:38:35 +0000";
layers = (
{
layerId = m01;
shapes = (
{
closed = 1;
nodes = (
(433,0,o),
(443,12,o),
(447,27,cs),
(608,673,ls),
(612,689,o),
(604,700,o),
(590,700,cs),
(194,700,ls),
(177,700,o),
(167,689,o),
(163,673,cs),
(2,27,ls),
(-2,12,o),
(7,0,o),
(26,0,cs),
(422,0,ls)
);
},
{
closed = 1;
nodes = (
(211,655,l),
(554,655,l),
(400,45,l),
(56,45,l)
);
}
);
width = 575;
},
{
layerId = m002;
shapes = (
{
closed = 1;
nodes = (
(448,0,o),
(469,26,o),
(475,49,cs),
(627,659,ls),
(634,687,o),
(617,700,o),
(580,700,cs),
(200,700,ls),
(172,700,o),
(153,687,o),
(146,659,cs),
(-6,49,ls),
(-13,21,o),
(3,0,o),
(42,0,cs),
(423,0,ls)
);
},
{
closed = 1;
nodes = (
(239,605,l),
(516,605,l),
(381,95,l),
(104,95,l)
);
}
);
width = 530;
}
);
metricLeft = N;
metricRight = N;
},
{
glyphname = period;
lastChange = "2022-03-22 01:38:39 +0000";
layers = (
{
layerId = m01;
shapes = (
{
closed = 1;
nodes = (
(8,-30,o),
(26,-12,o),
(26,9,cs),
(26,29,o),
(8,46,o),
(-12,46,cs),
(-33,46,o),
(-49,29,o),
(-49,9,cs),
(-49,-11,o),
(-33,-30,o),
(-12,-30,cs)
);
}
);
width = 137;
},
{
layerId = m002;
shapes = (
{
closed = 1;
nodes = (
(43,-30,o),
(69,-4,o),
(69,26,cs),
(69,55,o),
(43,80,o),
(14,80,cs),
(-17,80,o),
(-41,55,o),
(-41,26,cs),
(-41,-3,o),
(-17,-30,o),
(14,-30,cs)
);
}
);
width = 174;
}
);
metricLeft = n;
metricRight = n;
unicode = 46;
},
{
glyphname = comma;
lastChange = "2022-03-22 01:38:39 +0000";
layers = (
{
layerId = m01;
shapes = (
{
closed = 1;
nodes = (
(9,39,o),
(-2,50,o),
(-15,52,cs),
(-27,55,o),
(-41,49,o),
(-45,32,cs),
(-69,-66,ls),
(-73,-83,o),
(-64,-94,o),
(-52,-97,cs),
(-40,-100,o),
(-25,-94,o),
(-21,-76,cs),
(4,21,ls)
);
}
);
width = 110;
},
{
layerId = m002;
shapes = (
{
closed = 1;
nodes = (
(72,69,o),
(52,90,o),
(25,95,cs),
(1,100,o),
(-27,88,o),
(-34,59,cs),
(-58,-38,ls),
(-65,-69,o),
(-47,-91,o),
(-22,-97,cs),
(2,-103,o),
(33,-90,o),
(40,-60,cs),
(64,37,ls)
);
}
);
width = 165;
}
);
metricLeft = n;
metricRight = n;
unicode = 44;
},
{
glyphname = colon;
lastChange = "2022-03-22 01:38:39 +0000";
layers = (
{
layerId = m01;
shapes = (
{
closed = 1;
nodes = (
(9,-30,o),
(27,-12,o),
(27,9,cs),
(27,29,o),
(9,46,o),
(-12,46,cs),
(-33,46,o),
(-49,29,o),
(-49,9,cs),
(-49,-11,o),
(-33,-30,o),
(-12,-30,cs)
);
},
{
closed = 1;
nodes = (
(60,175,o),
(78,194,o),
(78,214,cs),
(78,235,o),
(60,251,o),
(40,251,cs),
(19,251,o),
(3,234,o),
(3,214,cs),
(3,195,o),
(19,175,o),
(40,175,cs)
);
}
);
width = 138;
},
{
layerId = m002;
shapes = (
{
closed = 1;
nodes = (
(96,175,o),
(122,202,o),
(122,232,cs),
(122,261,o),
(96,285,o),
(67,285,cs),
(36,285,o),
(12,259,o),
(12,231,cs),
(12,203,o),
(36,175,o),
(66,175,cs)
);
},
{
closed = 1;
nodes = (
(44,-30,o),
(70,-4,o),
(70,26,cs),
(70,56,o),
(44,80,o),
(14,80,cs),
(-17,80,o),
(-40,55,o),
(-40,26,cs),
(-40,-3,o),
(-17,-30,o),
(14,-30,cs)
);
}
);
width = 175;
}
);
metricLeft = n;
metricRight = n;
unicode = 58;
},
{
glyphname = semicolon;
lastChange = "2022-03-22 01:38:39 +0000";
layers = (
{
layerId = m01;
shapes = (
{
closed = 1;
nodes = (
(24,39,o),
(13,50,o),
(0,52,cs),
(-12,55,o),
(-26,49,o),
(-30,32,cs),
(-54,-66,ls),
(-58,-83,o),
(-49,-94,o),
(-37,-97,cs),
(-25,-100,o),
(-11,-94,o),
(-6,-76,cs),
(19,21,ls)
);
},
{
closed = 1;
nodes = (
(59,175,o),
(77,194,o),
(77,214,cs),
(77,235,o),
(59,251,o),
(39,251,cs),
(18,251,o),
(2,234,o),
(2,214,cs),
(2,195,o),
(18,175,o),
(39,175,cs)
);
}
);
width = 136;
},
{
layerId = m002;
shapes = (
{
closed = 1;
nodes = (
(78,69,o),
(58,90,o),
(31,95,cs),
(7,100,o),
(-21,88,o),
(-28,59,cs),
(-52,-38,ls),
(-60,-69,o),
(-41,-91,o),
(-16,-97,cs),
(8,-103,o),
(39,-90,o),
(46,-60,cs),
(70,37,ls)
);
},
{
closed = 1;
nodes = (
(94,175,o),
(120,202,o),
(120,232,cs),
(120,261,o),
(94,285,o),
(65,285,cs),
(34,285,o),
(10,259,o),
(10,231,cs),
(10,203,o),
(34,175,o),
(64,175,cs)
);
}
);
width = 173;
}
);
metricLeft = n;
metricRight = n;
unicode = 59;
},
{
glyphname = ellipsis;
lastChange = "2022-03-22 01:38:39 +0000";
layers = (
{
layerId = m01;
shapes = (
{
closed = 1;
nodes = (
(228,-30,o),
(246,-12,o),
(246,9,cs),
(246,29,o),
(228,46,o),
(208,46,cs),
(187,46,o),
(171,29,o),
(171,9,cs),
(171,-11,o),
(187,-30,o),
(208,-30,cs)
);
},
{
closed = 1;
nodes = (
(8,-30,o),
(26,-12,o),
(26,9,cs),
(26,29,o),
(8,46,o),
(-12,46,cs),
(-33,46,o),
(-49,29,o),
(-49,9,cs),
(-49,-11,o),
(-33,-30,o),
(-12,-30,cs)
);
},
{
closed = 1;
nodes = (
(118,-30,o),
(136,-12,o),
(136,9,cs),
(136,29,o),
(118,46,o),
(98,46,cs),
(77,46,o),
(61,29,o),
(61,9,cs),
(61,-11,o),
(77,-30,o),
(98,-30,cs)
);
}
);
width = 357;
},
{
layerId = m002;
shapes = (
{
closed = 1;
nodes = (
(332,-31,o),
(359,-6,o),
(359,25,cs),
(359,56,o),
(332,79,o),
(303,79,cs),
(275,79,o),
(249,57,o),
(249,25,cs),
(249,-6,o),
(275,-31,o),
(304,-31,cs)
);
},
{
closed = 1;
nodes = (
(42,-31,o),
(69,-6,o),
(69,25,cs),
(69,56,o),
(42,79,o),
(13,79,cs),
(-15,79,o),
(-41,57,o),
(-41,25,cs),
(-41,-6,o),
(-15,-31,o),
(14,-31,cs)
);
},
{
closed = 1;
nodes = (
(187,-30,o),
(214,-6,o),
(214,25,cs),
(214,56,o),
(187,79,o),
(159,79,cs),
(130,79,o),
(104,56,o),
(104,25,cs),
(104,-6,o),
(130,-30,o),
(159,-30,cs)
);
}
);
width = 464;
}
);
metricLeft = n;
metricRight = n;
unicode = 8230;
},
{
glyphname = exclam;
lastChange = "2022-03-22 01:38:35 +0000";
layers = (
{
layerId = m01;
shapes = (
{
closed = 1;
nodes = (
(214,641,o),
(204,649,o),
(192,650,cs),
(179,651,o),
(163,645,o),
(160,633,cs),
(53,203,ls),
(49,187,o),
(60,177,o),
(72,175,cs),
(84,173,o),
(99,181,o),
(104,200,cs),
(210,626,ls)
);
},
{
closed = 1;
nodes = (
(48,-24,o),
(64,-8,o),
(64,9,cs),
(64,26,o),
(48,41,o),
(30,41,cs),
(12,41,o),
(-1,25,o),
(-1,9,cs),
(-1,-7,o),
(12,-24,o),
(30,-24,cs)
);
}
);
width = 197;
},
{
layerId = m002;
shapes = (
{
closed = 1;
nodes = (
(248,628,o),
(222,648,o),
(198,650,cs),
(176,651,o),
(146,638,o),
(140,615,cs),
(43,229,ls),
(36,200,o),
(58,178,o),
(83,175,cs),
(106,171,o),
(136,187,o),
(143,216,cs),
(241,602,ls)
);
},
{
closed = 1;
nodes = (
(73,-24,o),
(101,2,o),
(101,31,cs),
(101,60,o),
(73,86,o),
(43,86,cs),
(12,86,o),
(-9,58,o),
(-9,31,cs),
(-9,4,o),
(12,-24,o),
(43,-24,cs)
);
}
);
width = 162;
}
);
metricLeft = N;
metricRight = N;
unicode = 33;
},
{
glyphname = exclamdown;
lastChange = "2022-03-22 01:38:35 +0000";
layers = (
{
layerId = m01;
shapes = (
{
closed = 1;
nodes = (
(6,9,o),
(16,1,o),
(28,0,cs),
(41,-1,o),
(57,5,o),
(60,17,cs),
(167,447,ls),
(171,463,o),
(160,473,o),
(148,475,cs),
(136,477,o),
(121,469,o),
(116,450,cs),
(10,24,ls)
);
},
{
closed = 1;
nodes = (
(172,674,o),
(156,658,o),
(156,641,cs),
(156,624,o),
(172,609,o),
(190,609,cs),
(208,609,o),
(221,625,o),
(221,641,cs),
(221,657,o),
(208,674,o),
(190,674,cs)
);
}
);
width = 197;
},
{
layerId = m002;
shapes = (
{
closed = 1;
nodes = (
(-10,22,o),
(16,2,o),
(40,0,cs),
(62,-1,o),
(92,12,o),
(98,35,cs),
(195,421,ls),
(202,450,o),
(180,472,o),
(155,475,cs),
(132,479,o),
(102,463,o),
(95,434,cs),
(-3,48,ls)
);
},
{
closed = 1;
nodes = (
(165,674,o),
(137,648,o),
(137,619,cs),
(137,590,o),
(165,564,o),
(195,564,cs),
(226,564,o),
(247,592,o),
(247,619,cs),
(247,646,o),
(226,674,o),
(195,674,cs)
);
}
);
width = 162;
}
);
metricLeft = N;
metricRight = N;
unicode = 161;
},
{
glyphname = question;
lastChange = "2022-03-22 01:38:35 +0000";
layers = (
{
layerId = m01;
shapes = (
{
closed = 1;
nodes = (
(160,-24,o),
(176,-9,o),
(176,7,cs),
(176,26,o),
(161,41,o),
(142,41,cs),
(125,41,o),
(111,25,o),
(111,7,cs),
(111,-8,o),
(125,-24,o),
(142,-24,cs)
);
},
{
closed = 1;
nodes = (
(244,308,o),
(238,321,o),
(218,322,cs),
(207,323,o),
(195,316,o),
(192,305,cs),
(167,206,ls),
(163,192,o),
(173,179,o),
(185,176,cs),
(198,173,o),
(212,180,o),
(218,202,cs),
(243,302,ls)
);
},
{
closed = 1;
nodes = (
(373,272,o),
(431,365,o),
(466,503,cs),
(486,582,o),
(412,654,o),
(321,654,cs),
(206,654,o),
(149,590,o),
(125,495,cs),
(119,473,o),
(126,460,o),
(137,457,cs),
(150,454,o),
(169,463,o),
(174,485,cs),
(188,542,o),
(222,604,o),
(307,604,cs),
(373,604,o),
(431,568,o),
(416,507,cs),
(405,461,o),
(384,322,o),
(222,322,c),
(217,272,l)
);
}
);
width = 405;
},
{
layerId = m002;
shapes = (
{
closed = 1;
nodes = (
(188,-24,o),
(216,2,o),
(216,32,cs),
(216,61,o),
(190,86,o),
(160,86,cs),
(129,86,o),
(106,60,o),
(106,32,cs),
(106,4,o),
(129,-24,o),
(159,-24,cs)
);
},
{
closed = 1;
nodes = (
(287,335,o),
(264,354,o),
(235,356,cs),
(214,358,o),
(190,345,o),
(185,325,cs),
(163,238,ls),
(156,212,o),
(168,181,o),
(197,176,cs),
(223,171,o),
(249,192,o),
(257,223,cs),
(280,310,ls)
);
},
{
closed = 1;
nodes = (
(389,256,o),
(456,353,o),
(490,492,cs),
(511,577,o),
(431,654,o),
(334,654,cs),
(217,654,o),
(156,586,o),
(133,493,cs),
(124,458,o),
(141,439,o),
(162,434,cs),
(187,427,o),
(219,443,o),
(227,476,cs),
(239,524,o),
(260,565,o),
(322,565,cs),
(373,565,o),
(405,545,o),
(395,504,cs),
(384,460,o),
(367,345,o),
(235,356,c),
(214,267,l)
);
}
);
width = 447;
}
);
metricLeft = O;
metricRight = O;
unicode = 63;
},
{
glyphname = questiondown;
lastChange = "2022-03-22 01:38:35 +0000";
layers = (
{
layerId = m01;
shapes = (
{
closed = 1;
nodes = (
(345,678,o),
(329,663,o),
(329,647,cs),
(329,628,o),
(344,613,o),
(363,613,cs),
(380,613,o),
(394,629,o),
(394,647,cs),
(394,662,o),
(380,678,o),
(363,678,cs)
);
},
{
closed = 1;
nodes = (
(261,346,o),
(267,333,o),
(287,332,cs),
(298,331,o),
(310,338,o),
(313,349,cs),
(338,448,ls),
(342,462,o),
(332,475,o),
(320,478,cs),
(307,481,o),
(293,474,o),
(287,452,cs),
(262,352,ls)
);
},
{
closed = 1;
nodes = (
(132,382,o),
(74,289,o),
(39,151,cs),
(19,72,o),
(93,0,o),
(184,0,cs),
(299,0,o),
(356,64,o),
(380,159,cs),
(386,181,o),
(379,194,o),
(368,197,cs),
(355,200,o),
(336,191,o),
(331,169,cs),
(317,112,o),
(283,50,o),
(198,50,cs),
(132,50,o),
(74,86,o),
(89,147,cs),
(100,193,o),
(121,332,o),
(283,332,c),
(288,382,l)
);
}
);
width = 405;
},
{
layerId = m002;
shapes = (
{
closed = 1;
nodes = (
(353,678,o),
(325,652,o),
(325,622,cs),
(325,593,o),
(351,568,o),
(381,568,cs),
(412,568,o),
(435,594,o),
(435,622,cs),
(435,650,o),
(412,678,o),
(382,678,cs)
);
},
{
closed = 1;
nodes = (
(254,319,o),
(277,300,o),
(306,298,cs),
(327,296,o),
(351,309,o),
(356,329,cs),
(378,416,ls),
(385,442,o),
(373,473,o),
(344,478,cs),
(318,483,o),
(292,462,o),
(284,431,cs),
(261,344,ls)
);
},
{
closed = 1;
nodes = (
(152,398,o),
(85,301,o),
(51,162,cs),
(30,77,o),
(110,0,o),
(207,0,cs),
(324,0,o),
(385,68,o),
(408,161,cs),
(417,196,o),
(400,215,o),
(379,220,cs),
(354,227,o),
(322,211,o),
(314,178,cs),
(302,130,o),
(281,89,o),
(219,89,cs),
(168,89,o),
(136,109,o),
(146,150,cs),
(157,194,o),
(174,309,o),
(306,298,c),
(327,387,l)
);
}
);
width = 447;
}
);
metricLeft = O;
metricRight = O;
unicode = 191;
},
{
glyphname = periodcentered;
lastChange = "2022-03-17 23:46:06 +0000";
layers = (
{
layerId = m01;
shapes = (
{
closed = 1;
nodes = (
(121,138,o),
(139,157,o),
(139,177,cs),
(139,198,o),
(121,214,o),
(101,214,cs),
(80,214,o),
(64,197,o),
(64,177,cs),
(64,158,o),
(80,138,o),
(101,138,cs)
);
}
);
width = 254;
},
{
layerId = m002;
shapes = (
{
closed = 1;
nodes = (
(161,121,o),
(188,149,o),
(188,178,cs),
(188,209,o),
(161,231,o),
(132,231,cs),
(101,231,o),
(78,207,o),
(78,178,cs),
(78,151,o),
(101,121,o),
(132,121,cs)
);
}
);
width = 327;
}
);
unicode = 183;
},
{
glyphname = bullet;
lastChange = "2022-03-17 23:46:06 +0000";
layers = (
{
layerId = m01;
shapes = (
{
closed = 1;
nodes = (
(209,278,o),
(246,314,o),
(246,355,cs),
(246,396,o),
(210,430,o),
(170,430,cs),
(128,430,o),
(96,395,o),
(96,355,cs),
(96,316,o),
(127,278,o),
(169,278,cs)
);
}
);
width = 330;
},
{
layerId = m002;
shapes = (
{
closed = 1;
nodes = (
(261,254,o),
(310,301,o),
(310,355,cs),
(310,409,o),
(262,454,o),
(208,454,cs),
(153,454,o),
(110,408,o),
(110,355,cs),
(110,304,o),
(151,254,o),
(207,254,cs)
);
}
);
width = 419;
}
);
unicode = 8226;
},
{
glyphname = asterisk;
lastChange = "2022-03-22 01:38:35 +0000";
layers = (
{
layerId = m002;
shapes = (
{
closed = 1;
nodes = (
(339,555,o),
(351,578,o),
(337,602,cs),
(327,619,o),
(300,627,o),
(274,614,cs),
(136,542,l),
(113,527,o),
(99,505,o),
(111,483,cs),
(119,464,o),
(150,456,o),
(178,470,cs),
(312,541,ls)
);
},
{
closed = 1;
nodes = (
(267,449,o),
(296,451,o),
(311,467,cs),
(325,484,o),
(325,507,o),
(304,525,cs),
(205,615,ls),
(184,634,o),
(155,632,o),
(141,616,cs),
(125,599,o),
(125,576,o),
(148,556,cs),
(243,468,l)
);
},
{
closed = 1;
nodes = (
(293,636,o),
(274,657,o),
(250,659,cs),
(229,661,o),
(205,645,o),
(198,619,cs),
(163,479,ls),
(156,450,o),
(171,432,o),
(192,426,cs),
(213,419,o),
(242,434,o),
(251,465,cs),
(285,605,ls)
);
}
);
width = 267;
},
{
layerId = m01;
shapes = (
{
closed = 1;
nodes = (
(314,572,o),
(318,586,o),
(313,595,cs),
(308,602,o),
(296,606,o),
(281,598,cs),
(139,524,ls),
(122,514,o),
(117,500,o),
(122,492,cs),
(127,484,o),
(138,481,o),
(155,489,cs),
(296,563,ls)
);
},
{
closed = 1;
nodes = (
(267,473,o),
(280,474,o),
(288,481,cs),
(293,488,o),
(294,500,o),
(282,511,cs),
(180,603,ls),
(169,614,o),
(157,613,o),
(150,605,cs),
(143,599,o),
(142,586,o),
(154,575,cs),
(255,484,ls)
);
},
{
closed = 1;
nodes = (
(259,633,o),
(252,642,o),
(243,643,cs),
(233,644,o),
(220,635,o),
(216,618,cs),
(180,472,ls),
(176,455,o),
(182,447,o),
(191,444,cs),
(201,442,o),
(214,450,o),
(219,469,cs),
(255,615,ls)
);
}
);
width = 304;
}
);
metricLeft = N;
metricRight = N;
unicode = 42;
},
{
glyphname = numbersign;
lastChange = "2022-03-17 23:46:06 +0000";
layers = (
{
layerId = m01;
shapes = (
{
closed = 1;
nodes = (
(357,557,o),
(347,567,o),
(334,568,cs),
(321,569,o),
(306,562,o),
(302,545,cs),
(173,29,ls),
(169,11,o),
(178,0,o),
(190,0,cs),
(203,-2,o),
(219,6,o),
(224,25,cs),
(353,542,ls)
);
},
{
closed = 1;
nodes = (
(651,147,o),
(660,159,o),
(660,170,cs),
(660,181,o),
(652,192,o),
(634,192,cs),
(89,192,ls),
(71,192,o),
(63,181,o),
(63,170,cs),
(63,159,o),
(72,147,o),
(89,147,cs),
(634,147,ls)
);
},
{
closed = 1;
nodes = (
(613,558,o),
(603,566,o),
(591,568,cs),
(578,569,o),
(562,562,o),
(558,545,cs),
(430,29,ls),
(425,10,o),
(436,0,o),
(449,0,cs),
(462,0,o),
(476,7,o),
(480,25,cs),
(609,542,ls)
);
},
{
closed = 1;
nodes = (
(711,384,o),
(720,395,o),
(720,406,cs),
(720,417,o),
(711,429,o),
(693,429,cs),
(149,429,ls),
(131,429,o),
(122,417,o),
(122,406,cs),
(122,395,o),
(131,384,o),
(149,384,cs),
(693,384,ls)
);
}
);
width = 797;
},
{
layerId = m002;
shapes = (
{
closed = 1;
nodes = (
(628,552,o),
(605,567,o),
(582,568,cs),
(558,570,o),
(529,562,o),
(522,536,cs),
(401,51,ls),
(392,17,o),
(418,2,o),
(445,0,cs),
(468,-1,o),
(492,8,o),
(499,36,cs),
(620,521,ls)
);
},
{
closed = 1;
nodes = (
(643,133,o),
(663,153,o),
(663,177,cs),
(663,200,o),
(644,218,o),
(614,218,cs),
(102,218,ls),
(72,218,o),
(52,200,o),
(52,177,cs),
(52,153,o),
(73,133,o),
(102,133,cs),
(614,133,ls)
);
},
{
closed = 1;
nodes = (
(371,548,o),
(346,566,o),
(320,568,cs),
(295,569,o),
(272,560,o),
(265,533,cs),
(144,49,ls),
(136,19,o),
(155,2,o),
(181,0,cs),
(205,-2,o),
(236,6,o),
(243,35,cs),
(364,520,ls)
);
},
{
closed = 1;
nodes = (
(698,357,o),
(719,375,o),
(719,399,cs),
(719,422,o),
(698,442,o),
(668,442,cs),
(157,442,ls),
(127,442,o),
(107,422,o),
(107,399,cs),
(107,375,o),
(127,357,o),
(157,357,cs),
(668,357,ls)
);
}
);
width = 772;
}
);
unicode = 35;
},
{
glyphname = slash;
lastChange = "2022-03-22 01:38:35 +0000";
layers = (
{
layerId = m01;
shapes = (
{
closed = 1;
nodes = (
(372,635,o),
(358,649,o),
(343,650,cs),
(332,650,o),
(320,645,o),
(312,629,cs),
(4,32,ls),
(-5,14,o),
(8,1,o),
(24,0,cs),
(35,-1,o),
(46,4,o),
(53,18,cs),
(361,614,ls)
);
}
);
width = 344;
},
{
layerId = m002;
shapes = (
{
closed = 1;
nodes = (
(401,620,o),
(373,648,o),
(343,650,cs),
(323,651,o),
(300,642,o),
(287,618,cs),
(-1,63,ls),
(-19,29,o),
(9,2,o),
(41,0,cs),
(60,-1,o),
(83,7,o),
(94,28,cs),
(383,585,ls)
);
}
);
width = 306;
}
);
metricLeft = N;
metricRight = N;
unicode = 47;
},
{
glyphname = backslash;
lastChange = "2022-03-22 01:38:35 +0000";
layers = (
{
layerId = m01;
shapes = (
{
closed = 1;
nodes = (
(465,18,ls),
(472,4,o),
(483,-1,o),
(494,0,cs),
(510,1,o),
(523,14,o),
(514,32,cs),
(206,629,ls),
(198,645,o),
(186,650,o),
(175,650,cs),
(160,649,o),
(146,635,o),
(157,614,cs)
);
}
);
width = 647;
},
{
layerId = m002;
shapes = (
{
closed = 1;
nodes = (
(429,28,ls),
(440,7,o),
(463,-1,o),
(482,0,cs),
(514,2,o),
(542,29,o),
(524,63,cs),
(236,618,ls),
(223,642,o),
(200,651,o),
(180,650,cs),
(150,648,o),
(122,620,o),
(140,585,cs)
);
}
);
width = 588;
}
);
metricLeft = N;
metricRight = N;
unicode = 92;
},
{
glyphname = hyphen;
lastChange = "2022-03-22 01:38:39 +0000";
layers = (
{
layerId = m01;
shapes = (
{
closed = 1;
nodes = (
(190,175,o),
(199,186,o),
(199,198,cs),
(199,209,o),
(190,220,o),
(172,220,cs),
(24,220,ls),
(5,220,o),
(-4,208,o),
(-3,196,cs),
(-2,185,o),
(7,175,o),
(24,175,cs),
(172,175,ls)
);
}
);
width = 262;
},
{
layerId = m002;
shapes = (
{
closed = 1;
nodes = (
(233,153,o),
(254,173,o),
(254,198,cs),
(254,222,o),
(233,242,o),
(202,242,cs),
(54,242,ls),
(21,242,o),
(0,220,o),
(2,194,cs),
(4,171,o),
(25,153,o),
(54,153,cs),
(202,153,ls)
);
}
);
width = 316;
}
);
metricLeft = n;
metricRight = n;
unicode = 45;
},
{
glyphname = endash;
lastChange = "2022-03-22 01:38:39 +0000";
layers = (
{
layerId = m01;
shapes = (
{
closed = 1;
nodes = (
(270,175,o),
(279,187,o),
(279,199,cs),
(279,210,o),
(270,220,o),
(252,220,cs),
(25,220,ls),
(7,220,o),
(-2,210,o),
(-2,199,cs),
(-2,187,o),
(7,175,o),
(25,175,cs),
(252,175,ls)
);
}
);
width = 342;
},
{
layerId = m002;
shapes = (
{
closed = 1;
nodes = (
(312,153,o),
(333,174,o),
(333,199,cs),
(333,223,o),
(312,242,o),
(281,242,cs),
(54,242,ls),
(23,242,o),
(2,223,o),
(2,199,cs),
(2,174,o),
(23,153,o),
(54,153,cs),
(281,153,ls)
);
}
);
width = 394;
}
);
metricLeft = n;
metricRight = n;
unicode = 8211;
},
{
glyphname = emdash;
lastChange = "2022-03-22 01:38:39 +0000";
layers = (
{
layerId = m01;
shapes = (
{
closed = 1;
nodes = (
(370,175,o),
(381,187,o),
(381,199,cs),
(381,209,o),
(371,220,o),
(350,220,cs),
(27,220,ls),
(7,220,o),
(-3,209,o),
(-3,199,cs),
(-3,187,o),
(8,175,o),
(27,175,cs),
(350,175,ls)
);
}
);
width = 444;
},
{
layerId = m002;
shapes = (
{
closed = 1;
nodes = (
(413,153,o),
(436,174,o),
(436,199,cs),
(436,222,o),
(414,242,o),
(380,242,cs),
(57,242,ls),
(24,242,o),
(2,222,o),
(2,199,cs),
(2,174,o),
(25,153,o),
(57,153,cs),
(380,153,ls)
);
}
);
width = 497;
}
);
metricLeft = n;
metricRight = n;
unicode = 8212;
},
{
glyphname = underscore;
lastChange = "2022-03-22 01:38:39 +0000";
layers = (
{
layerId = m01;
shapes = (
{
closed = 1;
nodes = (
(268,-77,o),
(277,-66,o),
(277,-54,cs),
(277,-43,o),
(268,-32,o),
(250,-32,cs),
(-39,-32,ls),
(-58,-32,o),
(-66,-43,o),
(-66,-55,cs),
(-66,-66,o),
(-56,-77,o),
(-39,-77,cs),
(250,-77,ls)
);
}
);
width = 403;
},
{
layerId = m002;
shapes = (
{
closed = 1;
nodes = (
(311,-99,o),
(332,-79,o),
(332,-54,cs),
(332,-30,o),
(311,-10,o),
(280,-10,cs),
(-9,-10,ls),
(-41,-10,o),
(-61,-30,o),
(-61,-55,cs),
(-61,-79,o),
(-39,-99,o),
(-9,-99,cs),
(280,-99,ls)
);
}
);
width = 456;
}
);
metricLeft = n;
metricRight = n;
unicode = 95;
},
{
glyphname = parenleft;
lastChange = "2022-03-22 01:38:35 +0000";
layers = (
{
layerId = m01;
shapes = (
{
closed = 1;
nodes = (
(153,-293,o),
(155,-279,o),
(149,-262,cs),
(75,-76,o),
(73,82,o),
(108,222,cs),
(140,348,o),
(228,489,o),
(363,607,cs),
(382,623,o),
(385,637,o),
(378,645,cs),
(371,653,o),
(353,651,o),
(332,635,cs),
(191,517,o),
(79,335,o),
(52,226,cs),
(22,103,o),
(34,-93,o),
(111,-281,cs),
(118,-298,o),
(134,-303,o),
(145,-298,cs)
);
}
);
width = 358;
},
{
layerId = m002;
shapes = (
{
closed = 1;
nodes = (
(188,-283,o),
(196,-264,o),
(184,-235,cs),
(115,-61,o),
(109,86,o),
(143,217,cs),
(172,335,o),
(257,460,o),
(383,569,cs),
(416,598,o),
(413,621,o),
(400,637,cs),
(386,653,o),
(353,657,o),
(320,631,cs),
(180,514,o),
(66,339,o),
(39,232,cs),
(10,109,o),
(25,-83,o),
(102,-269,cs),
(115,-298,o),
(150,-308,o),
(172,-294,cs)
);
}
);
width = 325;
}
);
metricLeft = N;
metricRight = N;
unicode = 40;
},
{
glyphname = parenright;
lastChange = "2022-03-22 01:38:35 +0000";
layers = (
{
layerId = m01;
shapes = (
{
closed = 1;
nodes = (
(153,643,o),
(151,629,o),
(157,612,cs),
(231,426,o),
(233,268,o),
(198,128,cs),
(166,2,o),
(78,-139,o),
(-57,-257,cs),
(-76,-273,o),
(-79,-287,o),
(-72,-295,cs),
(-65,-303,o),
(-47,-301,o),
(-26,-285,cs),
(115,-167,o),
(227,15,o),
(254,124,cs),
(284,247,o),
(272,443,o),
(195,631,cs),
(188,648,o),
(172,653,o),
(161,648,cs)
);
}
);
width = 358;
},
{
layerId = m002;
shapes = (
{
closed = 1;
nodes = (
(138,633,o),
(130,614,o),
(142,585,cs),
(211,411,o),
(217,264,o),
(183,133,cs),
(154,15,o),
(69,-110,o),
(-57,-219,cs),
(-90,-248,o),
(-87,-271,o),
(-74,-287,cs),
(-60,-303,o),
(-27,-307,o),
(6,-281,cs),
(146,-164,o),
(260,11,o),
(287,118,cs),
(316,241,o),
(301,433,o),
(224,619,cs),
(211,648,o),
(176,658,o),
(154,644,cs)
);
}
);
width = 325;
}
);
metricLeft = N;
metricRight = N;
unicode = 41;
},
{
glyphname = braceleft;
lastChange = "2022-03-22 01:38:35 +0000";
layers = (
{
layerId = m01;
shapes = (
{
closed = 1;
nodes = (
(135,236,o),
(150,268,o),
(161,312,cs),
(174,364,o),
(167,480,o),
(191,537,cs),
(213,586,o),
(269,609,o),
(301,617,cs),
(315,621,o),
(319,630,o),
(316,641,cs),
(312,655,o),
(295,650,o),
(281,646,cs),
(252,634,o),
(183,606,o),
(160,555,cs),
(134,495,o),
(139,377,o),
(125,320,cs),
(116,293,o),
(102,267,o),
(76,245,cs),
(62,233,o),
(51,227,o),
(48,211,c),
(92,200,l)
);
},
{
closed = 1;
nodes = (
(47,196,o),
(53,187,o),
(60,170,cs),
(74,136,o),
(77,107,o),
(72,78,cs),
(61,22,o),
(9,-83,o),
(7,-149,cs),
(6,-206,o),
(30,-258,o),
(53,-287,cs),
(64,-299,o),
(75,-304,o),
(84,-295,cs),
(93,-286,o),
(85,-277,o),
(76,-266,cs),
(51,-237,o),
(41,-203,o),
(43,-149,cs),
(45,-86,o),
(99,14,o),
(108,68,cs),
(116,111,o),
(115,149,o),
(92,203,c),
(48,214,l)
);
}
);
width = 294;
},
{
layerId = m002;
shapes = (
{
closed = 1;
nodes = (
(160,219,o),
(177,254,o),
(190,300,cs),
(203,354,o),
(196,461,o),
(217,511,cs),
(236,551,o),
(278,568,o),
(308,575,cs),
(331,582,o),
(345,601,o),
(336,625,cs),
(328,654,o),
(295,652,o),
(271,644,cs),
(241,633,o),
(167,603,o),
(141,546,cs),
(115,483,o),
(119,372,o),
(106,320,cs),
(98,295,o),
(87,278,o),
(67,260,cs),
(44,243,o),
(33,234,o),
(36,195,c),
(105,177,l)
);
},
{
closed = 1;
nodes = (
(26,191,o),
(37,180,o),
(46,161,cs),
(57,133,o),
(59,110,o),
(54,86,cs),
(44,33,o),
(-8,-64,o),
(-10,-132,cs),
(-11,-192,o),
(18,-248,o),
(43,-279,cs),
(64,-306,o),
(95,-305,o),
(111,-287,cs),
(129,-268,o),
(118,-251,o),
(104,-233,cs),
(82,-207,o),
(73,-182,o),
(74,-134,cs),
(77,-78,o),
(130,13,o),
(138,67,cs),
(148,114,o),
(145,156,o),
(118,219,c),
(41,232,l)
);
}
);
width = 255;
}
);
metricLeft = N;
metricRight = N;
unicode = 123;
},
{
glyphname = braceright;
lastChange = "2022-03-22 01:38:35 +0000";
layers = (
{
layerId = m01;
shapes = (
{
closed = 1;
nodes = (
(107,114,o),
(92,82,o),
(81,38,cs),
(68,-14,o),
(75,-130,o),
(51,-187,cs),
(29,-236,o),
(-27,-259,o),
(-59,-267,cs),
(-73,-271,o),
(-77,-280,o),
(-74,-291,cs),
(-70,-305,o),
(-53,-300,o),
(-39,-296,cs),
(-10,-284,o),
(59,-256,o),
(82,-205,cs),
(108,-145,o),
(103,-27,o),
(117,30,cs),
(126,57,o),
(140,83,o),
(166,105,cs),
(180,117,o),
(191,123,o),
(194,139,c),
(150,150,l)
);
},
{
closed = 1;
nodes = (
(195,154,o),
(189,163,o),
(182,180,cs),
(168,214,o),
(165,243,o),
(170,272,cs),
(181,328,o),
(233,433,o),
(235,499,cs),
(236,556,o),
(212,608,o),
(189,637,cs),
(178,649,o),
(167,654,o),
(158,645,cs),
(149,636,o),
(157,627,o),
(166,616,cs),
(191,587,o),
(201,553,o),
(199,499,cs),
(197,436,o),
(143,336,o),
(134,282,cs),
(126,239,o),
(127,201,o),
(150,147,c),
(194,136,l)
);
}
);
width = 294;
},
{
layerId = m002;
shapes = (
{
closed = 1;
nodes = (
(96,131,o),
(79,96,o),
(66,50,cs),
(53,-4,o),
(60,-111,o),
(39,-161,cs),
(20,-201,o),
(-22,-218,o),
(-52,-225,cs),
(-75,-232,o),
(-89,-251,o),
(-80,-275,cs),
(-72,-304,o),
(-39,-302,o),
(-15,-294,cs),
(15,-283,o),
(89,-253,o),
(115,-196,cs),
(141,-133,o),
(137,-22,o),
(150,30,cs),
(158,55,o),
(169,72,o),
(189,90,cs),
(212,107,o),
(223,116,o),
(220,155,c),
(151,173,l)
);
},
{
closed = 1;
nodes = (
(230,159,o),
(219,170,o),
(210,189,cs),
(199,217,o),
(197,240,o),
(202,264,cs),
(212,317,o),
(264,414,o),
(266,482,cs),
(267,542,o),
(238,598,o),
(213,629,cs),
(192,656,o),
(161,655,o),
(145,637,cs),
(127,618,o),
(138,601,o),
(152,583,cs),
(174,557,o),
(183,532,o),
(182,484,cs),
(179,428,o),
(126,337,o),
(118,283,cs),
(108,236,o),
(111,194,o),
(138,131,c),
(215,118,l)
);
}
);
width = 255;
}
);
metricLeft = N;
metricRight = N;
unicode = 125;
},
{
glyphname = bracketleft;
lastChange = "2022-03-22 01:38:35 +0000";
layers = (
{
layerId = m01;
shapes = (
{
closed = 1;
nodes = (
(206,634,o),
(207,648,o),
(186,650,cs),
(165,651,o),
(156,641,o),
(152,625,cs),
(-72,-272,ls),
(-76,-286,o),
(-69,-300,o),
(-49,-300,cs),
(-27,-300,o),
(-24,-285,o),
(-21,-275,cs),
(202,617,ls)
);
},
{
closed = 1;
nodes = (
(99,-300,ls),
(116,-300,o),
(125,-288,o),
(125,-277,cs),
(125,-266,o),
(117,-255,o),
(99,-255,cs),
(-23,-255,l),
(-50,-300,l)
);
},
{
closed = 1;
nodes = (
(323,605,ls),
(340,605,o),
(349,616,o),
(350,627,cs),
(351,638,o),
(342,650,o),
(323,650,cs),
(185,650,l),
(192,605,l)
);
}
);
width = 329;
},
{
layerId = m002;
shapes = (
{
closed = 1;
nodes = (
(243,636,o),
(219,648,o),
(192,650,cs),
(162,652,o),
(141,640,o),
(134,613,cs),
(-80,-248,ls),
(-87,-275,o),
(-69,-300,o),
(-35,-300,cs),
(-2,-300,o),
(15,-281,o),
(20,-259,cs),
(233,597,ls)
);
},
{
closed = 1;
nodes = (
(109,-300,ls),
(139,-300,o),
(156,-284,o),
(161,-258,cs),
(166,-230,o),
(140,-215,o),
(109,-215,cs),
(21,-215,l),
(-36,-300,l)
);
},
{
closed = 1;
nodes = (
(324,565,ls),
(352,565,o),
(371,582,o),
(375,605,cs),
(380,633,o),
(353,650,o),
(324,650,cs),
(191,650,l),
(181,565,l)
);
}
);
width = 293;
}
);
metricLeft = N;
metricRight = N;
unicode = 91;
},
{
glyphname = bracketright;
lastChange = "2022-03-22 01:38:35 +0000";
layers = (
{
layerId = m01;
shapes = (
{
closed = 1;
nodes = (
(71,-284,o),
(70,-298,o),
(91,-300,cs),
(112,-301,o),
(121,-291,o),
(125,-275,cs),
(349,622,ls),
(353,636,o),
(346,650,o),
(326,650,cs),
(304,650,o),
(301,635,o),
(298,625,cs),
(75,-267,ls)
);
},
{
closed = 1;
nodes = (
(178,650,ls),
(161,650,o),
(152,638,o),
(152,627,cs),
(152,616,o),
(160,605,o),
(178,605,cs),
(300,605,l),
(327,650,l)
);
},
{
closed = 1;
nodes = (
(-46,-255,ls),
(-63,-255,o),
(-72,-266,o),
(-73,-277,cs),
(-74,-288,o),
(-65,-300,o),
(-46,-300,cs),
(92,-300,l),
(85,-255,l)
);
}
);
width = 329;
},
{
layerId = m002;
shapes = (
{
closed = 1;
nodes = (
(51,-286,o),
(75,-298,o),
(102,-300,cs),
(132,-302,o),
(153,-290,o),
(160,-263,cs),
(374,598,ls),
(381,625,o),
(363,650,o),
(329,650,cs),
(296,650,o),
(279,631,o),
(274,609,cs),
(61,-247,ls)
);
},
{
closed = 1;
nodes = (
(185,650,ls),
(155,650,o),
(138,634,o),
(133,608,cs),
(128,580,o),
(154,565,o),
(185,565,cs),
(273,565,l),
(330,650,l)
);
},
{
closed = 1;
nodes = (
(-30,-215,ls),
(-58,-215,o),
(-77,-232,o),
(-81,-255,cs),
(-86,-283,o),
(-59,-300,o),
(-30,-300,cs),
(103,-300,l),
(113,-215,l)
);
}
);
width = 293;
}
);
metricLeft = N;
metricRight = N;
unicode = 93;
},
{
glyphname = quotedbl;
lastChange = "2022-03-22 01:38:35 +0000";
layers = (
{
layerId = m002;
shapes = (
{
closed = 1;
nodes = (
(402,625,o),
(377,648,o),
(350,650,cs),
(327,652,o),
(301,638,o),
(295,614,cs),
(270,515,ls),
(261,478,o),
(290,460,o),
(314,458,cs),
(336,457,o),
(364,469,o),
(370,494,cs),
(394,592,ls)
);
},
{
closed = 1;
nodes = (
(241,624,o),
(219,648,o),
(191,650,cs),
(168,652,o),
(141,637,o),
(134,610,cs),
(110,515,ls),
(102,483,o),
(126,460,o),
(153,458,cs),
(176,457,o),
(202,470,o),
(209,496,cs),
(233,591,ls)
);
}
);
width = 314;
},
{
layerId = m01;
shapes = (
{
closed = 1;
nodes = (
(208,638,o),
(196,649,o),
(183,650,cs),
(171,651,o),
(156,643,o),
(152,626,cs),
(128,532,ls),
(123,514,o),
(135,503,o),
(148,502,cs),
(160,501,o),
(175,508,o),
(179,524,cs),
(203,619,ls)
);
},
{
closed = 1;
nodes = (
(316,638,o),
(305,649,o),
(291,650,cs),
(279,651,o),
(265,643,o),
(262,630,cs),
(237,531,ls),
(232,512,o),
(244,503,o),
(258,502,cs),
(270,501,o),
(285,507,o),
(288,521,cs),
(311,618,ls)
);
}
);
width = 293;
}
);
metricLeft = N;
metricRight = N;
unicode = 34;
},
{
glyphname = quotesingle;
lastChange = "2022-03-17 23:46:06 +0000";
layers = (
{
layerId = m002;
shapes = (
{
closed = 1;
nodes = (
(263,629,o),
(238,650,o),
(210,650,cs),
(187,650,o),
(164,635,o),
(158,610,cs),
(140,510,ls),
(134,472,o),
(164,456,o),
(188,456,cs),
(210,456,o),
(237,470,o),
(241,496,cs),
(258,595,ls)
);
}
);
width = 319;
},
{
layerId = m01;
shapes = (
{
closed = 1;
nodes = (
(196,640,o),
(184,650,o),
(170,650,cs),
(158,650,o),
(146,642,o),
(143,628,cs),
(125,528,ls),
(122,509,o),
(134,500,o),
(148,500,cs),
(160,500,o),
(174,507,o),
(176,521,cs),
(193,620,ls)
);
}
);
width = 232;
}
);
unicode = 39;
},
{
glyphname = at;
lastChange = "2022-03-22 01:38:39 +0000";
layers = (
{
layerId = m01;
shapes = (
{
closed = 1;
nodes = (
(455,127,l),
(444,109,ls),
(430,87,o),
(397,46,o),
(380,46,cs),
(361,46,o),
(372,117,o),
(376,133,cs),
(424,322,ls),
(428,338,o),
(424,349,o),
(407,350,cs),
(388,351,o),
(378,343,o),
(373,325,cs),
(330,155,ls),
(313,87,o),
(308,0,o),
(378,0,cs),
(420,0,o),
(456,44,o),
(478,76,cs),
(495,101,l)
);
},
{
closed = 1;
nodes = (
(217,350,o),
(161,271,o),
(132,156,cs),
(113,80,o),
(145,-4,o),
(218,-4,cs),
(304,-4,o),
(353,89,o),
(373,166,cs),
(393,244,o),
(390,350,o),
(307,350,cs)
);
},
{
closed = 1;
nodes = (
(350,304,o),
(334,217,o),
(324,178,cs),
(311,125,o),
(269,41,o),
(230,41,cs),
(174,41,o),
(171,109,o),
(186,169,cs),
(200,226,o),
(249,304,o),
(296,304,cs)
);
},
{
closed = 1;
nodes = (
(337,-110,o),
(348,-92,o),
(342,-79,cs),
(336,-66,o),
(319,-63,o),
(307,-67,cs),
(254,-83,o),
(178,-93,o),
(132,-67,cs),
(74,-34,o),
(12,48,o),
(43,174,cs),
(86,347,o),
(161,429,o),
(332,429,cs),
(454,429,o),
(537,382,o),
(510,272,cs),
(497,217,o),
(477,165,o),
(453,124,c),
(492,97,l),
(526,149,o),
(545,207,o),
(560,267,cs),
(594,406,o),
(491,479,o),
(334,479,cs),
(138,479,o),
(41,372,o),
(-8,175,cs),
(-43,34,o),
(31,-67,o),
(107,-109,cs),
(170,-144,o),
(262,-133,o),
(326,-113,cs)
);
}
);
width = 593;
},
{
layerId = m002;
shapes = (
{
closed = 1;
nodes = (
(517,120,l),
(509,109,ls),
(503,101,o),
(492,91,o),
(486,91,cs),
(476,91,o),
(477,106,o),
(490,158,cs),
(525,297,ls),
(534,333,o),
(510,348,o),
(486,350,cs),
(459,352,o),
(434,340,o),
(427,311,cs),
(392,167,ls),
(373,90,o),
(380,0,o),
(459,0,cs),
(505,0,o),
(555,16,o),
(580,52,cs),
(594,72,l)
);
},
{
closed = 1;
nodes = (
(245,350,o),
(177,261,o),
(159,160,cs),
(146,84,o),
(187,-4,o),
(261,-4,cs),
(370,-4,o),
(431,87,o),
(452,166,cs),
(472,244,o),
(457,350,o),
(360,350,cs)
);
},
{
closed = 1;
nodes = (
(378,260,o),
(386,213,o),
(376,179,cs),
(363,134,o),
(334,85,o),
(286,85,cs),
(258,85,o),
(253,125,o),
(261,174,cs),
(269,212,o),
(295,260,o),
(338,260,cs)
);
},
{
closed = 1;
nodes = (
(436,-133,o),
(452,-105,o),
(441,-80,cs),
(430,-55,o),
(401,-51,o),
(386,-56,cs),
(317,-79,o),
(233,-87,o),
(169,-25,cs),
(125,17,o),
(81,88,o),
(109,200,cs),
(146,348,o),
(256,424,o),
(416,424,cs),
(540,424,o),
(600,361,o),
(578,274,cs),
(561,207,o),
(548,158,o),
(514,116,c),
(591,67,l),
(639,139,o),
(655,192,o),
(671,256,cs),
(705,390,o),
(613,514,o),
(423,514,cs),
(230,514,o),
(69,429,o),
(16,218,cs),
(-22,67,o),
(45,-38,o),
(115,-98,cs),
(208,-177,o),
(330,-173,o),
(420,-139,cs)
);
}
);
width = 698;
}
);
metricLeft = o;
metricRight = o;
unicode = 64;
},
{
glyphname = ampersand;
lastChange = "2022-03-22 01:38:39 +0000";
layers = (
{
layerId = m01;
shapes = (
{
closed = 1;
nodes = (
(402,4,o),
(420,-7,o),
(435,4,cs),
(448,14,o),
(445,29,o),
(437,41,cs),
(247,317,l),
(178,324,l),
(117,279,o),
(76,227,o),
(67,178,cs),
(53,103,o),
(107,-4,o),
(227,-4,cs),
(317,-4,o),
(356,56,o),
(424,169,c),
(432,181,o),
(428,195,o),
(416,201,cs),
(404,208,o),
(388,203,o),
(379,190,c),
(318,96,o),
(296,46,o),
(227,46,cs),
(153,46,o),
(104,103,o),
(115,164,cs),
(123,205,o),
(158,249,o),
(209,285,c),
(395,14,ls)
);
},
{
closed = 1;
nodes = (
(212,363,o),
(167,424,o),
(167,455,cs),
(167,487,o),
(213,518,o),
(270,518,cs),
(314,518,o),
(331,500,o),
(335,486,cs),
(344,449,o),
(272,383,o),
(171,319,c),
(247,309,l),
(334,371,o),
(401,432,o),
(381,500,cs),
(368,547,o),
(323,568,o),
(270,568,cs),
(182,568,o),
(117,510,o),
(117,453,cs),
(117,403,o),
(166,342,o),
(188,309,c),
(231,335,l)
);
}
);
width = 551;
},
{
layerId = m002;
shapes = (
{
closed = 1;
nodes = (
(396,3,o),
(432,-9,o),
(456,8,cs),
(481,27,o),
(476,52,o),
(462,73,cs),
(283,335,l),
(196,344,l),
(132,297,o),
(87,243,o),
(77,190,cs),
(62,108,o),
(122,-4,o),
(249,-4,cs),
(348,-4,o),
(390,63,o),
(452,168,cs),
(466,190,o),
(458,213,o),
(437,225,cs),
(415,238,o),
(383,231,o),
(368,209,cs),
(310,120,o),
(296,86,o),
(249,86,cs),
(193,86,o),
(162,123,o),
(171,169,cs),
(176,197,o),
(196,225,o),
(227,251,c),
(383,23,ls)
);
},
{
closed = 1;
nodes = (
(256,369,o),
(219,419,o),
(219,441,cs),
(219,460,o),
(244,478,o),
(289,478,cs),
(316,478,o),
(323,473,o),
(325,465,cs),
(331,438,o),
(266,386,o),
(172,333,c),
(275,284,l),
(361,344,o),
(438,409,o),
(415,489,cs),
(400,543,o),
(346,568,o),
(289,568,cs),
(194,568,o),
(123,504,o),
(123,439,cs),
(123,386,o),
(172,325,o),
(205,276,c),
(287,325,l)
);
}
);
width = 574;
}
);
metricLeft = O;
metricRight = n;
unicode = 38;
},
{
glyphname = degree;
lastChange = "2022-03-22 01:38:35 +0000";
layers = (
{
layerId = m01;
shapes = (
{
closed = 1;
nodes = (
(193,693,o),
(154,632,o),
(132,546,cs),
(113,471,o),
(122,386,o),
(195,386,cs),
(281,386,o),
(337,480,o),
(356,556,cs),
(368,605,o),
(366,693,o),
(283,693,cs)
);
},
{
closed = 1;
nodes = (
(326,647,o),
(309,578,o),
(307,568,cs),
(294,516,o),
(246,432,o),
(207,432,cs),
(151,432,o),
(174,500,o),
(189,559,cs),
(196,587,o),
(225,647,o),
(272,647,cs)
);
}
);
width = 352;
},
{
layerId = m002;
shapes = (
{
closed = 1;
nodes = (
(186,693,o),
(137,622,o),
(115,536,cs),
(96,461,o),
(115,356,o),
(198,356,cs),
(294,356,o),
(360,470,o),
(379,546,cs),
(391,595,o),
(379,693,o),
(286,693,cs)
);
},
{
closed = 1;
nodes = (
(314,617,o),
(302,568,o),
(300,558,cs),
(287,506,o),
(244,432,o),
(210,432,cs),
(174,432,o),
(187,490,o),
(202,549,cs),
(209,577,o),
(233,617,o),
(275,617,cs)
);
}
);
width = 310;
}
);
metricLeft = N;
metricRight = N;
unicode = 176;
},
{
glyphname = bar;
lastChange = "2022-03-22 01:38:35 +0000";
layers = (
{
layerId = m01;
shapes = (
{
closed = 1;
nodes = (
(219,689,o),
(209,699,o),
(196,700,cs),
(184,701,o),
(169,692,o),
(165,674,cs),
(-72,-272,ls),
(-76,-286,o),
(-68,-300,o),
(-50,-300,cs),
(-29,-300,o),
(-24,-287,o),
(-21,-277,cs),
(214,667,ls)
);
}
);
width = 183;
},
{
layerId = m002;
shapes = (
{
closed = 1;
nodes = (
(251,676,o),
(228,700,o),
(201,700,cs),
(179,700,o),
(153,687,o),
(145,655,cs),
(-79,-242,ls),
(-86,-270,o),
(-67,-300,o),
(-35,-300,cs),
(-1,-300,o),
(14,-280,o),
(19,-259,cs),
(241,635,ls)
);
}
);
width = 151;
}
);
metricLeft = N;
metricRight = N;
unicode = 124;
},
{
glyphname = brokenbar;
lastChange = "2022-03-22 01:38:35 +0000";
layers = (
{
layerId = m01;
shapes = (
{
closed = 1;
nodes = (
(85,150,o),
(75,162,o),
(63,163,cs),
(50,164,o),
(34,154,o),
(30,137,cs),
(-72,-272,ls),
(-76,-286,o),
(-69,-300,o),
(-50,-300,cs),
(-29,-300,o),
(-24,-287,o),
(-21,-277,cs),
(81,134,ls)
);
},
{
closed = 1;
nodes = (
(220,689,o),
(209,699,o),
(196,700,cs),
(184,701,o),
(170,692,o),
(165,674,cs),
(62,266,ls),
(58,250,o),
(68,238,o),
(81,238,cs),
(94,237,o),
(109,246,o),
(113,263,cs),
(214,667,ls)
);
}
);
width = 183;
},
{
layerId = m002;
shapes = (
{
closed = 1;
nodes = (
(117,138,o),
(97,163,o),
(70,163,cs),
(47,163,o),
(19,150,o),
(12,123,cs),
(-79,-245,ls),
(-86,-272,o),
(-67,-300,o),
(-35,-300,cs),
(-1,-300,o),
(14,-282,o),
(19,-261,cs),
(110,108,ls)
);
},
{
closed = 1;
nodes = (
(252,676,o),
(231,700,o),
(205,700,cs),
(181,700,o),
(153,687,o),
(146,659,cs),
(54,292,ls),
(46,261,o),
(67,237,o),
(95,237,cs),
(118,237,o),
(145,251,o),
(152,277,cs),
(243,640,ls)
);
}
);
width = 152;
}
);
metricLeft = N;
metricRight = N;
unicode = 166;
},
{
glyphname = dollar;
lastChange = "2022-03-22 01:38:35 +0000";
layers = (
{
layerId = m01;
shapes = (
{
closed = 1;
nodes = (
(384,629,o),
(375,641,o),
(363,642,cs),
(352,643,o),
(339,635,o),
(334,616,cs),
(168,-48,ls),
(163,-67,o),
(173,-77,o),
(184,-77,cs),
(195,-78,o),
(209,-70,o),
(213,-53,cs),
(379,609,ls)
);
},
{
closed = 1;
nodes = (
(121,49,o),
(89,71,o),
(76,108,cs),
(71,121,o),
(56,126,o),
(43,123,cs),
(28,120,o),
(26,106,o),
(28,96,cs),
(42,38,o),
(96,0,o),
(184,0,cs),
(283,0,o),
(388,6,o),
(418,127,cs),
(439,211,o),
(359,259,o),
(290,312,cs),
(218,367,o),
(153,396,o),
(164,440,cs),
(178,497,o),
(281,518,o),
(356,518,cs),
(427,518,o),
(440,494,o),
(452,457,cs),
(456,444,o),
(473,440,o),
(485,442,cs),
(501,445,o),
(502,459,o),
(500,469,cs),
(484,534,o),
(448,568,o),
(361,568,cs),
(233,568,o),
(132,526,o),
(115,451,cs),
(96,369,o),
(178,335,o),
(247,281,cs),
(323,221,o),
(383,193,o),
(369,135,cs),
(348,50,o),
(261,49,o),
(187,49,cs)
);
}
);
width = 451;
},
{
layerId = m002;
shapes = (
{
closed = 1;
nodes = (
(433,618,o),
(411,640,o),
(385,642,cs),
(363,644,o),
(337,630,o),
(330,602,cs),
(175,-23,ls),
(167,-55,o),
(188,-76,o),
(213,-78,cs),
(235,-79,o),
(261,-66,o),
(268,-39,cs),
(424,583,ls)
);
},
{
closed = 1;
nodes = (
(182,94,o),
(151,103,o),
(143,126,cs),
(133,156,o),
(100,166,o),
(79,162,cs),
(52,157,o),
(39,135,o),
(44,111,cs),
(58,44,o),
(123,0,o),
(213,0,cs),
(304,0,o),
(428,6,o),
(460,132,cs),
(482,225,o),
(404,276,o),
(337,316,cs),
(270,356,o),
(210,387,o),
(216,410,cs),
(226,451,o),
(305,474,o),
(368,474,cs),
(411,474,o),
(429,467,o),
(439,440,cs),
(450,410,o),
(480,400,o),
(502,405,cs),
(530,411,o),
(541,432,o),
(536,456,cs),
(520,528,o),
(471,568,o),
(381,568,cs),
(250,568,o),
(137,511,o),
(118,432,cs),
(96,340,o),
(202,288,o),
(263,250,cs),
(339,203,o),
(371,191,o),
(361,151,cs),
(344,82,o),
(270,94,o),
(236,94,cs)
);
}
);
width = 507;
}
);
metricLeft = S;
metricRight = S;
unicode = 36;
},
{
glyphname = plus;
lastChange = "2022-03-22 01:38:39 +0000";
layers = (
{
layerId = m002;
shapes = (
{
closed = 1;
nodes = (
(240,323,o),
(218,346,o),
(191,348,cs),
(171,349,o),
(148,338,o),
(141,311,cs),
(90,99,ls),
(82,67,o),
(104,44,o),
(131,42,cs),
(151,41,o),
(173,52,o),
(180,79,cs),
(232,291,ls)
);
},
{
closed = 1;
nodes = (
(301,154,o),
(321,174,o),
(321,198,cs),
(321,221,o),
(301,241,o),
(270,241,cs),
(53,241,ls),
(22,241,o),
(2,221,o),
(2,198,cs),
(2,174,o),
(22,154,o),
(53,154,cs),
(270,154,ls)
);
}
);
width = 383;
},
{
layerId = m01;
shapes = (
{
closed = 1;
nodes = (
(191,319,o),
(180,331,o),
(168,332,cs),
(158,333,o),
(148,326,o),
(143,311,cs),
(89,90,ls),
(85,71,o),
(96,59,o),
(108,58,cs),
(118,58,o),
(128,64,o),
(132,80,cs),
(187,301,ls)
);
},
{
closed = 1;
nodes = (
(269,175,o),
(278,187,o),
(278,198,cs),
(278,209,o),
(269,220,o),
(251,220,cs),
(24,220,ls),
(6,220,o),
(-3,209,o),
(-3,198,cs),
(-3,187,o),
(6,175,o),
(24,175,cs),
(251,175,ls)
);
}
);
width = 341;
}
);
metricLeft = n;
metricRight = n;
unicode = 43;
},
{
glyphname = minus;
lastChange = "2022-03-22 01:38:39 +0000";
layers = (
{
layerId = m002;
shapes = (
{
closed = 1;
nodes = (
(301,154,o),
(321,174,o),
(321,198,cs),
(321,222,o),
(301,241,o),
(270,241,cs),
(53,241,ls),
(22,241,o),
(2,222,o),
(2,198,cs),
(2,173,o),
(22,154,o),
(53,154,cs),
(270,154,ls)
);
}
);
width = 383;
},
{
layerId = m01;
shapes = (
{
closed = 1;
nodes = (
(269,175,o),
(278,187,o),
(278,198,cs),
(278,209,o),
(269,220,o),
(251,220,cs),
(24,220,ls),
(6,220,o),
(-3,209,o),
(-3,198,cs),
(-3,186,o),
(6,175,o),
(24,175,cs),
(251,175,ls)
);
}
);
width = 341;
}
);
metricLeft = n;
metricRight = n;
unicode = 8722;
},
{
glyphname = multiply;
lastChange = "2022-03-22 01:38:39 +0000";
layers = (
{
layerId = m002;
shapes = (
{
closed = 1;
nodes = (
(347,292,o),
(345,320,o),
(325,337,cs),
(308,352,o),
(276,357,o),
(254,338,cs),
(8,122,ls),
(-15,102,o),
(-14,78,o),
(2,59,cs),
(20,40,o),
(53,34,o),
(78,56,cs),
(323,271,ls)
);
},
{
closed = 1;
nodes = (
(106,358,o),
(68,353,o),
(51,335,cs),
(36,317,o),
(34,294,o),
(50,273,cs),
(211,59,ls),
(228,36,o),
(264,40,o),
(281,55,cs),
(300,72,o),
(303,97,o),
(285,120,cs),
(126,331,ls)
);
}
);
width = 367;
},
{
layerId = m01;
shapes = (
{
closed = 1;
nodes = (
(303,308,o),
(301,323,o),
(292,331,cs),
(283,340,o),
(267,343,o),
(253,331,cs),
(-15,96,ls),
(-27,86,o),
(-25,71,o),
(-17,62,cs),
(-8,53,o),
(7,48,o),
(23,62,cs),
(289,296,ls)
);
},
{
closed = 1;
nodes = (
(63,341,o),
(47,341,o),
(38,334,cs),
(28,326,o),
(23,311,o),
(32,298,cs),
(205,64,ls),
(216,50,o),
(231,51,o),
(240,58,cs),
(251,66,o),
(256,80,o),
(246,94,cs),
(74,326,ls)
);
}
);
width = 332;
}
);
metricLeft = o;
metricRight = o;
unicode = 215;
},
{
glyphname = divide;
lastChange = "2022-03-22 01:38:39 +0000";
layers = (
{
layerId = m002;
shapes = (
{
closed = 1;
nodes = (
(158,16,o),
(185,40,o),
(185,69,cs),
(185,100,o),
(157,122,o),
(128,122,cs),
(97,122,o),
(73,98,o),
(73,69,cs),
(73,40,o),
(98,16,o),
(128,16,cs)
);
},
{
closed = 1;
nodes = (
(222,273,o),
(249,297,o),
(249,327,cs),
(249,356,o),
(222,379,o),
(192,379,cs),
(162,379,o),
(137,355,o),
(137,327,cs),
(137,298,o),
(162,273,o),
(192,273,cs)
);
},
{
closed = 1;
nodes = (
(336,154,o),
(339,241,o),
(270,241,cs),
(53,241,ls),
(-16,241,o),
(-13,154,o),
(53,154,cs),
(270,154,ls)
);
}
);
width = 382;
},
{
layerId = m01;
shapes = (
{
closed = 1;
nodes = (
(127,57,o),
(143,73,o),
(143,90,cs),
(143,108,o),
(126,122,o),
(109,122,cs),
(90,122,o),
(78,106,o),
(78,90,cs),
(78,73,o),
(91,57,o),
(109,57,cs)
);
},
{
closed = 1;
nodes = (
(181,273,o),
(197,289,o),
(197,306,cs),
(197,323,o),
(181,338,o),
(164,338,cs),
(146,338,o),
(132,322,o),
(132,306,cs),
(132,290,o),
(146,273,o),
(164,273,cs)
);
},
{
closed = 1;
nodes = (
(286,175,o),
(288,220,o),
(251,220,cs),
(24,220,ls),
(-13,220,o),
(-11,175,o),
(24,175,cs),
(251,175,ls)
);
}
);
width = 341;
}
);
metricLeft = n;
metricRight = n;
unicode = 247;
},
{
glyphname = equal;
lastChange = "2022-03-22 01:38:39 +0000";
layers = (
{
layerId = m002;
shapes = (
{
closed = 1;
nodes = (
(324,248,o),
(345,266,o),
(345,290,cs),
(345,314,o),
(324,333,o),
(294,333,cs),
(76,333,ls),
(46,333,o),
(25,314,o),
(25,290,cs),
(25,266,o),
(46,248,o),
(76,248,cs),
(294,248,ls)
);
},
{
closed = 1;
nodes = (
(287,97,o),
(308,116,o),
(308,141,cs),
(308,165,o),
(287,182,o),
(257,182,cs),
(39,182,ls),
(9,182,o),
(-12,165,o),
(-12,141,cs),
(-12,117,o),
(9,97,o),
(39,97,cs),
(257,97,ls)
);
}
);
width = 384;
},
{
layerId = m01;
shapes = (
{
closed = 1;
nodes = (
(288,248,o),
(297,260,o),
(297,271,cs),
(297,282,o),
(288,293,o),
(270,293,cs),
(43,293,ls),
(25,293,o),
(16,282,o),
(16,271,cs),
(16,260,o),
(25,248,o),
(43,248,cs),
(270,248,ls)
);
},
{
closed = 1;
nodes = (
(251,97,o),
(260,108,o),
(260,120,cs),
(260,131,o),
(251,142,o),
(233,142,cs),
(6,142,ls),
(-12,142,o),
(-21,131,o),
(-21,120,cs),
(-21,109,o),
(-12,97,o),
(6,97,cs),
(233,97,ls)
);
}
);
width = 342;
}
);
metricLeft = n;
metricRight = n;
unicode = 61;
},
{
glyphname = notequal;
lastChange = "2022-03-22 01:38:39 +0000";
layers = (
{
layerId = m002;
shapes = (
{
closed = 1;
nodes = (
(306,368,o),
(280,395,o),
(251,397,cs),
(234,398,o),
(211,389,o),
(201,371,cs),
(34,70,ls),
(18,41,o),
(32,18,o),
(56,7,cs),
(76,0,o),
(104,4,o),
(116,26,cs),
(283,326,ls)
);
},
{
closed = 1;
nodes = (
(288,97,o),
(309,116,o),
(309,141,cs),
(309,165,o),
(288,182,o),
(258,182,cs),
(40,182,ls),
(10,182,o),
(-11,165,o),
(-11,141,cs),
(-11,117,o),
(10,97,o),
(40,97,cs),
(258,97,ls)
);
},
{
closed = 1;
nodes = (
(324,248,o),
(345,266,o),
(345,290,cs),
(345,314,o),
(324,333,o),
(294,333,cs),
(76,333,ls),
(46,333,o),
(25,314,o),
(25,290,cs),
(25,266,o),
(46,248,o),
(76,248,cs),
(294,248,ls)
);
}
);
width = 385;
},
{
layerId = m01;
shapes = (
{
closed = 1;
nodes = (
(232,330,o),
(221,344,o),
(207,345,cs),
(197,345,o),
(187,341,o),
(180,330,cs),
(41,78,ls),
(32,60,o),
(39,48,o),
(50,43,cs),
(59,39,o),
(73,41,o),
(79,54,cs),
(218,306,ls)
);
},
{
closed = 1;
nodes = (
(250,97,o),
(259,108,o),
(259,120,cs),
(259,131,o),
(250,142,o),
(232,142,cs),
(5,142,ls),
(-13,142,o),
(-22,131,o),
(-22,120,cs),
(-22,109,o),
(-13,97,o),
(5,97,cs),
(232,97,ls)
);
},
{
closed = 1;
nodes = (
(288,248,o),
(297,260,o),
(297,271,cs),
(297,282,o),
(288,293,o),
(270,293,cs),
(43,293,ls),
(25,293,o),
(16,282,o),
(16,271,cs),
(16,260,o),
(25,248,o),
(43,248,cs),
(270,248,ls)
);
}
);
width = 342;
}
);
metricLeft = n;
metricRight = n;
unicode = 8800;
},
{
glyphname = greater;
lastChange = "2022-03-22 01:38:39 +0000";
layers = (
{
layerId = m002;
shapes = (
{
closed = 1;
nodes = (
(183,204,l),
(10,128,ls),
(-21,114,o),
(-30,96,o),
(-26,73,cs),
(-21,49,o),
(8,30,o),
(40,44,cs),
(265,144,l)
);
},
{
closed = 1;
nodes = (
(237,133,o),
(267,137,o),
(283,158,cs),
(297,179,o),
(297,200,o),
(272,218,cs),
(109,339,ls),
(86,356,o),
(56,353,o),
(41,336,cs),
(23,316,o),
(25,290,o),
(50,271,cs),
(213,151,ls)
);
}
);
width = 357;
},
{
guides = (
{
pos = (131,333);
}
);
layerId = m01;
shapes = (
{
closed = 1;
nodes = (
(194,193,l),
(-11,103,ls),
(-31,94,o),
(-35,83,o),
(-32,71,cs),
(-29,61,o),
(-18,51,o),
(1,59,cs),
(233,161,l)
);
},
{
closed = 1;
nodes = (
(223,155,o),
(234,159,o),
(242,168,cs),
(250,179,o),
(251,189,o),
(237,200,cs),
(68,325,ls),
(53,336,o),
(40,336,o),
(31,327,cs),
(22,316,o),
(24,302,o),
(39,291,cs),
(208,166,ls)
);
}
);
width = 314;
}
);
metricLeft = n;
metricRight = n;
unicode = 62;
},
{
glyphname = less;
lastChange = "2022-03-22 01:38:39 +0000";
layers = (
{
layerId = m002;
shapes = (
{
closed = 1;
nodes = (
(286,261,ls),
(317,275,o),
(326,293,o),
(322,316,cs),
(317,340,o),
(287,360,o),
(256,346,cs),
(27,244,l),
(108,183,l)
);
},
{
closed = 1;
nodes = (
(211,34,o),
(240,36,o),
(255,53,cs),
(273,74,o),
(272,100,o),
(246,119,cs),
(83,238,ls),
(59,256,o),
(29,252,o),
(13,231,cs),
(-1,210,o),
(-1,189,o),
(24,171,cs),
(187,51,ls)
);
}
);
width = 358;
},
{
layerId = m01;
shapes = (
{
closed = 1;
nodes = (
(258,286,ls),
(278,295,o),
(282,306,o),
(279,317,cs),
(276,328,o),
(265,338,o),
(246,330,cs),
(12,227,l),
(35,188,l)
);
},
{
closed = 1;
nodes = (
(194,53,o),
(207,53,o),
(216,62,cs),
(225,72,o),
(223,87,o),
(208,98,cs),
(39,223,ls),
(25,234,o),
(13,230,o),
(6,220,cs),
(-3,210,o),
(-4,200,o),
(10,189,cs),
(179,64,ls)
);
}
);
width = 315;
}
);
metricLeft = n;
metricRight = n;
unicode = 60;
},
{
glyphname = greaterequal;
lastChange = "2022-03-22 01:38:39 +0000";
layers = (
{
layerId = m002;
shapes = (
{
closed = 1;
nodes = (
(270,196,o),
(297,199,o),
(310,218,cs),
(325,240,o),
(324,261,o),
(298,278,cs),
(120,392,ls),
(92,410,o),
(64,402,o),
(52,385,cs),
(36,363,o),
(41,341,o),
(68,324,cs),
(247,211,ls)
);
},
{
closed = 1;
nodes = (
(262,57,o),
(282,75,o),
(282,99,cs),
(282,123,o),
(262,142,o),
(231,142,cs),
(29,142,ls),
(-1,142,o),
(-22,122,o),
(-22,98,cs),
(-22,75,o),
(-1,57,o),
(29,57,cs),
(231,57,ls)
);
},
{
closed = 1;
nodes = (
(139,287,l),
(69,287,ls),
(35,287,o),
(16,271,o),
(13,247,cs),
(11,223,o),
(28,202,o),
(63,202,cs),
(270,202,l)
);
}
);
width = 369;
},
{
layerId = m01;
shapes = (
{
closed = 1;
nodes = (
(248,198,o),
(259,202,o),
(266,212,cs),
(274,223,o),
(271,235,o),
(259,243,cs),
(76,360,ls),
(60,370,o),
(47,369,o),
(39,359,cs),
(31,348,o),
(34,334,o),
(49,324,cs),
(233,207,ls)
);
},
{
closed = 1;
nodes = (
(236,97,o),
(245,108,o),
(245,120,cs),
(245,131,o),
(236,142,o),
(218,142,cs),
(5,142,ls),
(-13,142,o),
(-22,131,o),
(-22,120,cs),
(-22,109,o),
(-13,97,o),
(5,97,cs),
(218,97,ls)
);
},
{
closed = 1;
nodes = (
(179,248,l),
(36,248,ls),
(14,248,o),
(6,239,o),
(4,227,cs),
(3,216,o),
(8,202,o),
(30,202,cs),
(246,202,l)
);
}
);
width = 327;
}
);
metricLeft = n;
metricRight = n;
unicode = 8805;
},
{
glyphname = lessequal;
lastChange = "2022-03-22 01:38:39 +0000";
layers = (
{
layerId = m002;
shapes = (
{
closed = 1;
nodes = (
(332,337,o),
(340,362,o),
(323,386,cs),
(311,403,o),
(285,408,o),
(256,393,cs),
(39,281,ls),
(11,266,o),
(7,242,o),
(23,221,cs),
(36,201,o),
(61,197,o),
(86,210,cs),
(304,322,ls)
);
},
{
closed = 1;
nodes = (
(246,57,o),
(267,75,o),
(267,98,cs),
(267,122,o),
(246,142,o),
(216,142,cs),
(28,142,ls),
(-2,142,o),
(-23,122,o),
(-23,98,cs),
(-23,74,o),
(-2,57,o),
(28,57,cs),
(216,57,ls)
);
},
{
closed = 1;
nodes = (
(253,202,ls),
(281,202,o),
(303,222,o),
(303,245,cs),
(305,272,o),
(279,287,o),
(247,287,cs),
(214,287,l),
(52,202,l)
);
}
);
width = 353;
},
{
layerId = m01;
shapes = (
{
closed = 1;
nodes = (
(286,332,o),
(288,348,o),
(280,359,cs),
(272,369,o),
(260,369,o),
(243,360,cs),
(17,243,ls),
(2,235,o),
(2,223,o),
(10,212,cs),
(17,202,o),
(28,199,o),
(43,207,cs),
(270,324,ls)
);
},
{
closed = 1;
nodes = (
(236,97,o),
(245,109,o),
(245,120,cs),
(245,131,o),
(236,142,o),
(218,142,cs),
(14,142,ls),
(-4,142,o),
(-13,131,o),
(-13,120,cs),
(-13,108,o),
(-4,97,o),
(14,97,cs),
(218,97,ls)
);
},
{
closed = 1;
nodes = (
(237,202,ls),
(253,202,o),
(263,213,o),
(263,225,cs),
(264,236,o),
(254,248,o),
(231,248,cs),
(25,248,l),
(24,202,l)
);
}
);
width = 327;
}
);
metricLeft = n;
metricRight = n;
unicode = 8804;
},
{
glyphname = plusminus;
lastChange = "2022-03-22 01:38:39 +0000";
layers = (
{
layerId = m01;
shapes = (
{
closed = 1;
nodes = (
(192,359,o),
(181,371,o),
(169,372,cs),
(159,372,o),
(148,366,o),
(144,350,cs),
(105,197,ls),
(101,178,o),
(112,166,o),
(124,165,cs),
(134,165,o),
(145,171,o),
(149,187,cs),
(188,340,ls)
);
},
{
closed = 1;
nodes = (
(221,97,o),
(230,108,o),
(230,120,cs),
(230,131,o),
(221,142,o),
(203,142,cs),
(6,142,ls),
(-12,142,o),
(-21,131,o),
(-21,120,cs),
(-21,109,o),
(-12,97,o),
(6,97,cs),
(203,97,ls)
);
},
{
closed = 1;
nodes = (
(258,248,o),
(267,260,o),
(267,271,cs),
(267,282,o),
(258,293,o),
(240,293,cs),
(43,293,ls),
(25,293,o),
(16,282,o),
(16,271,cs),
(16,260,o),
(25,248,o),
(43,248,cs),
(240,248,ls)
);
}
);
width = 312;
},
{
layerId = m002;
shapes = (
{
closed = 1;
nodes = (
(247,383,o),
(223,406,o),
(197,408,cs),
(176,409,o),
(154,398,o),
(148,371,cs),
(110,225,ls),
(102,191,o),
(125,168,o),
(151,167,cs),
(172,165,o),
(195,177,o),
(201,203,cs),
(238,351,ls)
);
},
{
closed = 1;
nodes = (
(248,57,o),
(269,74,o),
(269,99,cs),
(269,122,o),
(248,142,o),
(218,142,cs),
(28,142,ls),
(-2,142,o),
(-22,122,o),
(-22,99,cs),
(-22,75,o),
(-2,57,o),
(28,57,cs),
(218,57,ls)
);
},
{
closed = 1;
nodes = (
(295,248,o),
(315,266,o),
(315,290,cs),
(315,313,o),
(295,333,o),
(265,333,cs),
(75,333,ls),
(45,333,o),
(25,313,o),
(25,290,cs),
(25,266,o),
(45,248,o),
(75,248,cs),
(265,248,ls)
);
}
);
width = 355;
}
);
metricLeft = n;
metricRight = n;
unicode = 177;
},
{
glyphname = approxequal;
lastChange = "2022-03-22 01:38:39 +0000";
layers = (
{
layerId = m01;
shapes = (
{
closed = 1;
nodes = (
(229,227,o),
(249,237,o),
(270,246,cs),
(288,254,o),
(296,260,o),
(296,271,cs),
(296,282,o),
(284,302,o),
(267,294,cs),
(248,285,o),
(235,272,o),
(205,272,cs),
(177,272,o),
(134,310,o),
(103,310,cs),
(77,310,o),
(60,301,o),
(42,294,cs),
(24,287,o),
(15,282,o),
(15,271,cs),
(15,259,o),
(25,238,o),
(43,246,cs),
(58,253,o),
(72,265,o),
(95,265,cs),
(126,265,o),
(169,227,o),
(197,227,cs)
);
},
{
closed = 1;
nodes = (
(192,76,o),
(212,86,o),
(233,95,cs),
(251,103,o),
(259,109,o),
(259,120,cs),
(259,131,o),
(247,151,o),
(230,143,cs),
(211,134,o),
(198,121,o),
(168,121,cs),
(140,121,o),
(97,159,o),
(66,159,cs),
(40,159,o),
(23,150,o),
(5,143,cs),
(-13,136,o),
(-22,131,o),
(-22,120,cs),
(-22,108,o),
(-12,87,o),
(6,95,cs),
(21,102,o),
(35,114,o),
(58,114,cs),
(89,114,o),
(132,76,o),
(160,76,cs)
);
}
);
width = 341;
},
{
layerId = m002;
shapes = (
{
closed = 1;
nodes = (
(263,229,o),
(288,241,o),
(306,249,cs),
(334,262,o),
(346,273,o),
(346,293,cs),
(346,321,o),
(314,351,o),
(282,335,cs),
(258,323,o),
(253,316,o),
(234,316,cs),
(217,316,o),
(175,352,o),
(136,352,cs),
(105,352,o),
(83,342,o),
(67,335,cs),
(40,324,o),
(26,313,o),
(26,293,cs),
(26,261,o),
(58,234,o),
(89,249,cs),
(107,258,o),
(115,265,o),
(128,265,cs),
(148,265,o),
(189,229,o),
(226,229,cs)
);
},
{
closed = 1;
nodes = (
(215,35,o),
(240,47,o),
(258,55,cs),
(286,68,o),
(298,79,o),
(298,99,cs),
(298,127,o),
(266,157,o),
(234,141,cs),
(210,129,o),
(205,122,o),
(186,122,cs),
(169,122,o),
(127,158,o),
(88,158,cs),
(57,158,o),
(35,148,o),
(19,141,cs),
(-8,130,o),
(-22,119,o),
(-22,99,cs),
(-22,67,o),
(10,40,o),
(41,55,cs),
(59,64,o),
(67,71,o),
(80,71,cs),
(100,71,o),
(141,35,o),
(178,35,cs)
);
}
);
width = 384;
}
);
metricLeft = n;
metricRight = n;
unicode = 8776;
},
{
glyphname = asciicircum;
lastChange = "2022-03-22 01:38:35 +0000";
layers = (
{
layerId = m01;
shapes = (
{
closed = 1;
nodes = (
(316,619,o),
(314,634,o),
(305,642,cs),
(296,651,o),
(280,654,o),
(266,642,cs),
(133,531,ls),
(121,521,o),
(123,506,o),
(131,497,cs),
(140,488,o),
(155,484,o),
(171,497,cs),
(302,607,ls)
);
},
{
closed = 1;
nodes = (
(267,609,l),
(360,499,ls),
(371,486,o),
(386,488,o),
(395,496,cs),
(405,504,o),
(408,520,o),
(398,532,cs),
(306,641,l)
);
}
);
width = 411;
},
{
layerId = m002;
shapes = (
{
closed = 1;
nodes = (
(350,590,o),
(348,617,o),
(330,635,cs),
(313,653,o),
(279,657,o),
(256,638,cs),
(123,527,ls),
(99,507,o),
(103,481,o),
(116,464,cs),
(134,442,o),
(169,439,o),
(193,459,cs),
(324,569,ls)
);
},
{
closed = 1;
nodes = (
(255,573,l),
(347,464,ls),
(366,441,o),
(401,443,o),
(419,460,cs),
(438,477,o),
(442,502,o),
(423,525,cs),
(330,635,l)
);
}
);
width = 381;
}
);
metricLeft = N;
metricRight = N;
unicode = 94;
},
{
glyphname = infinity;
lastChange = "2022-03-22 01:38:39 +0000";
layers = (
{
layerId = m01;
shapes = (
{
closed = 1;
nodes = (
(275,196,ls),
(308,146,o),
(347,90,o),
(405,80,cs),
(469,69,o),
(558,109,o),
(583,211,cs),
(607,307,o),
(528,349,o),
(471,359,cs),
(419,368,o),
(352,356,o),
(271,279,c),
(264,213,l)
);
},
{
closed = 1;
nodes = (
(215,214,o),
(116,121,o),
(80,127,cs),
(48,132,o),
(47,191,o),
(56,227,cs),
(66,267,o),
(87,322,o),
(143,312,cs),
(184,305,o),
(222,267,o),
(240,241,c),
(273,279,l),
(251,309,o),
(212,352,o),
(157,361,cs),
(71,377,o),
(23,298,o),
(5,226,cs),
(-9,168,o),
(5,93,o),
(72,81,cs),
(140,69,o),
(203,140,o),
(272,210,c),
(274,280,l)
);
},
{
closed = 1;
nodes = (
(372,307,o),
(417,319,o),
(456,312,cs),
(504,303,o),
(546,263,o),
(534,214,cs),
(520,158,o),
(457,123,o),
(414,130,cs),
(373,137,o),
(344,187,o),
(315,227,cs),
(305,241,l)
);
}
);
width = 630;
},
{
layerId = m002;
shapes = (
{
closed = 1;
nodes = (
(291,179,ls),
(323,126,o),
(365,71,o),
(426,61,cs),
(495,49,o),
(601,92,o),
(629,205,cs),
(656,314,o),
(557,362,o),
(497,373,cs),
(442,383,o),
(372,369,o),
(287,284,c),
(276,204,l)
);
},
{
closed = 1;
nodes = (
(228,221,o),
(158,150,o),
(133,154,cs),
(108,158,o),
(94,195,o),
(102,227,cs),
(111,261,o),
(147,284,o),
(184,278,cs),
(226,271,o),
(258,220,o),
(275,198,c),
(338,272,l),
(322,296,o),
(278,361,o),
(206,374,cs),
(109,391,o),
(42,325,o),
(19,230,cs),
(-1,146,o),
(40,73,o),
(116,60,cs),
(192,47,o),
(260,126,o),
(330,197,c),
(274,272,l)
);
},
{
closed = 1;
nodes = (
(419,277,o),
(450,284,o),
(478,279,cs),
(518,272,o),
(553,253,o),
(544,215,cs),
(534,173,o),
(490,150,o),
(457,156,cs),
(414,163,o),
(384,212,o),
(374,227,cs),
(370,233,l)
);
}
);
width = 669;
}
);
metricLeft = o;
metricRight = o;
unicode = 8734;
},
{
glyphname = percent;
lastChange = "2022-03-22 01:38:35 +0000";
layers = (
{
layerId = m01;
shapes = (
{
closed = 1;
nodes = (
(521,637,o),
(506,650,o),
(491,650,cs),
(480,650,o),
(469,644,o),
(462,627,cs),
(205,31,ls),
(197,12,o),
(211,0,o),
(227,0,cs),
(238,0,o),
(249,6,o),
(255,20,cs),
(512,616,ls)
);
},
{
closed = 1;
nodes = (
(182,650,o),
(143,589,o),
(121,503,cs),
(102,428,o),
(111,343,o),
(184,343,cs),
(270,343,o),
(326,437,o),
(345,513,cs),
(357,562,o),
(355,650,o),
(272,650,cs)
);
},
{
closed = 1;
nodes = (
(315,604,o),
(298,535,o),
(296,525,cs),
(283,473,o),
(235,389,o),
(196,389,cs),
(140,389,o),
(163,457,o),
(178,516,cs),
(185,544,o),
(214,604,o),
(261,604,cs)
);
},
{
closed = 1;
nodes = (
(449,307,o),
(410,246,o),
(388,160,cs),
(369,85,o),
(378,0,o),
(451,0,cs),
(537,0,o),
(593,94,o),
(612,170,cs),
(624,219,o),
(622,307,o),
(539,307,cs)
);
},
{
closed = 1;
nodes = (
(582,261,o),
(565,192,o),
(563,182,cs),
(550,130,o),
(502,46,o),
(463,46,cs),
(407,46,o),
(430,114,o),
(445,173,cs),
(452,201,o),
(481,261,o),
(528,261,cs)
);
}
);
width = 704;
},
{
layerId = m002;
shapes = (
{
closed = 1;
nodes = (
(596,624,o),
(565,650,o),
(535,650,cs),
(515,650,o),
(493,639,o),
(482,614,cs),
(242,60,ls),
(227,25,o),
(256,0,o),
(288,0,cs),
(307,0,o),
(329,10,o),
(339,32,cs),
(580,588,ls)
);
},
{
closed = 1;
nodes = (
(175,649,o),
(126,578,o),
(104,492,cs),
(85,417,o),
(104,312,o),
(187,312,cs),
(283,312,o),
(349,426,o),
(368,502,cs),
(380,551,o),
(368,649,o),
(275,649,cs)
);
},
{
closed = 1;
nodes = (
(303,573,o),
(291,524,o),
(289,514,cs),
(276,462,o),
(233,388,o),
(199,388,cs),
(163,388,o),
(176,446,o),
(191,505,cs),
(198,533,o),
(222,573,o),
(264,573,cs)
);
},
{
closed = 1;
nodes = (
(535,337,o),
(486,266,o),
(464,180,cs),
(445,105,o),
(464,0,o),
(547,0,cs),
(643,0,o),
(709,114,o),
(728,190,cs),
(740,239,o),
(728,337,o),
(635,337,cs)
);
},
{
closed = 1;
nodes = (
(663,261,o),
(651,212,o),
(649,202,cs),
(636,150,o),
(593,76,o),
(559,76,cs),
(523,76,o),
(536,134,o),
(551,193,cs),
(558,221,o),
(582,261,o),
(624,261,cs)
);
}
);
width = 748;
}
);
metricLeft = N;
metricRight = N;
unicode = 37;
},
{
glyphname = grave;
lastChange = "2022-03-22 01:38:35 +0000";
layers = (
{
layerId = m01;
shapes = (
{
closed = 1;
nodes = (
(212,696,o),
(199,701,o),
(188,701,cs),
(172,700,o),
(157,686,o),
(170,664,cs),
(224,572,ls),
(233,557,o),
(246,554,o),
(255,559,cs),
(263,563,o),
(266,573,o),
(260,587,cs),
(218,683,ls)
);
}
);
width = 255;
},
{
layerId = m002;
shapes = (
{
closed = 1;
nodes = (
(238,690,o),
(214,700,o),
(194,700,cs),
(161,698,o),
(131,669,o),
(156,630,cs),
(213,542,ls),
(231,515,o),
(256,508,o),
(275,519,cs),
(294,530,o),
(297,547,o),
(286,573,cs),
(247,669,ls)
);
}
);
width = 225;
}
);
metricLeft = N;
metricRight = N;
unicode = 96;
},
{
glyphname = tilde;
lastChange = "2022-03-22 01:38:39 +0000";
layers = (
{
layerId = m01;
shapes = (
{
closed = 1;
nodes = (
(212,158,o),
(232,168,o),
(253,177,cs),
(271,185,o),
(279,191,o),
(279,202,cs),
(279,213,o),
(267,233,o),
(250,225,cs),
(231,216,o),
(218,203,o),
(188,203,cs),
(160,203,o),
(117,241,o),
(86,241,cs),
(60,241,o),
(43,232,o),
(25,225,cs),
(7,218,o),
(-2,213,o),
(-2,202,cs),
(-2,190,o),
(8,169,o),
(26,177,cs),
(41,184,o),
(55,196,o),
(78,196,cs),
(109,196,o),
(152,158,o),
(180,158,cs)
);
}
